G04*
G04 #@! TF.GenerationSoftware,Altium Limited,Altium Designer,18.0.12 (696)*
G04*
G04 Layer_Color=16711935*
%FSAX24Y24*%
%MOIN*%
G70*
G01*
G75*
%ADD60C,0.0010*%
D60*
X014450Y033721D02*
Y034201D01*
X027200D01*
Y033201D02*
Y034201D01*
X014450Y033201D02*
X027200D01*
X014450D02*
Y033721D01*
X001800Y033720D02*
Y034200D01*
X012650D01*
Y033200D02*
Y034200D01*
X001800Y033200D02*
X012650D01*
X001800D02*
Y033720D01*
X029000Y033201D02*
X035000D01*
X000000Y000000D02*
X010598D01*
Y008402D01*
X035000D01*
Y033201D01*
X-000000Y034201D02*
X000000Y000000D01*
X021300Y059751D02*
Y060201D01*
X027200D01*
Y059201D02*
Y060201D01*
X021300Y059201D02*
X027200D01*
X021300D02*
Y059751D01*
X000000Y034201D02*
Y084701D01*
X020400D01*
X029000D01*
Y041001D02*
Y084701D01*
Y033201D02*
Y041001D01*
X010000Y060201D02*
X019500D01*
Y059621D02*
Y060201D01*
Y059201D02*
Y059621D01*
X010000Y059201D02*
X019500D01*
X010000D02*
Y060201D01*
X001800Y059201D02*
Y059721D01*
Y059201D02*
X008200D01*
Y060201D01*
X001800D02*
X008200D01*
X001800Y059721D02*
Y060201D01*
M02*
