G04*
G04 #@! TF.GenerationSoftware,Altium Limited,Altium Designer,18.0.12 (696)*
G04*
G04 Layer_Color=65535*
%FSAX24Y24*%
%MOIN*%
G70*
G01*
G75*
%ADD10C,0.0120*%
%ADD11C,0.0040*%
%ADD12C,0.0210*%
%ADD13C,0.0079*%
%ADD14C,0.0100*%
%ADD15C,0.0098*%
%ADD16C,0.0200*%
%ADD17C,0.0070*%
%ADD18C,0.0080*%
G36*
X009112Y032175D02*
X009467Y031702D01*
X009205D01*
X008950Y032045D01*
X008520Y031702D01*
X008185D01*
X008825Y032213D01*
X008455Y032710D01*
X008717D01*
X008990Y032343D01*
X009450Y032710D01*
X009785D01*
X009112Y032175D01*
D02*
G37*
G36*
X008257Y032100D02*
X007427D01*
X007485Y032310D01*
X008313D01*
X008257Y032100D01*
D02*
G37*
G36*
X006775D02*
X005913D01*
X005970Y032310D01*
X006833D01*
X006775Y032100D01*
D02*
G37*
G36*
X008365Y032500D02*
X007320D01*
X007105Y031702D01*
X006898D01*
X007110Y032500D01*
X006020D01*
X006075Y032710D01*
X008420D01*
X008365Y032500D01*
D02*
G37*
G36*
X006668Y031702D02*
X005805D01*
X005863Y031913D01*
X006725D01*
X006668Y031702D01*
D02*
G37*
G36*
X005545Y032708D02*
X005570Y032705D01*
X005602Y032698D01*
X005630Y032687D01*
X005663Y032673D01*
X005690Y032655D01*
X005723Y032633D01*
X005748Y032605D01*
X005767Y032582D01*
X005790Y032548D01*
X005807Y032508D01*
X005820Y032465D01*
X005828Y032422D01*
X005825Y032375D01*
X005822Y032340D01*
X005707Y031918D01*
X005698Y031890D01*
X005683Y031862D01*
X005663Y031827D01*
X005638Y031797D01*
X005608Y031772D01*
X005583Y031753D01*
X005560Y031737D01*
X005533Y031727D01*
X005495Y031713D01*
X005452Y031705D01*
X005430Y031702D01*
X004560D01*
X004830Y032710D01*
X005515D01*
X005545Y032708D01*
D02*
G37*
G36*
X008207Y031910D02*
X008150Y031700D01*
X007320D01*
X007377Y031913D01*
X008207Y031910D01*
D02*
G37*
G36*
X010061Y032765D02*
X010063D01*
X010067Y032765D01*
X010072Y032764D01*
X010076Y032763D01*
X010081Y032762D01*
X010085Y032761D01*
X010085D01*
X010085Y032761D01*
X010087Y032761D01*
X010089Y032759D01*
X010091Y032758D01*
X010094Y032756D01*
X010097Y032754D01*
X010099Y032751D01*
X010102Y032747D01*
Y032747D01*
X010102Y032747D01*
X010102Y032746D01*
X010103Y032746D01*
X010104Y032743D01*
X010105Y032741D01*
X010106Y032737D01*
X010107Y032733D01*
X010108Y032728D01*
X010108Y032723D01*
Y032723D01*
Y032722D01*
Y032721D01*
X010108Y032720D01*
X010108Y032718D01*
X010107Y032716D01*
X010107Y032714D01*
X010106Y032711D01*
X010105Y032706D01*
X010104Y032703D01*
X010103Y032700D01*
X010101Y032697D01*
X010100Y032695D01*
X010098Y032692D01*
X010096Y032689D01*
X010095Y032689D01*
X010095Y032689D01*
X010094Y032688D01*
X010093Y032687D01*
X010092Y032686D01*
X010090Y032685D01*
X010089Y032684D01*
X010087Y032682D01*
X010084Y032681D01*
X010081Y032680D01*
X010078Y032678D01*
X010075Y032677D01*
X010071Y032676D01*
X010067Y032675D01*
X010063Y032673D01*
X010059Y032673D01*
X010059Y032673D01*
X010060Y032672D01*
X010061Y032671D01*
X010062Y032669D01*
X010064Y032667D01*
X010066Y032664D01*
X010068Y032661D01*
X010070Y032658D01*
X010071Y032658D01*
X010071Y032657D01*
X010072Y032656D01*
X010072Y032654D01*
X010074Y032652D01*
X010075Y032650D01*
X010076Y032647D01*
X010078Y032644D01*
X010080Y032641D01*
X010081Y032637D01*
X010083Y032632D01*
X010086Y032628D01*
X010088Y032622D01*
X010090Y032617D01*
X010093Y032611D01*
X010095Y032605D01*
X010060D01*
Y032605D01*
X010060Y032606D01*
X010059Y032606D01*
X010059Y032608D01*
X010059Y032609D01*
X010058Y032611D01*
X010057Y032613D01*
X010056Y032615D01*
X010055Y032618D01*
X010054Y032621D01*
X010052Y032625D01*
X010051Y032628D01*
X010049Y032633D01*
X010047Y032637D01*
X010045Y032642D01*
X010043Y032647D01*
Y032647D01*
X010043Y032648D01*
X010042Y032649D01*
X010042Y032650D01*
X010040Y032652D01*
X010039Y032656D01*
X010036Y032659D01*
X010034Y032662D01*
X010031Y032666D01*
X010030Y032667D01*
X010029Y032668D01*
X010028Y032668D01*
X010028Y032669D01*
X010026Y032669D01*
X010025Y032670D01*
X010023Y032670D01*
X010020Y032671D01*
X010016Y032671D01*
X010012Y032671D01*
X009999D01*
X009985Y032605D01*
X009952D01*
X009985Y032765D01*
X010060D01*
X010061Y032765D01*
D02*
G37*
%LPC*%
G36*
X004993Y032505D02*
X004830Y031897D01*
X004835Y031913D01*
X005425D01*
X005450Y031918D01*
X005460Y031923D01*
X005475Y031932D01*
X005487Y031945D01*
X005497Y031957D01*
X005508Y031978D01*
X005515Y032002D01*
X005617Y032418D01*
X005615Y032430D01*
X005610Y032440D01*
X005602Y032452D01*
X005587Y032468D01*
X005577Y032480D01*
X005550Y032495D01*
X005535Y032500D01*
X005515Y032503D01*
X004992Y032500D01*
X004993Y032505D01*
D02*
G37*
G36*
X010052Y032738D02*
X010013D01*
X010004Y032695D01*
X010028D01*
X010030Y032696D01*
X010033D01*
X010036Y032696D01*
X010041Y032696D01*
X010047Y032697D01*
X010050Y032697D01*
X010052Y032697D01*
X010055Y032698D01*
X010056Y032698D01*
X010057Y032699D01*
X010058Y032699D01*
X010059Y032700D01*
X010061Y032701D01*
X010064Y032702D01*
X010066Y032704D01*
X010068Y032706D01*
X010070Y032708D01*
X010070Y032709D01*
X010071Y032710D01*
X010072Y032711D01*
X010073Y032713D01*
X010074Y032715D01*
X010074Y032717D01*
X010075Y032720D01*
X010075Y032723D01*
Y032723D01*
Y032724D01*
X010075Y032726D01*
X010074Y032728D01*
X010073Y032729D01*
X010072Y032732D01*
X010070Y032734D01*
X010068Y032736D01*
X010068Y032736D01*
X010067Y032736D01*
X010066Y032736D01*
X010064Y032737D01*
X010061Y032738D01*
X010058Y032738D01*
X010056Y032738D01*
X010054D01*
X010052Y032738D01*
D02*
G37*
%LPD*%
D10*
X002835Y006774D02*
G03*
X002835Y001424I-000007J-002675D01*
G01*
X007785D02*
G03*
X007785Y006774I000017J002675D01*
G01*
X002835Y001424D02*
X007785D01*
X002835Y006774D02*
X007785D01*
X004489Y031513D02*
Y031246D01*
X004623Y031113D01*
X004756Y031246D01*
Y031513D01*
X005089Y031113D02*
Y031513D01*
X004889Y031313D01*
X005156D01*
X005289Y031446D02*
X005356Y031513D01*
X005489D01*
X005556Y031446D01*
Y031179D01*
X005489Y031113D01*
X005356D01*
X005289Y031179D01*
Y031446D01*
X006089Y031513D02*
X006355D01*
X006222D01*
Y031113D01*
X006689D02*
X006555D01*
X006489Y031179D01*
Y031313D01*
X006555Y031379D01*
X006689D01*
X006755Y031313D01*
Y031246D01*
X006489D01*
X006889Y031113D02*
X007088D01*
X007155Y031179D01*
X007088Y031246D01*
X006955D01*
X006889Y031313D01*
X006955Y031379D01*
X007155D01*
X007355Y031446D02*
Y031379D01*
X007288D01*
X007422D01*
X007355D01*
Y031179D01*
X007422Y031113D01*
X008021Y031513D02*
Y031113D01*
Y031313D01*
X008288D01*
Y031513D01*
Y031113D01*
X008621D02*
X008488D01*
X008421Y031179D01*
Y031313D01*
X008488Y031379D01*
X008621D01*
X008688Y031313D01*
Y031246D01*
X008421D01*
X008888Y031379D02*
X009021D01*
X009088Y031313D01*
Y031113D01*
X008888D01*
X008821Y031179D01*
X008888Y031246D01*
X009088D01*
X009488Y031513D02*
Y031113D01*
X009288D01*
X009221Y031179D01*
Y031313D01*
X009288Y031379D01*
X009488D01*
X005422Y030345D02*
X005556D01*
X005489D01*
Y030745D01*
X005422Y030678D01*
X005756D02*
X005822Y030745D01*
X005955D01*
X006022Y030678D01*
Y030412D01*
X005955Y030345D01*
X005822D01*
X005756Y030412D01*
Y030678D01*
X006422Y030345D02*
X006155D01*
X006422Y030612D01*
Y030678D01*
X006355Y030745D01*
X006222D01*
X006155Y030678D01*
X006555Y030745D02*
X006822D01*
Y030678D01*
X006555Y030412D01*
Y030345D01*
X006955D02*
X007088D01*
X007022D01*
Y030745D01*
X006955Y030678D01*
X007288Y030345D02*
X007422D01*
X007355D01*
Y030745D01*
X007288Y030678D01*
X008288D02*
X008221Y030745D01*
X008088D01*
X008021Y030678D01*
Y030412D01*
X008088Y030345D01*
X008221D01*
X008288Y030412D01*
X008421Y030345D02*
X008555D01*
X008488D01*
Y030745D01*
X008421Y030678D01*
X001410Y019750D02*
Y019200D01*
X001685D01*
X001776Y019292D01*
Y019658D01*
X001685Y019750D01*
X001410D01*
X002234D02*
X002051D01*
X001959Y019658D01*
Y019292D01*
X002051Y019200D01*
X002234D01*
X002326Y019292D01*
Y019658D01*
X002234Y019750D01*
X002784D02*
X002601D01*
X002509Y019658D01*
Y019292D01*
X002601Y019200D01*
X002784D01*
X002876Y019292D01*
Y019658D01*
X002784Y019750D01*
X003059Y019200D02*
Y019750D01*
X003334D01*
X003426Y019658D01*
Y019475D01*
X003334Y019383D01*
X003059D01*
X003242D02*
X003426Y019200D01*
X001410Y011890D02*
Y011340D01*
X001685D01*
X001776Y011432D01*
Y011523D01*
X001685Y011615D01*
X001410D01*
X001685D01*
X001776Y011707D01*
Y011798D01*
X001685Y011890D01*
X001410D01*
X001959Y011340D02*
Y011707D01*
X002143Y011890D01*
X002326Y011707D01*
Y011340D01*
Y011615D01*
X001959D01*
X002509Y011890D02*
X002876D01*
X002693D01*
Y011340D01*
X003059Y011890D02*
X003426D01*
X003242D01*
Y011340D01*
X000310Y017685D02*
Y018051D01*
X000493Y018234D01*
X000676Y018051D01*
Y017685D01*
Y017959D01*
X000310D01*
X001226Y018143D02*
X001135Y018234D01*
X000951D01*
X000860Y018143D01*
Y017776D01*
X000951Y017685D01*
X001135D01*
X001226Y017776D01*
X001959Y017685D02*
Y018234D01*
X002234D01*
X002326Y018143D01*
Y017959D01*
X002234Y017868D01*
X001959D01*
X002509Y018234D02*
Y017685D01*
X002693Y017868D01*
X002876Y017685D01*
Y018234D01*
X003059Y017685D02*
Y018234D01*
X003334D01*
X003426Y018143D01*
Y017959D01*
X003334Y017868D01*
X003059D01*
X003242D02*
X003426Y017685D01*
X001410Y016630D02*
X001776D01*
X001593D01*
Y016080D01*
X002326Y016630D02*
X001959D01*
Y016080D01*
X002326D01*
X001959Y016355D02*
X002143D01*
X002876Y016538D02*
X002784Y016630D01*
X002601D01*
X002509Y016538D01*
Y016447D01*
X002601Y016355D01*
X002784D01*
X002876Y016263D01*
Y016172D01*
X002784Y016080D01*
X002601D01*
X002509Y016172D01*
X003059Y016630D02*
X003426D01*
X003242D01*
Y016080D01*
X000860Y012975D02*
Y013525D01*
X001135D01*
X001226Y013433D01*
Y013250D01*
X001135Y013158D01*
X000860D01*
X001043D02*
X001226Y012975D01*
X001776Y013525D02*
X001410D01*
Y012975D01*
X001776D01*
X001410Y013250D02*
X001593D01*
X001959Y013525D02*
Y012975D01*
X002326D01*
X002509D02*
Y013342D01*
X002693Y013525D01*
X002876Y013342D01*
Y012975D01*
Y013250D01*
X002509D01*
X003059Y013525D02*
Y013433D01*
X003242Y013250D01*
X003426Y013433D01*
Y013525D01*
X003242Y013250D02*
Y012975D01*
X001959Y014615D02*
Y015165D01*
X002234D01*
X002326Y015073D01*
Y014890D01*
X002234Y014798D01*
X001959D01*
X002876Y015073D02*
X002784Y015165D01*
X002601D01*
X002509Y015073D01*
Y014707D01*
X002601Y014615D01*
X002784D01*
X002876Y014707D01*
Y014890D01*
X002693D01*
X003059Y014615D02*
Y015165D01*
X003242Y014982D01*
X003426Y015165D01*
Y014615D01*
X003275Y000683D02*
X002632D01*
X007903Y000362D02*
Y001004D01*
X008225Y000683D02*
X007582D01*
X002234Y021330D02*
X002051D01*
X001959Y021238D01*
Y020872D01*
X002051Y020780D01*
X002234D01*
X002326Y020872D01*
Y021238D01*
X002234Y021330D01*
X002509D02*
Y020780D01*
Y020963D01*
X002876Y021330D01*
X002601Y021055D01*
X002876Y020780D01*
X003426Y021238D02*
X003334Y021330D01*
X003151D01*
X003059Y021238D01*
Y020872D01*
X003151Y020780D01*
X003334D01*
X003426Y020872D01*
D11*
X010157Y032682D02*
G03*
X010157Y032682I-000120J000000D01*
G01*
D12*
X000450Y027550D02*
G03*
X000450Y027550I-000100J000000D01*
G01*
D13*
X004387Y019319D02*
X004623D01*
X004387Y019811D02*
X004623D01*
X004594Y019951D02*
Y020451D01*
X004344D02*
X004594Y020201D01*
X004344Y019951D02*
X004594Y020201D01*
X004344Y019951D02*
Y020451D01*
X004351Y012072D02*
Y012572D01*
Y012072D02*
X004601Y012322D01*
X004351Y012572D02*
X004601Y012322D01*
Y012072D02*
Y012572D01*
X004394Y011932D02*
X004630D01*
X004394Y011440D02*
X004630D01*
X004700Y027100D02*
Y029100D01*
Y027100D02*
X005700D01*
Y029100D01*
X004700D02*
X005700D01*
X001783Y027100D02*
X003700D01*
X000700D02*
X003700D01*
X000700Y029100D02*
X003700D01*
X000700Y027100D02*
Y029100D01*
X003700Y027100D02*
Y029100D01*
X004387Y017754D02*
X004623D01*
X004387Y018246D02*
X004623D01*
X004594Y018386D02*
Y018886D01*
X004344D02*
X004594Y018636D01*
X004344Y018386D02*
X004594Y018636D01*
X004344Y018386D02*
Y018886D01*
X004387Y016164D02*
X004623D01*
X004387Y016656D02*
X004623D01*
X004594Y016796D02*
Y017296D01*
X004344D02*
X004594Y017046D01*
X004344Y016796D02*
X004594Y017046D01*
X004344Y016796D02*
Y017296D01*
X004387Y013015D02*
X004623D01*
X004387Y013507D02*
X004623D01*
X004594Y013646D02*
Y014146D01*
X004344D02*
X004594Y013896D01*
X004344Y013646D02*
X004594Y013896D01*
X004344Y013646D02*
Y014146D01*
X004382Y014654D02*
X004618D01*
X004382Y015146D02*
X004618D01*
X004589Y015286D02*
Y015786D01*
X004339D02*
X004589Y015536D01*
X004339Y015286D02*
X004589Y015536D01*
X004339Y015286D02*
Y015786D01*
X004382Y020854D02*
X004618D01*
X004382Y021346D02*
X004618D01*
X004589Y021486D02*
Y021986D01*
X004339D02*
X004589Y021736D01*
X004339Y021486D02*
X004589Y021736D01*
X004339Y021486D02*
Y021986D01*
X018542Y081430D02*
Y082530D01*
X011442Y081430D02*
X018542D01*
X011442D02*
Y082530D01*
X018542D01*
X011442Y056530D02*
X018542D01*
X011442Y055430D02*
Y056530D01*
Y055430D02*
X018542D01*
Y056530D01*
X027750Y026579D02*
X027787Y026597D01*
X027844Y026654D01*
Y026260D01*
D14*
X001700Y029600D02*
Y029973D01*
X001200Y029100D02*
Y029600D01*
X002200D01*
Y029100D02*
Y029600D01*
X011824Y083600D02*
X011872Y083624D01*
X011944Y083695D01*
Y083192D01*
X018154Y083695D02*
X017914Y083192D01*
X017818Y083695D02*
X018154D01*
Y057695D02*
X017914Y057192D01*
X017818Y057695D02*
X018154D01*
X015061D02*
X014821Y057360D01*
X015181D01*
X015061Y057695D02*
Y057192D01*
X011824Y057600D02*
X011872Y057624D01*
X011944Y057695D01*
Y057192D01*
X012847Y083576D02*
Y083600D01*
X012871Y083648D01*
X012895Y083672D01*
X012943Y083695D01*
X013039D01*
X013087Y083672D01*
X013111Y083648D01*
X013135Y083600D01*
Y083552D01*
X013111Y083504D01*
X013063Y083432D01*
X012823Y083192D01*
X013159D01*
X013870Y083695D02*
X014134D01*
X013990Y083504D01*
X014062D01*
X014110Y083480D01*
X014134Y083456D01*
X014158Y083384D01*
Y083336D01*
X014134Y083264D01*
X014086Y083216D01*
X014014Y083192D01*
X013942D01*
X013870Y083216D01*
X013846Y083240D01*
X013822Y083288D01*
X015061Y083695D02*
X014821Y083360D01*
X015181D01*
X015061Y083695D02*
Y083192D01*
X017107Y057624D02*
X017083Y057671D01*
X017011Y057695D01*
X016963D01*
X016891Y057671D01*
X016843Y057600D01*
X016819Y057480D01*
Y057360D01*
X016843Y057264D01*
X016891Y057216D01*
X016963Y057192D01*
X016987D01*
X017059Y057216D01*
X017107Y057264D01*
X017131Y057336D01*
Y057360D01*
X017107Y057432D01*
X017059Y057480D01*
X016987Y057504D01*
X016963D01*
X016891Y057480D01*
X016843Y057432D01*
X016819Y057360D01*
X012847Y057576D02*
Y057600D01*
X012871Y057648D01*
X012895Y057671D01*
X012943Y057695D01*
X013039D01*
X013087Y057671D01*
X013111Y057648D01*
X013135Y057600D01*
Y057552D01*
X013111Y057504D01*
X013063Y057432D01*
X012823Y057192D01*
X013159D01*
X016108Y057695D02*
X015868D01*
X015844Y057480D01*
X015868Y057504D01*
X015940Y057528D01*
X016012D01*
X016084Y057504D01*
X016132Y057456D01*
X016156Y057384D01*
Y057336D01*
X016132Y057264D01*
X016084Y057216D01*
X016012Y057192D01*
X015940D01*
X015868Y057216D01*
X015844Y057240D01*
X015820Y057288D01*
X016108Y083695D02*
X015868D01*
X015844Y083480D01*
X015868Y083504D01*
X015940Y083528D01*
X016012D01*
X016084Y083504D01*
X016132Y083456D01*
X016156Y083384D01*
Y083336D01*
X016132Y083264D01*
X016084Y083216D01*
X016012Y083192D01*
X015940D01*
X015868Y083216D01*
X015844Y083240D01*
X015820Y083288D01*
X017107Y083624D02*
X017083Y083672D01*
X017011Y083695D01*
X016963D01*
X016891Y083672D01*
X016843Y083600D01*
X016819Y083480D01*
Y083360D01*
X016843Y083264D01*
X016891Y083216D01*
X016963Y083192D01*
X016987D01*
X017059Y083216D01*
X017107Y083264D01*
X017131Y083336D01*
Y083360D01*
X017107Y083432D01*
X017059Y083480D01*
X016987Y083504D01*
X016963D01*
X016891Y083480D01*
X016843Y083432D01*
X016819Y083360D01*
X013870Y057695D02*
X014134D01*
X013990Y057504D01*
X014062D01*
X014110Y057480D01*
X014134Y057456D01*
X014158Y057384D01*
Y057336D01*
X014134Y057264D01*
X014086Y057216D01*
X014014Y057192D01*
X013942D01*
X013870Y057216D01*
X013846Y057240D01*
X013822Y057288D01*
X005182Y026942D02*
X005048D01*
X005115D01*
Y026609D01*
X005048Y026542D01*
X004982D01*
X004915Y026609D01*
X005515Y026542D02*
Y026942D01*
X005315Y026742D01*
X005581D01*
X021626Y012741D02*
X021588Y012722D01*
X021550Y012684D01*
X021531Y012646D01*
X021512Y012589D01*
Y012494D01*
X021531Y012437D01*
X021550Y012399D01*
X021588Y012361D01*
X021626Y012342D01*
X021702D01*
X021740Y012361D01*
X021779Y012399D01*
X021798Y012437D01*
X021817Y012494D01*
Y012589D01*
X021798Y012646D01*
X021779Y012684D01*
X021740Y012722D01*
X021702Y012741D01*
X021626D01*
X021910D02*
Y012342D01*
X022177Y012741D02*
X021910Y012475D01*
X022005Y012570D02*
X022177Y012342D01*
X022552Y012646D02*
X022533Y012684D01*
X022495Y012722D01*
X022456Y012741D01*
X022380D01*
X022342Y012722D01*
X022304Y012684D01*
X022285Y012646D01*
X022266Y012589D01*
Y012494D01*
X022285Y012437D01*
X022304Y012399D01*
X022342Y012361D01*
X022380Y012342D01*
X022456D01*
X022495Y012361D01*
X022533Y012399D01*
X022552Y012437D01*
X025612Y012695D02*
Y012295D01*
Y012695D02*
X025745D01*
X025802Y012676D01*
X025840Y012638D01*
X025859Y012600D01*
X025879Y012542D01*
Y012447D01*
X025859Y012390D01*
X025840Y012352D01*
X025802Y012314D01*
X025745Y012295D01*
X025612D01*
X026082Y012695D02*
X026044Y012676D01*
X026006Y012638D01*
X025987Y012600D01*
X025968Y012542D01*
Y012447D01*
X025987Y012390D01*
X026006Y012352D01*
X026044Y012314D01*
X026082Y012295D01*
X026158D01*
X026197Y012314D01*
X026235Y012352D01*
X026254Y012390D01*
X026273Y012447D01*
Y012542D01*
X026254Y012600D01*
X026235Y012638D01*
X026197Y012676D01*
X026158Y012695D01*
X026082D01*
X026480D02*
X026442Y012676D01*
X026404Y012638D01*
X026385Y012600D01*
X026366Y012542D01*
Y012447D01*
X026385Y012390D01*
X026404Y012352D01*
X026442Y012314D01*
X026480Y012295D01*
X026556D01*
X026595Y012314D01*
X026633Y012352D01*
X026652Y012390D01*
X026671Y012447D01*
Y012542D01*
X026652Y012600D01*
X026633Y012638D01*
X026595Y012676D01*
X026556Y012695D01*
X026480D01*
X026764D02*
Y012295D01*
Y012695D02*
X026935D01*
X026993Y012676D01*
X027012Y012657D01*
X027031Y012619D01*
Y012580D01*
X027012Y012542D01*
X026993Y012523D01*
X026935Y012504D01*
X026764D01*
X026897D02*
X027031Y012295D01*
X028095Y016545D02*
Y016145D01*
X027962Y016545D02*
X028228D01*
X028524D02*
X028276D01*
Y016145D01*
X028524D01*
X028276Y016354D02*
X028428D01*
X028857Y016488D02*
X028819Y016526D01*
X028762Y016545D01*
X028686D01*
X028628Y016526D01*
X028590Y016488D01*
Y016450D01*
X028609Y016411D01*
X028628Y016392D01*
X028667Y016373D01*
X028781Y016335D01*
X028819Y016316D01*
X028838Y016297D01*
X028857Y016259D01*
Y016202D01*
X028819Y016164D01*
X028762Y016145D01*
X028686D01*
X028628Y016164D01*
X028590Y016202D01*
X029080Y016545D02*
Y016145D01*
X028946Y016545D02*
X029213D01*
X029575D02*
Y016145D01*
Y016545D02*
X029727Y016145D01*
X029880Y016545D02*
X029727Y016145D01*
X029880Y016545D02*
Y016145D01*
X030108Y016545D02*
X030070Y016526D01*
X030032Y016488D01*
X030013Y016450D01*
X029994Y016392D01*
Y016297D01*
X030013Y016240D01*
X030032Y016202D01*
X030070Y016164D01*
X030108Y016145D01*
X030184D01*
X030222Y016164D01*
X030260Y016202D01*
X030279Y016240D01*
X030299Y016297D01*
Y016392D01*
X030279Y016450D01*
X030260Y016488D01*
X030222Y016526D01*
X030184Y016545D01*
X030108D01*
X030392D02*
Y016145D01*
Y016545D02*
X030525D01*
X030582Y016526D01*
X030620Y016488D01*
X030639Y016450D01*
X030658Y016392D01*
Y016297D01*
X030639Y016240D01*
X030620Y016202D01*
X030582Y016164D01*
X030525Y016145D01*
X030392D01*
X030996Y016545D02*
X030748D01*
Y016145D01*
X030996D01*
X030748Y016354D02*
X030900D01*
X000533Y006850D02*
X000417D01*
X000475D01*
Y006558D01*
X000417Y006500D01*
X000358D01*
X000300Y006558D01*
X000650Y006792D02*
X000708Y006850D01*
X000825D01*
X000883Y006792D01*
Y006733D01*
X000825Y006675D01*
X000767D01*
X000825D01*
X000883Y006617D01*
Y006558D01*
X000825Y006500D01*
X000708D01*
X000650Y006558D01*
X002580Y007744D02*
Y007244D01*
X002830D01*
X002913Y007328D01*
Y007411D01*
X002830Y007494D01*
X002580D01*
X002830D01*
X002913Y007578D01*
Y007661D01*
X002830Y007744D01*
X002580D01*
X003163Y007578D02*
X003329D01*
X003413Y007494D01*
Y007244D01*
X003163D01*
X003079Y007328D01*
X003163Y007411D01*
X003413D01*
X003663Y007661D02*
Y007578D01*
X003579D01*
X003746D01*
X003663D01*
Y007328D01*
X003746Y007244D01*
X004079Y007661D02*
Y007578D01*
X003996D01*
X004162D01*
X004079D01*
Y007328D01*
X004162Y007244D01*
X004662D02*
X004496D01*
X004412Y007328D01*
Y007494D01*
X004496Y007578D01*
X004662D01*
X004746Y007494D01*
Y007411D01*
X004412D01*
X004912Y007578D02*
Y007244D01*
Y007411D01*
X004996Y007494D01*
X005079Y007578D01*
X005162D01*
X005412D02*
Y007328D01*
X005495Y007244D01*
X005745D01*
Y007161D01*
X005662Y007078D01*
X005579D01*
X005745Y007244D02*
Y007578D01*
X006745Y007661D02*
X006662Y007744D01*
X006495D01*
X006412Y007661D01*
Y007328D01*
X006495Y007244D01*
X006662D01*
X006745Y007328D01*
X006912Y007244D02*
X007078D01*
X006995D01*
Y007744D01*
X006912D01*
X007328Y007244D02*
X007495D01*
X007411D01*
Y007578D01*
X007328D01*
X007745Y007078D02*
Y007578D01*
X007995D01*
X008078Y007494D01*
Y007328D01*
X007995Y007244D01*
X007745D01*
X006321Y026664D02*
X006088D01*
X005971Y026781D01*
X006088Y026897D01*
X006321D01*
X006146D01*
Y026664D01*
X006030Y027247D02*
X005971Y027189D01*
Y027072D01*
X006030Y027014D01*
X006263D01*
X006321Y027072D01*
Y027189D01*
X006263Y027247D01*
X006321Y027714D02*
X005971D01*
Y027889D01*
X006030Y027947D01*
X006146D01*
X006205Y027889D01*
Y027714D01*
X005971Y028239D02*
Y028122D01*
X006030Y028064D01*
X006263D01*
X006321Y028122D01*
Y028239D01*
X006263Y028297D01*
X006030D01*
X005971Y028239D01*
Y028414D02*
X006321D01*
X006205Y028530D01*
X006321Y028647D01*
X005971D01*
Y028997D02*
Y028763D01*
X006321D01*
Y028997D01*
X006146Y028763D02*
Y028880D01*
X006321Y029113D02*
X005971D01*
Y029288D01*
X006030Y029347D01*
X006146D01*
X006205Y029288D01*
Y029113D01*
Y029230D02*
X006321Y029347D01*
X028536Y015305D02*
X028517Y015343D01*
X028479Y015381D01*
X028440Y015400D01*
X028364D01*
X028326Y015381D01*
X028288Y015343D01*
X028269Y015305D01*
X028250Y015248D01*
Y015152D01*
X028269Y015095D01*
X028288Y015057D01*
X028326Y015019D01*
X028364Y015000D01*
X028440D01*
X028479Y015019D01*
X028517Y015057D01*
X028536Y015095D01*
Y015152D01*
X028440D02*
X028536D01*
X028627Y015400D02*
Y015000D01*
Y015400D02*
X028894Y015000D01*
Y015400D02*
Y015000D01*
X029004Y015400D02*
Y015000D01*
Y015400D02*
X029137D01*
X029195Y015381D01*
X029233Y015343D01*
X029252Y015305D01*
X029271Y015248D01*
Y015152D01*
X029252Y015095D01*
X029233Y015057D01*
X029195Y015019D01*
X029137Y015000D01*
X029004D01*
X004825Y078026D02*
X004625D01*
X004725D01*
Y077527D01*
X004625Y077427D01*
X004525D01*
X004425Y077527D01*
X005025Y077427D02*
Y078026D01*
X005324D01*
X005424Y077927D01*
Y077727D01*
X005324Y077627D01*
X005025D01*
X005624Y077427D02*
X005824D01*
X005724D01*
Y078026D01*
X005624Y077927D01*
X004825Y052026D02*
X004625D01*
X004725D01*
Y051527D01*
X004625Y051427D01*
X004525D01*
X004425Y051527D01*
X005025Y051427D02*
Y052026D01*
X005324D01*
X005424Y051926D01*
Y051727D01*
X005324Y051627D01*
X005025D01*
X005624Y051427D02*
X005824D01*
X005724D01*
Y052026D01*
X005624Y051926D01*
D15*
X004469Y067337D02*
X025531D01*
X004469D02*
Y077179D01*
X025531D01*
Y067337D02*
Y077179D01*
Y041337D02*
Y051179D01*
X004469D02*
X025531D01*
X004469Y041337D02*
Y051179D01*
Y041337D02*
X025531D01*
D16*
X020436Y060689D02*
X021536D01*
X020436D02*
Y061160D01*
X020488Y061317D01*
X020541Y061369D01*
X020645Y061422D01*
X020750D01*
X020855Y061369D01*
X020907Y061317D01*
X020960Y061160D01*
Y060689D02*
Y061160D01*
X021012Y061317D01*
X021064Y061369D01*
X021169Y061422D01*
X021326D01*
X021431Y061369D01*
X021483Y061317D01*
X021536Y061160D01*
Y060689D01*
X020436Y061668D02*
X021536D01*
Y062296D01*
Y063255D02*
X020436Y062836D01*
X021536Y062417D01*
X021169Y062574D02*
Y063098D01*
X020698Y064297D02*
X020593Y064245D01*
X020488Y064140D01*
X020436Y064035D01*
Y063826D01*
X020488Y063721D01*
X020593Y063616D01*
X020698Y063564D01*
X020855Y063511D01*
X021117D01*
X021274Y063564D01*
X021379Y063616D01*
X021483Y063721D01*
X021536Y063826D01*
Y064035D01*
X021483Y064140D01*
X021379Y064245D01*
X021274Y064297D01*
X020436Y064606D02*
X021536D01*
X020436Y065339D02*
X021169Y064606D01*
X020907Y064868D02*
X021536Y065339D01*
X008401Y060689D02*
X008925Y061108D01*
X009501D01*
X008401Y061527D02*
X008925Y061108D01*
X008401Y062349D02*
Y061668D01*
X009501D01*
Y062349D01*
X008925Y061668D02*
Y062087D01*
X008401Y062532D02*
X009501D01*
Y063161D01*
X008401Y063281D02*
X009501D01*
Y063909D01*
X008401Y064344D02*
X008453Y064239D01*
X008558Y064135D01*
X008663Y064082D01*
X008820Y064030D01*
X009082D01*
X009239Y064082D01*
X009344Y064135D01*
X009448Y064239D01*
X009501Y064344D01*
Y064554D01*
X009448Y064658D01*
X009344Y064763D01*
X009239Y064815D01*
X009082Y064868D01*
X008820D01*
X008663Y064815D01*
X008558Y064763D01*
X008453Y064658D01*
X008401Y064554D01*
Y064344D01*
Y065124D02*
X009501Y065386D01*
X008401Y065648D02*
X009501Y065386D01*
X008401Y065648D02*
X009501Y065910D01*
X008401Y066172D02*
X009501Y065910D01*
X027000Y037951D02*
X028200Y038408D01*
X027000Y038865D02*
X028200Y038408D01*
X027000Y039591D02*
X027800Y039019D01*
Y039876D01*
X027000Y039591D02*
X028200D01*
X027000Y040430D02*
X027057Y040259D01*
X027229Y040145D01*
X027514Y040088D01*
X027686D01*
X027971Y040145D01*
X028143Y040259D01*
X028200Y040430D01*
Y040545D01*
X028143Y040716D01*
X027971Y040830D01*
X027686Y040887D01*
X027514D01*
X027229Y040830D01*
X027057Y040716D01*
X027000Y040545D01*
Y040430D01*
Y042499D02*
X028200D01*
X027000Y042099D02*
Y042898D01*
Y043784D02*
Y043041D01*
X028200D01*
Y043784D01*
X027572Y043041D02*
Y043498D01*
X027172Y044784D02*
X027057Y044669D01*
X027000Y044498D01*
Y044270D01*
X027057Y044098D01*
X027172Y043984D01*
X027286D01*
X027400Y044041D01*
X027457Y044098D01*
X027514Y044212D01*
X027629Y044555D01*
X027686Y044669D01*
X027743Y044727D01*
X027857Y044784D01*
X028029D01*
X028143Y044669D01*
X028200Y044498D01*
Y044270D01*
X028143Y044098D01*
X028029Y043984D01*
X027000Y045452D02*
X028200D01*
X027000Y045052D02*
Y045852D01*
X028200Y047852D02*
X027000Y047395D01*
X028200Y046938D01*
X027800Y047109D02*
Y047680D01*
X027000Y048132D02*
X028200D01*
X027000D02*
Y048532D01*
X027057Y048703D01*
X027172Y048817D01*
X027286Y048874D01*
X027457Y048931D01*
X027743D01*
X027914Y048874D01*
X028029Y048817D01*
X028143Y048703D01*
X028200Y048532D01*
Y048132D01*
Y050114D02*
X027000Y049657D01*
X028200Y049200D01*
X027800Y049371D02*
Y049943D01*
X027629Y050394D02*
Y050908D01*
X027572Y051080D01*
X027514Y051137D01*
X027400Y051194D01*
X027229D01*
X027115Y051137D01*
X027057Y051080D01*
X027000Y050908D01*
Y050394D01*
X028200D01*
X027000Y051862D02*
X028200D01*
X027000Y051462D02*
Y052262D01*
Y053148D02*
Y052405D01*
X028200D01*
Y053148D01*
X027572Y052405D02*
Y052862D01*
X027000Y053348D02*
X028200D01*
X027000D02*
Y053862D01*
X027057Y054033D01*
X027115Y054090D01*
X027229Y054147D01*
X027343D01*
X027457Y054090D01*
X027514Y054033D01*
X027572Y053862D01*
Y053348D01*
Y053748D02*
X028200Y054147D01*
X015032Y034689D02*
Y035160D01*
X014980Y035317D01*
X014927Y035369D01*
X014823Y035422D01*
X014665D01*
X014561Y035369D01*
X014508Y035317D01*
X014456Y035160D01*
Y034689D01*
X015556D01*
X014456Y035668D02*
X015242D01*
X015399Y035720D01*
X015503Y035825D01*
X015556Y035982D01*
Y036087D01*
X015503Y036244D01*
X015399Y036349D01*
X015242Y036401D01*
X014456D01*
Y036705D02*
X015556D01*
X014456D02*
Y037176D01*
X014508Y037333D01*
X014561Y037386D01*
X014665Y037438D01*
X014770D01*
X014875Y037386D01*
X014927Y037333D01*
X014980Y037176D01*
Y036705D01*
Y037071D02*
X015556Y037438D01*
X015032Y037684D02*
Y038156D01*
X014980Y038313D01*
X014927Y038365D01*
X014823Y038417D01*
X014665D01*
X014561Y038365D01*
X014508Y038313D01*
X014456Y038156D01*
Y037684D01*
X015556D01*
X014456Y038664D02*
X015556D01*
Y039292D01*
X014456Y040093D02*
Y039412D01*
X015556D01*
Y040093D01*
X014980Y039412D02*
Y039831D01*
X011410Y034689D02*
X012510D01*
X011410D02*
Y035160D01*
X011462Y035317D01*
X011515Y035369D01*
X011619Y035422D01*
X011724D01*
X011829Y035369D01*
X011881Y035317D01*
X011934Y035160D01*
Y034689D02*
Y035160D01*
X011986Y035317D01*
X012038Y035369D01*
X012143Y035422D01*
X012300D01*
X012405Y035369D01*
X012457Y035317D01*
X012510Y035160D01*
Y034689D01*
X011410Y035668D02*
X012510D01*
X011410D02*
Y036139D01*
X011462Y036296D01*
X011515Y036349D01*
X011619Y036401D01*
X011724D01*
X011829Y036349D01*
X011881Y036296D01*
X011934Y036139D01*
Y035668D01*
Y036035D02*
X012510Y036401D01*
X011410Y036962D02*
X011462Y036857D01*
X011567Y036752D01*
X011672Y036700D01*
X011829Y036647D01*
X012091D01*
X012248Y036700D01*
X012353Y036752D01*
X012457Y036857D01*
X012510Y036962D01*
Y037171D01*
X012457Y037276D01*
X012353Y037380D01*
X012248Y037433D01*
X012091Y037485D01*
X011829D01*
X011672Y037433D01*
X011567Y037380D01*
X011462Y037276D01*
X011410Y037171D01*
Y036962D01*
Y037742D02*
X012510Y038004D01*
X011410Y038266D02*
X012510Y038004D01*
X011410Y038266D02*
X012510Y038527D01*
X011410Y038789D02*
X012510Y038527D01*
X011410Y039009D02*
X012510D01*
X011410D02*
X012510Y039742D01*
X011410D02*
X012510D01*
X023222Y034689D02*
X024322D01*
X023222D02*
Y035160D01*
X023274Y035317D01*
X023327Y035369D01*
X023431Y035422D01*
X023536D01*
X023641Y035369D01*
X023693Y035317D01*
X023746Y035160D01*
Y034689D02*
Y035160D01*
X023798Y035317D01*
X023850Y035369D01*
X023955Y035422D01*
X024112D01*
X024217Y035369D01*
X024269Y035317D01*
X024322Y035160D01*
Y034689D01*
X023222Y035668D02*
X024322D01*
Y036296D01*
Y037255D02*
X023222Y036836D01*
X024322Y036417D01*
X023955Y036574D02*
Y037098D01*
X023484Y038297D02*
X023379Y038245D01*
X023274Y038140D01*
X023222Y038035D01*
Y037826D01*
X023274Y037721D01*
X023379Y037616D01*
X023484Y037564D01*
X023641Y037511D01*
X023903D01*
X024060Y037564D01*
X024165Y037616D01*
X024269Y037721D01*
X024322Y037826D01*
Y038035D01*
X024269Y038140D01*
X024165Y038245D01*
X024060Y038297D01*
X023222Y038606D02*
X024322D01*
X023222Y039339D02*
X023955Y038606D01*
X023693Y038868D02*
X024322Y039339D01*
X027000Y063951D02*
X028200Y064408D01*
X027000Y064865D02*
X028200Y064408D01*
X027000Y065591D02*
X027800Y065019D01*
Y065876D01*
X027000Y065591D02*
X028200D01*
X027000Y066430D02*
X027057Y066259D01*
X027229Y066145D01*
X027514Y066088D01*
X027686D01*
X027971Y066145D01*
X028143Y066259D01*
X028200Y066430D01*
Y066545D01*
X028143Y066716D01*
X027971Y066830D01*
X027686Y066887D01*
X027514D01*
X027229Y066830D01*
X027057Y066716D01*
X027000Y066545D01*
Y066430D01*
Y068499D02*
X028200D01*
X027000Y068099D02*
Y068898D01*
Y069784D02*
Y069041D01*
X028200D01*
Y069784D01*
X027572Y069041D02*
Y069498D01*
X027172Y070784D02*
X027057Y070669D01*
X027000Y070498D01*
Y070270D01*
X027057Y070098D01*
X027172Y069984D01*
X027286D01*
X027400Y070041D01*
X027457Y070098D01*
X027514Y070212D01*
X027629Y070555D01*
X027686Y070669D01*
X027743Y070727D01*
X027857Y070784D01*
X028029D01*
X028143Y070669D01*
X028200Y070498D01*
Y070270D01*
X028143Y070098D01*
X028029Y069984D01*
X027000Y071452D02*
X028200D01*
X027000Y071052D02*
Y071852D01*
X028200Y073852D02*
X027000Y073395D01*
X028200Y072938D01*
X027800Y073109D02*
Y073680D01*
X027000Y074132D02*
X028200D01*
X027000D02*
Y074532D01*
X027057Y074703D01*
X027172Y074817D01*
X027286Y074874D01*
X027457Y074931D01*
X027743D01*
X027914Y074874D01*
X028029Y074817D01*
X028143Y074703D01*
X028200Y074532D01*
Y074132D01*
Y076114D02*
X027000Y075657D01*
X028200Y075200D01*
X027800Y075371D02*
Y075943D01*
X027629Y076394D02*
Y076908D01*
X027572Y077080D01*
X027514Y077137D01*
X027400Y077194D01*
X027229D01*
X027115Y077137D01*
X027057Y077080D01*
X027000Y076908D01*
Y076394D01*
X028200D01*
X027000Y077862D02*
X028200D01*
X027000Y077462D02*
Y078262D01*
Y079148D02*
Y078405D01*
X028200D01*
Y079148D01*
X027572Y078405D02*
Y078862D01*
X027000Y079348D02*
X028200D01*
X027000D02*
Y079862D01*
X027057Y080033D01*
X027115Y080090D01*
X027229Y080147D01*
X027343D01*
X027457Y080090D01*
X027514Y080033D01*
X027572Y079862D01*
Y079348D01*
Y079748D02*
X028200Y080147D01*
X020436Y034689D02*
X021536D01*
X020436D02*
Y035160D01*
X020488Y035317D01*
X020541Y035369D01*
X020645Y035422D01*
X020750D01*
X020855Y035369D01*
X020907Y035317D01*
X020960Y035160D01*
Y034689D02*
Y035160D01*
X021012Y035317D01*
X021064Y035369D01*
X021169Y035422D01*
X021326D01*
X021431Y035369D01*
X021483Y035317D01*
X021536Y035160D01*
Y034689D01*
X020436Y035668D02*
X021536D01*
Y036296D01*
Y037255D02*
X020436Y036836D01*
X021536Y036417D01*
X021169Y036574D02*
Y037098D01*
X020698Y038297D02*
X020593Y038245D01*
X020488Y038140D01*
X020436Y038035D01*
Y037826D01*
X020488Y037721D01*
X020593Y037616D01*
X020698Y037564D01*
X020855Y037511D01*
X021117D01*
X021274Y037564D01*
X021379Y037616D01*
X021483Y037721D01*
X021536Y037826D01*
Y038035D01*
X021483Y038140D01*
X021379Y038245D01*
X021274Y038297D01*
X020436Y038606D02*
X021536D01*
X020436Y039339D02*
X021169Y038606D01*
X020907Y038868D02*
X021536Y039339D01*
X008401Y034689D02*
X008925Y035108D01*
X009501D01*
X008401Y035527D02*
X008925Y035108D01*
X008401Y036349D02*
Y035668D01*
X009501D01*
Y036349D01*
X008925Y035668D02*
Y036087D01*
X008401Y036532D02*
X009501D01*
Y037161D01*
X008401Y037281D02*
X009501D01*
Y037909D01*
X008401Y038344D02*
X008453Y038239D01*
X008558Y038135D01*
X008663Y038082D01*
X008820Y038030D01*
X009082D01*
X009239Y038082D01*
X009344Y038135D01*
X009448Y038239D01*
X009501Y038344D01*
Y038554D01*
X009448Y038658D01*
X009344Y038763D01*
X009239Y038815D01*
X009082Y038868D01*
X008820D01*
X008663Y038815D01*
X008558Y038763D01*
X008453Y038658D01*
X008401Y038554D01*
Y038344D01*
Y039124D02*
X009501Y039386D01*
X008401Y039648D02*
X009501Y039386D01*
X008401Y039648D02*
X009501Y039910D01*
X008401Y040172D02*
X009501Y039910D01*
X011410Y060689D02*
X012510D01*
X011410D02*
Y061160D01*
X011462Y061317D01*
X011515Y061369D01*
X011619Y061422D01*
X011724D01*
X011829Y061369D01*
X011881Y061317D01*
X011934Y061160D01*
Y060689D02*
Y061160D01*
X011986Y061317D01*
X012038Y061369D01*
X012143Y061422D01*
X012300D01*
X012405Y061369D01*
X012457Y061317D01*
X012510Y061160D01*
Y060689D01*
X011410Y061668D02*
X012510D01*
X011410D02*
Y062139D01*
X011462Y062296D01*
X011515Y062349D01*
X011619Y062401D01*
X011724D01*
X011829Y062349D01*
X011881Y062296D01*
X011934Y062139D01*
Y061668D01*
Y062035D02*
X012510Y062401D01*
X011410Y062962D02*
X011462Y062857D01*
X011567Y062752D01*
X011672Y062700D01*
X011829Y062647D01*
X012091D01*
X012248Y062700D01*
X012353Y062752D01*
X012457Y062857D01*
X012510Y062962D01*
Y063171D01*
X012457Y063276D01*
X012353Y063380D01*
X012248Y063433D01*
X012091Y063485D01*
X011829D01*
X011672Y063433D01*
X011567Y063380D01*
X011462Y063276D01*
X011410Y063171D01*
Y062962D01*
Y063742D02*
X012510Y064004D01*
X011410Y064266D02*
X012510Y064004D01*
X011410Y064266D02*
X012510Y064527D01*
X011410Y064789D02*
X012510Y064527D01*
X011410Y065009D02*
X012510D01*
X011410D02*
X012510Y065742D01*
X011410D02*
X012510D01*
X005877Y035474D02*
X005772Y035422D01*
X005667Y035317D01*
X005615Y035212D01*
Y035003D01*
X005667Y034898D01*
X005772Y034793D01*
X005877Y034741D01*
X006034Y034689D01*
X006296D01*
X006453Y034741D01*
X006558Y034793D01*
X006662Y034898D01*
X006715Y035003D01*
Y035212D01*
X006662Y035317D01*
X006558Y035422D01*
X006453Y035474D01*
X006296D01*
Y035212D02*
Y035474D01*
X005615Y035726D02*
X006715D01*
X005615D02*
Y036197D01*
X005667Y036354D01*
X005720Y036406D01*
X005824Y036459D01*
X005929D01*
X006034Y036406D01*
X006086Y036354D01*
X006139Y036197D01*
Y035726D01*
Y036092D02*
X006715Y036459D01*
X005615Y037386D02*
Y036705D01*
X006715D01*
Y037386D01*
X006139Y036705D02*
Y037124D01*
X005615Y038250D02*
Y037569D01*
X006715D01*
Y038250D01*
X006139Y037569D02*
Y037988D01*
X005615Y038433D02*
X006715D01*
X005615D02*
X006715Y039166D01*
X005615D02*
X006715D01*
X015032Y060689D02*
Y061160D01*
X014980Y061317D01*
X014927Y061369D01*
X014823Y061422D01*
X014665D01*
X014561Y061369D01*
X014508Y061317D01*
X014456Y061160D01*
Y060689D01*
X015556D01*
X014456Y061668D02*
X015242D01*
X015399Y061720D01*
X015503Y061825D01*
X015556Y061982D01*
Y062087D01*
X015503Y062244D01*
X015399Y062349D01*
X015242Y062401D01*
X014456D01*
Y062705D02*
X015556D01*
X014456D02*
Y063176D01*
X014508Y063333D01*
X014561Y063386D01*
X014665Y063438D01*
X014770D01*
X014875Y063386D01*
X014927Y063333D01*
X014980Y063176D01*
Y062705D01*
Y063071D02*
X015556Y063438D01*
X015032Y063684D02*
Y064156D01*
X014980Y064313D01*
X014927Y064365D01*
X014823Y064417D01*
X014665D01*
X014561Y064365D01*
X014508Y064313D01*
X014456Y064156D01*
Y063684D01*
X015556D01*
X014456Y064664D02*
X015556D01*
Y065292D01*
X014456Y066093D02*
Y065412D01*
X015556D01*
Y066093D01*
X014980Y065412D02*
Y065831D01*
X023222Y060689D02*
X024322D01*
X023222D02*
Y061160D01*
X023274Y061317D01*
X023327Y061369D01*
X023431Y061422D01*
X023536D01*
X023641Y061369D01*
X023693Y061317D01*
X023746Y061160D01*
Y060689D02*
Y061160D01*
X023798Y061317D01*
X023850Y061369D01*
X023955Y061422D01*
X024112D01*
X024217Y061369D01*
X024269Y061317D01*
X024322Y061160D01*
Y060689D01*
X023222Y061668D02*
X024322D01*
Y062296D01*
Y063255D02*
X023222Y062836D01*
X024322Y062417D01*
X023955Y062574D02*
Y063098D01*
X023484Y064297D02*
X023379Y064245D01*
X023274Y064140D01*
X023222Y064035D01*
Y063826D01*
X023274Y063721D01*
X023379Y063616D01*
X023484Y063564D01*
X023641Y063511D01*
X023903D01*
X024060Y063564D01*
X024165Y063616D01*
X024269Y063721D01*
X024322Y063826D01*
Y064035D01*
X024269Y064140D01*
X024165Y064245D01*
X024060Y064297D01*
X023222Y064606D02*
X024322D01*
X023222Y065339D02*
X023955Y064606D01*
X023693Y064868D02*
X024322Y065339D01*
X018115Y034689D02*
Y035160D01*
X018063Y035317D01*
X018010Y035369D01*
X017906Y035422D01*
X017748D01*
X017644Y035369D01*
X017591Y035317D01*
X017539Y035160D01*
Y034689D01*
X018639D01*
X017539Y035668D02*
X018325D01*
X018482Y035720D01*
X018586Y035825D01*
X018639Y035982D01*
Y036087D01*
X018586Y036244D01*
X018482Y036349D01*
X018325Y036401D01*
X017539D01*
Y036705D02*
X018639D01*
X017539D02*
Y037176D01*
X017591Y037333D01*
X017644Y037386D01*
X017748Y037438D01*
X017853D01*
X017958Y037386D01*
X018010Y037333D01*
X018063Y037176D01*
Y036705D01*
Y037071D02*
X018639Y037438D01*
X018115Y037684D02*
Y038156D01*
X018063Y038313D01*
X018010Y038365D01*
X017906Y038417D01*
X017748D01*
X017644Y038365D01*
X017591Y038313D01*
X017539Y038156D01*
Y037684D01*
X018639D01*
X017539Y038664D02*
X018639D01*
Y039292D01*
X017539Y040093D02*
Y039412D01*
X018639D01*
Y040093D01*
X018063Y039412D02*
Y039831D01*
X018115Y060689D02*
Y061160D01*
X018063Y061317D01*
X018010Y061369D01*
X017906Y061422D01*
X017748D01*
X017644Y061369D01*
X017591Y061317D01*
X017539Y061160D01*
Y060689D01*
X018639D01*
X017539Y061668D02*
X018325D01*
X018482Y061720D01*
X018586Y061825D01*
X018639Y061982D01*
Y062087D01*
X018586Y062244D01*
X018482Y062349D01*
X018325Y062401D01*
X017539D01*
Y062705D02*
X018639D01*
X017539D02*
Y063176D01*
X017591Y063333D01*
X017644Y063386D01*
X017748Y063438D01*
X017853D01*
X017958Y063386D01*
X018010Y063333D01*
X018063Y063176D01*
Y062705D01*
Y063071D02*
X018639Y063438D01*
X018115Y063684D02*
Y064156D01*
X018063Y064313D01*
X018010Y064365D01*
X017906Y064417D01*
X017748D01*
X017644Y064365D01*
X017591Y064313D01*
X017539Y064156D01*
Y063684D01*
X018639D01*
X017539Y064664D02*
X018639D01*
Y065292D01*
X017539Y066093D02*
Y065412D01*
X018639D01*
Y066093D01*
X018063Y065412D02*
Y065831D01*
X005877Y061474D02*
X005772Y061422D01*
X005667Y061317D01*
X005615Y061212D01*
Y061003D01*
X005667Y060898D01*
X005772Y060793D01*
X005877Y060741D01*
X006034Y060689D01*
X006296D01*
X006453Y060741D01*
X006558Y060793D01*
X006662Y060898D01*
X006715Y061003D01*
Y061212D01*
X006662Y061317D01*
X006558Y061422D01*
X006453Y061474D01*
X006296D01*
Y061212D02*
Y061474D01*
X005615Y061726D02*
X006715D01*
X005615D02*
Y062197D01*
X005667Y062354D01*
X005720Y062406D01*
X005824Y062459D01*
X005929D01*
X006034Y062406D01*
X006086Y062354D01*
X006139Y062197D01*
Y061726D01*
Y062092D02*
X006715Y062459D01*
X005615Y063386D02*
Y062705D01*
X006715D01*
Y063386D01*
X006139Y062705D02*
Y063124D01*
X005615Y064250D02*
Y063569D01*
X006715D01*
Y064250D01*
X006139Y063569D02*
Y063988D01*
X005615Y064433D02*
X006715D01*
X005615D02*
X006715Y065166D01*
X005615D02*
X006715D01*
D17*
X003242Y029600D02*
X003125D01*
X003184D01*
Y029308D01*
X003125Y029250D01*
X003067D01*
X003009Y029308D01*
X003592Y029250D02*
X003359D01*
X003592Y029483D01*
Y029542D01*
X003534Y029600D01*
X003417D01*
X003359Y029542D01*
D18*
X000550Y026512D02*
Y026912D01*
X000750D01*
X000817Y026845D01*
Y026712D01*
X000750Y026645D01*
X000550D01*
X000683D02*
X000817Y026512D01*
X000950Y026912D02*
Y026512D01*
X001216D01*
X001350Y026912D02*
Y026845D01*
X001483Y026712D01*
X001616Y026845D01*
Y026912D01*
X001483Y026712D02*
Y026512D01*
X003347Y026825D02*
X003280Y026892D01*
X003147D01*
X003080Y026825D01*
Y026558D01*
X003147Y026492D01*
X003280D01*
X003347Y026558D01*
Y026692D01*
X003213D01*
X003480Y026492D02*
Y026892D01*
X003746Y026492D01*
Y026892D01*
X003880D02*
Y026492D01*
X004080D01*
X004146Y026558D01*
Y026825D01*
X004080Y026892D01*
X003880D01*
X002217D02*
X001950D01*
Y026692D01*
X002083Y026758D01*
X002150D01*
X002217Y026692D01*
Y026558D01*
X002150Y026492D01*
X002017D01*
X001950Y026558D01*
X002350Y026892D02*
Y026625D01*
X002483Y026492D01*
X002616Y026625D01*
Y026892D01*
X000580Y030120D02*
Y030520D01*
X000780D01*
X000847Y030453D01*
Y030320D01*
X000780Y030253D01*
X000580D01*
X000713D02*
X000847Y030120D01*
X001180D02*
X001047D01*
X000980Y030187D01*
Y030320D01*
X001047Y030387D01*
X001180D01*
X001246Y030320D01*
Y030253D01*
X000980D01*
X001380Y030120D02*
Y030387D01*
X001446D01*
X001513Y030320D01*
Y030120D01*
Y030320D01*
X001580Y030387D01*
X001646Y030320D01*
Y030120D01*
X001846D02*
X001980D01*
X002046Y030187D01*
Y030320D01*
X001980Y030387D01*
X001846D01*
X001780Y030320D01*
Y030187D01*
X001846Y030120D01*
X002246Y030453D02*
Y030387D01*
X002179D01*
X002313D01*
X002246D01*
Y030187D01*
X002313Y030120D01*
X002713D02*
X002579D01*
X002513Y030187D01*
Y030320D01*
X002579Y030387D01*
X002713D01*
X002779Y030320D01*
Y030253D01*
X002513D01*
X016710Y015820D02*
X016843D01*
X016777D01*
Y016220D01*
X016710Y016153D01*
M02*
