G04*
G04 #@! TF.GenerationSoftware,Altium Limited,Altium Designer,18.0.12 (696)*
G04*
G04 Layer_Physical_Order=1*
G04 Layer_Color=255*
%FSAX24Y24*%
%MOIN*%
G70*
G01*
G75*
%ADD10C,0.0120*%
%ADD14C,0.0100*%
%ADD16C,0.0200*%
%ADD19R,0.0433X0.0492*%
%ADD21C,0.0200*%
%ADD29C,0.1260*%
%ADD35C,0.0350*%
%ADD36C,0.0150*%
%ADD37C,0.0300*%
%ADD38C,0.0500*%
%ADD39C,0.0700*%
%ADD40C,0.0720*%
%ADD41C,0.0900*%
%ADD42C,0.0591*%
%ADD43R,0.0591X0.0591*%
G04:AMPARAMS|DCode=44|XSize=175mil|YSize=195mil|CornerRadius=0mil|HoleSize=0mil|Usage=FLASHONLY|Rotation=0.000|XOffset=0mil|YOffset=0mil|HoleType=Round|Shape=Octagon|*
%AMOCTAGOND44*
4,1,8,-0.0438,0.0975,0.0438,0.0975,0.0875,0.0538,0.0875,-0.0538,0.0438,-0.0975,-0.0438,-0.0975,-0.0875,-0.0538,-0.0875,0.0538,-0.0438,0.0975,0.0*
%
%ADD44OCTAGOND44*%

%ADD45C,0.1400*%
G04:AMPARAMS|DCode=46|XSize=145mil|YSize=135mil|CornerRadius=0mil|HoleSize=0mil|Usage=FLASHONLY|Rotation=0.000|XOffset=0mil|YOffset=0mil|HoleType=Round|Shape=Octagon|*
%AMOCTAGOND46*
4,1,8,0.0725,-0.0338,0.0725,0.0338,0.0388,0.0675,-0.0388,0.0675,-0.0725,0.0338,-0.0725,-0.0338,-0.0388,-0.0675,0.0388,-0.0675,0.0725,-0.0338,0.0*
%
%ADD46OCTAGOND46*%

G04:AMPARAMS|DCode=47|XSize=77mil|YSize=80mil|CornerRadius=0mil|HoleSize=0mil|Usage=FLASHONLY|Rotation=0.000|XOffset=0mil|YOffset=0mil|HoleType=Round|Shape=Octagon|*
%AMOCTAGOND47*
4,1,8,-0.0193,0.0400,0.0193,0.0400,0.0385,0.0208,0.0385,-0.0208,0.0193,-0.0400,-0.0193,-0.0400,-0.0385,-0.0208,-0.0385,0.0208,-0.0193,0.0400,0.0*
%
%ADD47OCTAGOND47*%

%ADD48R,0.0770X0.0800*%
%ADD49C,0.0827*%
%ADD50C,0.0400*%
G36*
X034650Y029789D02*
Y011739D01*
X033836Y011100D01*
X032559D01*
X032547Y011114D01*
X032441Y011201D01*
X032319Y011266D01*
X032187Y011306D01*
X032050Y011320D01*
X031913Y011306D01*
X031781Y011266D01*
X031659Y011201D01*
X031553Y011114D01*
X031541Y011100D01*
X016559D01*
X016547Y011114D01*
X016441Y011201D01*
X016319Y011266D01*
X016187Y011306D01*
X016050Y011320D01*
X015913Y011306D01*
X015781Y011266D01*
X015659Y011201D01*
X015553Y011114D01*
X015541Y011100D01*
X000993D01*
X000450Y011526D01*
Y029959D01*
X000884Y030300D01*
X015332D01*
X015358Y030266D01*
X015360Y030250D01*
X015347Y030117D01*
X015360Y029979D01*
X015400Y029847D01*
X015465Y029726D01*
X015553Y029619D01*
X015659Y029532D01*
X015781Y029467D01*
X015913Y029427D01*
X016050Y029413D01*
X016187Y029427D01*
X016319Y029467D01*
X016441Y029532D01*
X016547Y029619D01*
X016635Y029726D01*
X016700Y029847D01*
X016740Y029979D01*
X016753Y030117D01*
X016740Y030250D01*
X016742Y030266D01*
X016768Y030300D01*
X031332D01*
X031358Y030266D01*
X031360Y030250D01*
X031347Y030117D01*
X031360Y029979D01*
X031400Y029847D01*
X031465Y029726D01*
X031553Y029619D01*
X031659Y029532D01*
X031781Y029467D01*
X031913Y029427D01*
X032050Y029413D01*
X032187Y029427D01*
X032319Y029467D01*
X032441Y029532D01*
X032547Y029619D01*
X032635Y029726D01*
X032700Y029847D01*
X032740Y029979D01*
X032753Y030117D01*
X032740Y030250D01*
X032742Y030266D01*
X032768Y030300D01*
X033999D01*
X034650Y029789D01*
D02*
G37*
%LPC*%
G36*
X003200Y029034D02*
X003088Y029019D01*
X002983Y028976D01*
X002893Y028907D01*
X002824Y028817D01*
X002781Y028712D01*
X002766Y028600D01*
X002781Y028488D01*
X002824Y028383D01*
X002893Y028293D01*
X002983Y028224D01*
X003088Y028181D01*
X003200Y028166D01*
X003312Y028181D01*
X003417Y028224D01*
X003507Y028293D01*
X003576Y028383D01*
X003619Y028488D01*
X003634Y028600D01*
X003619Y028712D01*
X003576Y028817D01*
X003507Y028907D01*
X003417Y028976D01*
X003312Y029019D01*
X003200Y029034D01*
D02*
G37*
G36*
X002200D02*
X002088Y029019D01*
X001983Y028976D01*
X001893Y028907D01*
X001824Y028817D01*
X001781Y028712D01*
X001766Y028600D01*
X001781Y028488D01*
X001824Y028383D01*
X001893Y028293D01*
X001983Y028224D01*
X002088Y028181D01*
X002200Y028166D01*
X002312Y028181D01*
X002417Y028224D01*
X002507Y028293D01*
X002576Y028383D01*
X002619Y028488D01*
X002634Y028600D01*
X002619Y028712D01*
X002576Y028817D01*
X002507Y028907D01*
X002417Y028976D01*
X002312Y029019D01*
X002200Y029034D01*
D02*
G37*
G36*
X001200D02*
X001088Y029019D01*
X000983Y028976D01*
X000893Y028907D01*
X000824Y028817D01*
X000781Y028712D01*
X000766Y028600D01*
X000781Y028488D01*
X000824Y028383D01*
X000893Y028293D01*
X000983Y028224D01*
X001088Y028181D01*
X001200Y028166D01*
X001312Y028181D01*
X001417Y028224D01*
X001507Y028293D01*
X001576Y028383D01*
X001619Y028488D01*
X001634Y028600D01*
X001619Y028712D01*
X001576Y028817D01*
X001507Y028907D01*
X001417Y028976D01*
X001312Y029019D01*
X001200Y029034D01*
D02*
G37*
G36*
X016512Y028296D02*
Y028050D01*
X016758D01*
X016754Y028078D01*
X016724Y028151D01*
X016676Y028214D01*
X016613Y028262D01*
X016540Y028292D01*
X016512Y028296D01*
D02*
G37*
G36*
X016412D02*
X016384Y028292D01*
X016311Y028262D01*
X016248Y028214D01*
X016200Y028151D01*
X016170Y028078D01*
X016166Y028050D01*
X016412D01*
Y028296D01*
D02*
G37*
G36*
X005200Y029024D02*
X005090Y029009D01*
X004988Y028967D01*
X004900Y028900D01*
X004833Y028812D01*
X004791Y028710D01*
X004776Y028600D01*
X004791Y028490D01*
X004833Y028388D01*
X004900Y028300D01*
X004988Y028233D01*
X005090Y028191D01*
X005200Y028176D01*
X005310Y028191D01*
X005412Y028233D01*
X005500Y028300D01*
X005567Y028388D01*
X005600Y028467D01*
X005785D01*
X006476Y027776D01*
X006452Y027730D01*
X006440Y027733D01*
X005600D01*
X005567Y027812D01*
X005500Y027900D01*
X005412Y027967D01*
X005310Y028009D01*
X005200Y028024D01*
X005090Y028009D01*
X004988Y027967D01*
X004900Y027900D01*
X004833Y027812D01*
X004791Y027710D01*
X004776Y027600D01*
X004791Y027490D01*
X004833Y027388D01*
X004900Y027300D01*
X004988Y027233D01*
X005090Y027191D01*
X005200Y027176D01*
X005310Y027191D01*
X005412Y027233D01*
X005500Y027300D01*
X005567Y027388D01*
X005600Y027467D01*
X006385D01*
X008910Y024942D01*
X008889Y024892D01*
X003081D01*
X001322Y026651D01*
Y027185D01*
X001417Y027224D01*
X001507Y027293D01*
X001576Y027383D01*
X001619Y027488D01*
X001634Y027600D01*
X001619Y027712D01*
X001576Y027817D01*
X001507Y027907D01*
X001417Y027976D01*
X001312Y028019D01*
X001200Y028034D01*
X001088Y028019D01*
X000983Y027976D01*
X000893Y027907D01*
X000824Y027817D01*
X000781Y027712D01*
X000766Y027600D01*
X000781Y027488D01*
X000824Y027383D01*
X000893Y027293D01*
X000983Y027224D01*
X001078Y027185D01*
Y026600D01*
X001087Y026553D01*
X001113Y026513D01*
X002943Y024683D01*
X002983Y024657D01*
X003030Y024648D01*
X005627D01*
X005649Y024603D01*
X005648Y024601D01*
X005618Y024528D01*
X005614Y024500D01*
X006206D01*
X006203Y024528D01*
X006172Y024601D01*
X006171Y024603D01*
X006193Y024648D01*
X006897D01*
X006914Y024598D01*
X006907Y024593D01*
X006864Y024536D01*
X006837Y024470D01*
X006828Y024400D01*
X006837Y024330D01*
X006853Y024291D01*
X003979Y021416D01*
X003721D01*
Y020784D01*
X004294D01*
Y021357D01*
X007069Y024132D01*
X007100Y024128D01*
X007170Y024137D01*
X007236Y024164D01*
X007293Y024207D01*
X007336Y024264D01*
X007363Y024330D01*
X007372Y024400D01*
X007363Y024470D01*
X007336Y024536D01*
X007293Y024593D01*
X007286Y024598D01*
X007303Y024648D01*
X008128D01*
X008145Y024598D01*
X008139Y024593D01*
X008095Y024536D01*
X008068Y024470D01*
X008059Y024400D01*
X008068Y024330D01*
X008095Y024264D01*
X008139Y024207D01*
X008195Y024164D01*
X008199Y024163D01*
Y021786D01*
X005645Y019233D01*
X005327D01*
X005283Y019249D01*
X005283Y019283D01*
Y019881D01*
X004892D01*
X004387Y020387D01*
X004347Y020413D01*
X004300Y020422D01*
X002692D01*
X002686Y020436D01*
X002643Y020493D01*
X002586Y020536D01*
X002520Y020563D01*
X002450Y020572D01*
X002380Y020563D01*
X002314Y020536D01*
X002257Y020493D01*
X002214Y020436D01*
X002187Y020370D01*
X002178Y020300D01*
X002187Y020230D01*
X002214Y020164D01*
X002257Y020107D01*
X002314Y020064D01*
X002380Y020037D01*
X002450Y020028D01*
X002520Y020037D01*
X002586Y020064D01*
X002643Y020107D01*
X002686Y020164D01*
X002692Y020178D01*
X004249D01*
X004710Y019717D01*
X004710Y019249D01*
X004667Y019233D01*
X004533D01*
X004299Y019466D01*
Y019881D01*
X003726D01*
Y019249D01*
X004141D01*
X004384Y019006D01*
X004427Y018978D01*
X004478Y018967D01*
X005700D01*
X005751Y018978D01*
X005794Y019006D01*
X008425Y021638D01*
X008454Y021681D01*
X008464Y021731D01*
Y024163D01*
X008467Y024164D01*
X008524Y024207D01*
X008567Y024264D01*
X008594Y024330D01*
X008604Y024400D01*
X008594Y024470D01*
X008567Y024536D01*
X008524Y024593D01*
X008517Y024598D01*
X008534Y024648D01*
X008865D01*
X009128Y024385D01*
Y022280D01*
X009137Y022233D01*
X009163Y022193D01*
X011823Y019533D01*
X011863Y019507D01*
X011910Y019498D01*
X016640D01*
X016687Y019507D01*
X016727Y019533D01*
X017061Y019868D01*
X017121D01*
X017140Y019821D01*
X016796Y019478D01*
X016768Y019435D01*
X016757Y019384D01*
Y017660D01*
X016768Y017609D01*
X016796Y017566D01*
X017216Y017147D01*
X017194Y017095D01*
X017182Y017000D01*
X017194Y016905D01*
X017231Y016816D01*
X017289Y016739D01*
X017366Y016681D01*
X017455Y016644D01*
X017550Y016632D01*
X017645Y016644D01*
X017734Y016681D01*
X017811Y016739D01*
X017869Y016816D01*
X017906Y016905D01*
X017918Y017000D01*
X017906Y017095D01*
X017869Y017184D01*
X017811Y017261D01*
X017734Y017319D01*
X017645Y017356D01*
X017550Y017368D01*
X017455Y017356D01*
X017403Y017334D01*
X017023Y017715D01*
Y019329D01*
X017372Y019678D01*
X017455Y019644D01*
X017550Y019632D01*
X017645Y019644D01*
X017734Y019681D01*
X017811Y019739D01*
X017857Y019801D01*
X017907Y019784D01*
Y019216D01*
X017857Y019199D01*
X017811Y019261D01*
X017734Y019319D01*
X017645Y019356D01*
X017550Y019368D01*
X017455Y019356D01*
X017366Y019319D01*
X017289Y019261D01*
X017231Y019184D01*
X017194Y019095D01*
X017182Y019000D01*
X017194Y018905D01*
X017231Y018816D01*
X017289Y018739D01*
X017366Y018681D01*
X017455Y018644D01*
X017550Y018632D01*
X017645Y018644D01*
X017734Y018681D01*
X017811Y018739D01*
X017857Y018801D01*
X017907Y018784D01*
Y018510D01*
X017918Y018459D01*
X017946Y018416D01*
X018216Y018147D01*
X018194Y018095D01*
X018182Y018000D01*
X018194Y017905D01*
X018231Y017816D01*
X018289Y017739D01*
X018366Y017681D01*
X018455Y017644D01*
X018550Y017632D01*
X018645Y017644D01*
X018734Y017681D01*
X018811Y017739D01*
X018869Y017816D01*
X018906Y017905D01*
X018918Y018000D01*
X018906Y018095D01*
X018869Y018184D01*
X018811Y018261D01*
X018734Y018319D01*
X018645Y018356D01*
X018550Y018368D01*
X018455Y018356D01*
X018403Y018334D01*
X018173Y018565D01*
Y018826D01*
X018223Y018836D01*
X018231Y018816D01*
X018289Y018739D01*
X018366Y018681D01*
X018455Y018644D01*
X018550Y018632D01*
X018645Y018644D01*
X018734Y018681D01*
X018811Y018739D01*
X018869Y018816D01*
X018906Y018905D01*
X018918Y019000D01*
X018906Y019095D01*
X018869Y019184D01*
X018811Y019261D01*
X018734Y019319D01*
X018645Y019356D01*
X018550Y019368D01*
X018455Y019356D01*
X018366Y019319D01*
X018289Y019261D01*
X018231Y019184D01*
X018223Y019164D01*
X018173Y019174D01*
Y019826D01*
X018223Y019836D01*
X018231Y019816D01*
X018289Y019739D01*
X018366Y019681D01*
X018455Y019644D01*
X018550Y019632D01*
X018645Y019644D01*
X018734Y019681D01*
X018811Y019739D01*
X018869Y019816D01*
X018906Y019905D01*
X018918Y020000D01*
X018906Y020095D01*
X018869Y020184D01*
X018811Y020261D01*
X018734Y020319D01*
X018645Y020356D01*
X018550Y020368D01*
X018455Y020356D01*
X018366Y020319D01*
X018289Y020261D01*
X018243Y020199D01*
X018194Y020190D01*
X018180Y020192D01*
X018173Y020200D01*
X018162Y020251D01*
X018134Y020294D01*
X017874Y020554D01*
X017831Y020582D01*
X017780Y020593D01*
X017637D01*
X017633Y020643D01*
X017645Y020644D01*
X017734Y020681D01*
X017811Y020739D01*
X017869Y020816D01*
X017906Y020905D01*
X017918Y021000D01*
X017906Y021095D01*
X017869Y021184D01*
X017811Y021261D01*
X017734Y021319D01*
X017645Y021356D01*
X017550Y021368D01*
X017455Y021356D01*
X017366Y021319D01*
X017289Y021261D01*
X017231Y021184D01*
X017194Y021095D01*
X017182Y021000D01*
X017194Y020905D01*
X017231Y020816D01*
X017289Y020739D01*
X017366Y020681D01*
X017455Y020644D01*
X017467Y020643D01*
X017463Y020593D01*
X017197D01*
X017146Y020582D01*
X017103Y020554D01*
X016572Y020023D01*
X014009D01*
X013994Y020073D01*
X014000Y020076D01*
X014716Y020793D01*
X014730Y020787D01*
X014800Y020778D01*
X014870Y020787D01*
X014936Y020814D01*
X014993Y020857D01*
X015036Y020914D01*
X015063Y020980D01*
X015072Y021050D01*
X015063Y021120D01*
X015036Y021186D01*
X014993Y021243D01*
X014936Y021286D01*
X014870Y021313D01*
X014800Y021322D01*
X014730Y021313D01*
X014664Y021286D01*
X014607Y021243D01*
X014564Y021186D01*
X014537Y021120D01*
X014528Y021050D01*
X014536Y020987D01*
X013851Y020303D01*
X011938D01*
X009973Y022268D01*
Y024600D01*
X009962Y024651D01*
X009934Y024694D01*
X005934Y028694D01*
X005891Y028722D01*
X005840Y028733D01*
X005600D01*
X005567Y028812D01*
X005500Y028900D01*
X005412Y028967D01*
X005310Y029009D01*
X005200Y029024D01*
D02*
G37*
G36*
X016758Y027950D02*
X016512D01*
Y027704D01*
X016540Y027708D01*
X016613Y027738D01*
X016676Y027786D01*
X016724Y027849D01*
X016754Y027922D01*
X016758Y027950D01*
D02*
G37*
G36*
X016412D02*
X016166D01*
X016170Y027922D01*
X016200Y027849D01*
X016248Y027786D01*
X016311Y027738D01*
X016384Y027708D01*
X016412Y027704D01*
Y027950D01*
D02*
G37*
G36*
X003250Y028057D02*
Y027650D01*
X003657D01*
X003648Y027720D01*
X003602Y027832D01*
X003528Y027928D01*
X003432Y028002D01*
X003320Y028048D01*
X003250Y028057D01*
D02*
G37*
G36*
X003150D02*
X003080Y028048D01*
X002968Y028002D01*
X002872Y027928D01*
X002798Y027832D01*
X002752Y027720D01*
X002743Y027650D01*
X003150D01*
Y028057D01*
D02*
G37*
G36*
X003657Y027550D02*
X003250D01*
Y027143D01*
X003320Y027152D01*
X003432Y027198D01*
X003528Y027272D01*
X003602Y027368D01*
X003648Y027480D01*
X003657Y027550D01*
D02*
G37*
G36*
X003150D02*
X002743D01*
X002752Y027480D01*
X002798Y027368D01*
X002872Y027272D01*
X002968Y027198D01*
X003080Y027152D01*
X003150Y027143D01*
Y027550D01*
D02*
G37*
G36*
X026932Y026314D02*
X026796Y026296D01*
X026670Y026244D01*
X026561Y026161D01*
X026478Y026052D01*
X026457Y026002D01*
X026407D01*
X026386Y026052D01*
X026303Y026161D01*
X026194Y026244D01*
X026068Y026296D01*
X025932Y026314D01*
X025796Y026296D01*
X025670Y026244D01*
X025561Y026161D01*
X025478Y026052D01*
X025457Y026002D01*
X025407D01*
X025386Y026052D01*
X025303Y026161D01*
X025194Y026244D01*
X025068Y026296D01*
X024932Y026314D01*
X024796Y026296D01*
X024670Y026244D01*
X024561Y026161D01*
X024478Y026052D01*
X024441Y025963D01*
X020340D01*
X020273Y025950D01*
X020217Y025912D01*
X017656Y023351D01*
X017645Y023356D01*
X017550Y023368D01*
X017455Y023356D01*
X017366Y023319D01*
X017289Y023261D01*
X017231Y023184D01*
X017194Y023095D01*
X017182Y023000D01*
X017194Y022905D01*
X017231Y022816D01*
X017289Y022739D01*
X017366Y022681D01*
X017455Y022644D01*
X017550Y022632D01*
X017645Y022644D01*
X017734Y022681D01*
X017811Y022739D01*
X017869Y022816D01*
X017906Y022905D01*
X017918Y023000D01*
X017906Y023095D01*
X017901Y023106D01*
X020412Y025616D01*
X024441D01*
X024478Y025528D01*
X024561Y025419D01*
X024670Y025336D01*
X024720Y025315D01*
Y025265D01*
X024670Y025244D01*
X024561Y025161D01*
X024478Y025052D01*
X024441Y024963D01*
X020340D01*
X020273Y024950D01*
X020217Y024912D01*
X018656Y023351D01*
X018645Y023356D01*
X018550Y023368D01*
X018455Y023356D01*
X018366Y023319D01*
X018289Y023261D01*
X018231Y023184D01*
X018194Y023095D01*
X018182Y023000D01*
X018194Y022905D01*
X018231Y022816D01*
X018289Y022739D01*
X018366Y022681D01*
X018455Y022644D01*
X018550Y022632D01*
X018645Y022644D01*
X018734Y022681D01*
X018811Y022739D01*
X018869Y022816D01*
X018906Y022905D01*
X018918Y023000D01*
X018906Y023095D01*
X018901Y023106D01*
X019436Y023641D01*
X019478Y023613D01*
X019468Y023587D01*
X019464Y023559D01*
X019710D01*
Y023805D01*
X019682Y023801D01*
X019656Y023790D01*
X019628Y023833D01*
X020412Y024616D01*
X024441D01*
X024478Y024528D01*
X024561Y024419D01*
X024670Y024336D01*
X024796Y024283D01*
X024932Y024265D01*
X025068Y024283D01*
X025194Y024336D01*
X025303Y024419D01*
X025386Y024528D01*
X025407Y024578D01*
X025457D01*
X025478Y024528D01*
X025561Y024419D01*
X025670Y024336D01*
X025784Y024288D01*
Y024143D01*
X018877Y017236D01*
X018827Y017239D01*
X018811Y017261D01*
X018734Y017319D01*
X018645Y017356D01*
X018550Y017368D01*
X018455Y017356D01*
X018366Y017319D01*
X018289Y017261D01*
X018231Y017184D01*
X018194Y017095D01*
X018182Y017000D01*
X018194Y016905D01*
X018231Y016816D01*
X018289Y016739D01*
X018366Y016681D01*
X018455Y016644D01*
X018550Y016632D01*
X018645Y016644D01*
X018734Y016681D01*
X018811Y016739D01*
X018869Y016816D01*
X018887Y016860D01*
X018907Y016863D01*
X018955Y016895D01*
X026036Y023977D01*
X026068Y024025D01*
X026080Y024082D01*
Y024288D01*
X026194Y024336D01*
X026303Y024419D01*
X026386Y024528D01*
X026391Y024539D01*
X026441Y024539D01*
X026451Y024512D01*
X026540Y024398D01*
X026655Y024309D01*
X026788Y024254D01*
X026882Y024242D01*
Y024790D01*
X026932D01*
Y024840D01*
X027480D01*
X027468Y024933D01*
X027412Y025067D01*
X027324Y025182D01*
X027209Y025270D01*
X027183Y025281D01*
Y025331D01*
X027194Y025336D01*
X027303Y025419D01*
X027386Y025528D01*
X027439Y025654D01*
X027456Y025790D01*
X027439Y025926D01*
X027386Y026052D01*
X027303Y026161D01*
X027194Y026244D01*
X027068Y026296D01*
X026932Y026314D01*
D02*
G37*
G36*
X013900Y026072D02*
X013830Y026063D01*
X013764Y026036D01*
X013707Y025993D01*
X013664Y025936D01*
X013637Y025870D01*
X013628Y025800D01*
X013637Y025730D01*
X013643Y025716D01*
X012143Y024217D01*
X012117Y024177D01*
X012108Y024130D01*
Y021182D01*
X012094Y021176D01*
X012037Y021133D01*
X011994Y021076D01*
X011967Y021010D01*
X011958Y020940D01*
X011967Y020870D01*
X011994Y020804D01*
X012037Y020747D01*
X012094Y020704D01*
X012160Y020677D01*
X012230Y020668D01*
X012300Y020677D01*
X012366Y020704D01*
X012423Y020747D01*
X012466Y020804D01*
X012493Y020870D01*
X012502Y020940D01*
X012493Y021010D01*
X012466Y021076D01*
X012423Y021133D01*
X012366Y021176D01*
X012352Y021182D01*
Y021327D01*
X012366Y021332D01*
X012402Y021335D01*
X012423Y021303D01*
X012673Y021054D01*
X012667Y021040D01*
X012658Y020970D01*
X012667Y020900D01*
X012694Y020834D01*
X012737Y020777D01*
X012794Y020734D01*
X012860Y020707D01*
X012930Y020698D01*
X013000Y020707D01*
X013066Y020734D01*
X013123Y020777D01*
X013166Y020834D01*
X013193Y020900D01*
X013202Y020970D01*
X013193Y021040D01*
X013166Y021106D01*
X013123Y021163D01*
X013066Y021206D01*
X013000Y021233D01*
X012930Y021242D01*
X012860Y021233D01*
X012846Y021227D01*
X012632Y021441D01*
Y024049D01*
X013561Y024978D01*
X015958D01*
X015964Y024964D01*
X016007Y024907D01*
X016064Y024864D01*
X016130Y024837D01*
X016200Y024828D01*
X016270Y024837D01*
X016336Y024864D01*
X016393Y024907D01*
X016436Y024964D01*
X016463Y025030D01*
X016472Y025100D01*
X016463Y025170D01*
X016436Y025236D01*
X016393Y025293D01*
X016336Y025336D01*
X016270Y025363D01*
X016200Y025372D01*
X016130Y025363D01*
X016064Y025336D01*
X016007Y025293D01*
X015964Y025236D01*
X015958Y025222D01*
X013566D01*
X013545Y025272D01*
X013816Y025543D01*
X013830Y025537D01*
X013900Y025528D01*
X013970Y025537D01*
X014036Y025564D01*
X014093Y025607D01*
X014136Y025664D01*
X014163Y025730D01*
X014172Y025800D01*
X014163Y025870D01*
X014136Y025936D01*
X014093Y025993D01*
X014036Y026036D01*
X013970Y026063D01*
X013900Y026072D01*
D02*
G37*
G36*
X002200Y028034D02*
X002088Y028019D01*
X001983Y027976D01*
X001893Y027907D01*
X001824Y027817D01*
X001781Y027712D01*
X001766Y027600D01*
X001781Y027488D01*
X001824Y027383D01*
X001893Y027293D01*
X001983Y027224D01*
X002078Y027185D01*
Y026620D01*
X002087Y026573D01*
X002113Y026533D01*
X002909Y025738D01*
X002897Y025710D01*
X002888Y025640D01*
X002897Y025570D01*
X002924Y025504D01*
X002967Y025447D01*
X003024Y025404D01*
X003090Y025377D01*
X003160Y025368D01*
X003230Y025377D01*
X003296Y025404D01*
X003353Y025447D01*
X003396Y025504D01*
X003423Y025570D01*
X003432Y025640D01*
X003423Y025710D01*
X003396Y025776D01*
X003353Y025833D01*
X003296Y025876D01*
X003230Y025903D01*
X003160Y025912D01*
X003090Y025903D01*
X002322Y026671D01*
Y027185D01*
X002417Y027224D01*
X002507Y027293D01*
X002576Y027383D01*
X002619Y027488D01*
X002634Y027600D01*
X002619Y027712D01*
X002576Y027817D01*
X002507Y027907D01*
X002417Y027976D01*
X002312Y028019D01*
X002200Y028034D01*
D02*
G37*
G36*
X030932Y024996D02*
Y024750D01*
X031178D01*
X031174Y024778D01*
X031144Y024851D01*
X031096Y024914D01*
X031033Y024962D01*
X030960Y024992D01*
X030932Y024996D01*
D02*
G37*
G36*
X030832D02*
X030804Y024992D01*
X030731Y024962D01*
X030668Y024914D01*
X030620Y024851D01*
X030590Y024778D01*
X030586Y024750D01*
X030832D01*
Y024996D01*
D02*
G37*
G36*
X031178Y024650D02*
X030932D01*
Y024404D01*
X030960Y024408D01*
X031033Y024438D01*
X031096Y024486D01*
X031144Y024549D01*
X031174Y024622D01*
X031178Y024650D01*
D02*
G37*
G36*
X030832D02*
X030586D01*
X030590Y024622D01*
X030620Y024549D01*
X030668Y024486D01*
X030731Y024438D01*
X030804Y024408D01*
X030832Y024404D01*
Y024650D01*
D02*
G37*
G36*
X027480Y024740D02*
X026982D01*
Y024242D01*
X027075Y024254D01*
X027209Y024309D01*
X027324Y024398D01*
X027412Y024512D01*
X027468Y024646D01*
X027480Y024740D01*
D02*
G37*
G36*
X006206Y024400D02*
X005960D01*
Y024154D01*
X005989Y024158D01*
X006062Y024188D01*
X006124Y024236D01*
X006172Y024299D01*
X006203Y024372D01*
X006206Y024400D01*
D02*
G37*
G36*
X005860D02*
X005614D01*
X005618Y024372D01*
X005648Y024299D01*
X005696Y024236D01*
X005759Y024188D01*
X005832Y024158D01*
X005860Y024154D01*
Y024400D01*
D02*
G37*
G36*
X019810Y023805D02*
Y023559D01*
X020056D01*
X020052Y023587D01*
X020022Y023660D01*
X019974Y023722D01*
X019911Y023771D01*
X019838Y023801D01*
X019810Y023805D01*
D02*
G37*
G36*
X020056Y023459D02*
X019810D01*
Y023213D01*
X019838Y023216D01*
X019911Y023246D01*
X019974Y023295D01*
X020022Y023357D01*
X020052Y023430D01*
X020056Y023459D01*
D02*
G37*
G36*
X019710D02*
X019464D01*
X019468Y023430D01*
X019498Y023357D01*
X019546Y023295D01*
X019609Y023246D01*
X019682Y023216D01*
X019710Y023213D01*
Y023459D01*
D02*
G37*
G36*
X011050Y023346D02*
Y023100D01*
X011296D01*
X011292Y023128D01*
X011262Y023201D01*
X011214Y023264D01*
X011151Y023312D01*
X011078Y023342D01*
X011050Y023346D01*
D02*
G37*
G36*
X010950D02*
X010922Y023342D01*
X010849Y023312D01*
X010786Y023264D01*
X010738Y023201D01*
X010708Y023128D01*
X010704Y023100D01*
X010950D01*
Y023346D01*
D02*
G37*
G36*
X003950Y023196D02*
Y022950D01*
X004196D01*
X004192Y022978D01*
X004162Y023051D01*
X004114Y023114D01*
X004051Y023162D01*
X003978Y023192D01*
X003950Y023196D01*
D02*
G37*
G36*
X003850D02*
X003822Y023192D01*
X003749Y023162D01*
X003686Y023114D01*
X003638Y023051D01*
X003608Y022978D01*
X003604Y022950D01*
X003850D01*
Y023196D01*
D02*
G37*
G36*
X011296Y023000D02*
X011050D01*
Y022754D01*
X011078Y022758D01*
X011151Y022788D01*
X011214Y022836D01*
X011262Y022899D01*
X011292Y022972D01*
X011296Y023000D01*
D02*
G37*
G36*
X010950D02*
X010704D01*
X010708Y022972D01*
X010738Y022899D01*
X010786Y022836D01*
X010849Y022788D01*
X010922Y022758D01*
X010950Y022754D01*
Y023000D01*
D02*
G37*
G36*
X004196Y022850D02*
X003950D01*
Y022604D01*
X003978Y022608D01*
X004051Y022638D01*
X004114Y022686D01*
X004162Y022749D01*
X004192Y022822D01*
X004196Y022850D01*
D02*
G37*
G36*
X003850D02*
X003604D01*
X003608Y022822D01*
X003638Y022749D01*
X003686Y022686D01*
X003749Y022638D01*
X003822Y022608D01*
X003850Y022604D01*
Y022850D01*
D02*
G37*
G36*
X017550Y022368D02*
X017455Y022356D01*
X017366Y022319D01*
X017289Y022261D01*
X017231Y022184D01*
X017216Y022148D01*
X013326D01*
X013299Y022183D01*
X013243Y022226D01*
X013177Y022253D01*
X013107Y022262D01*
X013036Y022253D01*
X012971Y022226D01*
X012914Y022183D01*
X012871Y022126D01*
X012844Y022060D01*
X012835Y021990D01*
X012844Y021920D01*
X012871Y021854D01*
X012914Y021797D01*
X012971Y021754D01*
X013036Y021727D01*
X013107Y021718D01*
X013177Y021727D01*
X013243Y021754D01*
X013299Y021797D01*
X013341Y021852D01*
X017216D01*
X017231Y021816D01*
X017289Y021739D01*
X017366Y021681D01*
X017455Y021644D01*
X017550Y021632D01*
X017645Y021644D01*
X017734Y021681D01*
X017811Y021739D01*
X017869Y021816D01*
X017906Y021905D01*
X017918Y022000D01*
X017906Y022095D01*
X017869Y022184D01*
X017811Y022261D01*
X017734Y022319D01*
X017645Y022356D01*
X017550Y022368D01*
D02*
G37*
G36*
X018550D02*
X018455Y022356D01*
X018366Y022319D01*
X018289Y022261D01*
X018231Y022184D01*
X018194Y022095D01*
X018182Y022000D01*
X018194Y021905D01*
X018231Y021816D01*
X018289Y021739D01*
X018366Y021681D01*
X018455Y021644D01*
X018550Y021632D01*
X018645Y021644D01*
X018734Y021681D01*
X018811Y021739D01*
X018869Y021816D01*
X018890Y021867D01*
X021863D01*
X021864Y021864D01*
X021907Y021807D01*
X021964Y021764D01*
X022030Y021737D01*
X022100Y021728D01*
X022170Y021737D01*
X022236Y021764D01*
X022293Y021807D01*
X022336Y021864D01*
X022363Y021930D01*
X022372Y022000D01*
X022363Y022070D01*
X022336Y022136D01*
X022293Y022193D01*
X022236Y022236D01*
X022170Y022263D01*
X022100Y022272D01*
X022030Y022263D01*
X021964Y022236D01*
X021907Y022193D01*
X021864Y022136D01*
X021863Y022133D01*
X018890D01*
X018869Y022184D01*
X018811Y022261D01*
X018734Y022319D01*
X018645Y022356D01*
X018550Y022368D01*
D02*
G37*
G36*
X016550Y021681D02*
Y021435D01*
X016796D01*
X016792Y021463D01*
X016762Y021536D01*
X016714Y021599D01*
X016651Y021647D01*
X016578Y021677D01*
X016550Y021681D01*
D02*
G37*
G36*
X016450D02*
X016422Y021677D01*
X016349Y021647D01*
X016286Y021599D01*
X016238Y021536D01*
X016208Y021463D01*
X016204Y021435D01*
X016450D01*
Y021681D01*
D02*
G37*
G36*
X005900Y021444D02*
X005830Y021435D01*
X005764Y021408D01*
X005707Y021364D01*
X005664Y021308D01*
X005658Y021294D01*
X005279D01*
Y021416D01*
X004706D01*
Y020784D01*
X005279D01*
Y021049D01*
X005658D01*
X005664Y021036D01*
X005707Y020979D01*
X005764Y020936D01*
X005830Y020909D01*
X005900Y020899D01*
X005970Y020909D01*
X006036Y020936D01*
X006093Y020979D01*
X006136Y021036D01*
X006163Y021101D01*
X006172Y021172D01*
X006163Y021242D01*
X006136Y021308D01*
X006093Y021364D01*
X006036Y021408D01*
X005970Y021435D01*
X005900Y021444D01*
D02*
G37*
G36*
X016796Y021335D02*
X016550D01*
Y021089D01*
X016578Y021093D01*
X016651Y021123D01*
X016714Y021171D01*
X016762Y021234D01*
X016792Y021307D01*
X016796Y021335D01*
D02*
G37*
G36*
X016450D02*
X016204D01*
X016208Y021307D01*
X016238Y021234D01*
X016286Y021171D01*
X016349Y021123D01*
X016422Y021093D01*
X016450Y021089D01*
Y021335D01*
D02*
G37*
G36*
X023700Y021422D02*
X023630Y021413D01*
X023564Y021386D01*
X023507Y021343D01*
X023464Y021286D01*
X023437Y021220D01*
X023428Y021150D01*
X023435Y021094D01*
X018682Y016341D01*
X018645Y016356D01*
X018550Y016368D01*
X018455Y016356D01*
X018366Y016319D01*
X018289Y016261D01*
X018231Y016184D01*
X018194Y016095D01*
X018182Y016000D01*
X018194Y015905D01*
X018231Y015816D01*
X018289Y015739D01*
X018366Y015681D01*
X018455Y015644D01*
X018550Y015632D01*
X018645Y015644D01*
X018734Y015681D01*
X018811Y015739D01*
X018869Y015816D01*
X018906Y015905D01*
X018918Y016000D01*
X018906Y016095D01*
X018891Y016132D01*
X023644Y020885D01*
X023700Y020878D01*
X023770Y020887D01*
X023836Y020914D01*
X023893Y020957D01*
X023936Y021014D01*
X023963Y021080D01*
X023972Y021150D01*
X023963Y021220D01*
X023936Y021286D01*
X023893Y021343D01*
X023836Y021386D01*
X023770Y021413D01*
X023700Y021422D01*
D02*
G37*
G36*
X018550Y021368D02*
X018455Y021356D01*
X018366Y021319D01*
X018289Y021261D01*
X018231Y021184D01*
X018194Y021095D01*
X018182Y021000D01*
X018194Y020905D01*
X018231Y020816D01*
X018289Y020739D01*
X018366Y020681D01*
X018455Y020644D01*
X018550Y020632D01*
X018645Y020644D01*
X018734Y020681D01*
X018811Y020739D01*
X018869Y020816D01*
X018890Y020867D01*
X021446D01*
X021447Y020864D01*
X021491Y020807D01*
X021547Y020764D01*
X021613Y020737D01*
X021683Y020728D01*
X021754Y020737D01*
X021819Y020764D01*
X021876Y020807D01*
X021919Y020864D01*
X021946Y020930D01*
X021955Y021000D01*
X021946Y021070D01*
X021919Y021136D01*
X021876Y021193D01*
X021819Y021236D01*
X021754Y021263D01*
X021683Y021272D01*
X021613Y021263D01*
X021547Y021236D01*
X021491Y021193D01*
X021447Y021136D01*
X021446Y021133D01*
X018890D01*
X018869Y021184D01*
X018811Y021261D01*
X018734Y021319D01*
X018645Y021356D01*
X018550Y021368D01*
D02*
G37*
G36*
X008185Y018946D02*
Y018700D01*
X008431D01*
X008427Y018728D01*
X008397Y018801D01*
X008349Y018864D01*
X008286Y018912D01*
X008213Y018942D01*
X008185Y018946D01*
D02*
G37*
G36*
X008085D02*
X008056Y018942D01*
X007983Y018912D01*
X007921Y018864D01*
X007873Y018801D01*
X007842Y018728D01*
X007839Y018700D01*
X008085D01*
Y018946D01*
D02*
G37*
G36*
X008431Y018600D02*
X008185D01*
Y018354D01*
X008213Y018358D01*
X008286Y018388D01*
X008349Y018436D01*
X008397Y018499D01*
X008427Y018572D01*
X008431Y018600D01*
D02*
G37*
G36*
X008085D02*
X007839D01*
X007842Y018572D01*
X007873Y018499D01*
X007921Y018436D01*
X007983Y018388D01*
X008056Y018358D01*
X008085Y018354D01*
Y018600D01*
D02*
G37*
G36*
X017600Y018392D02*
Y018050D01*
X017942D01*
X017935Y018103D01*
X017895Y018199D01*
X017832Y018282D01*
X017749Y018345D01*
X017653Y018385D01*
X017600Y018392D01*
D02*
G37*
G36*
X017500D02*
X017447Y018385D01*
X017351Y018345D01*
X017268Y018282D01*
X017205Y018199D01*
X017165Y018103D01*
X017158Y018050D01*
X017500D01*
Y018392D01*
D02*
G37*
G36*
X017942Y017950D02*
X017600D01*
Y017608D01*
X017653Y017615D01*
X017749Y017655D01*
X017832Y017718D01*
X017895Y017801D01*
X017935Y017897D01*
X017942Y017950D01*
D02*
G37*
G36*
X017500D02*
X017158D01*
X017165Y017897D01*
X017205Y017801D01*
X017268Y017718D01*
X017351Y017655D01*
X017447Y017615D01*
X017500Y017608D01*
Y017950D01*
D02*
G37*
G36*
X005283Y018316D02*
X004710D01*
Y017684D01*
X005125D01*
X005590Y017220D01*
X005564Y017186D01*
X005537Y017120D01*
X005528Y017050D01*
X005537Y016980D01*
X005564Y016914D01*
X005607Y016857D01*
X005664Y016814D01*
X005730Y016787D01*
X005800Y016778D01*
X005870Y016787D01*
X005936Y016814D01*
X005993Y016857D01*
X006036Y016914D01*
X006063Y016980D01*
X006072Y017050D01*
X006063Y017120D01*
X006036Y017186D01*
X005993Y017243D01*
X005936Y017286D01*
X005872Y017313D01*
X005283Y017901D01*
Y018316D01*
D02*
G37*
G36*
X006393Y017922D02*
X006322Y017913D01*
X006256Y017886D01*
X006200Y017843D01*
X006157Y017786D01*
X006130Y017720D01*
X006120Y017650D01*
X006130Y017580D01*
X006157Y017514D01*
X006200Y017457D01*
X006256Y017414D01*
X006270Y017408D01*
Y016943D01*
X005860Y016533D01*
X005283D01*
Y016726D01*
X004710D01*
Y016094D01*
X005283D01*
Y016288D01*
X005910D01*
X005957Y016297D01*
X005997Y016324D01*
X006479Y016806D01*
X006506Y016846D01*
X006515Y016893D01*
Y017408D01*
X006529Y017414D01*
X006585Y017457D01*
X006628Y017514D01*
X006656Y017580D01*
X006665Y017650D01*
X006656Y017720D01*
X006628Y017786D01*
X006585Y017843D01*
X006529Y017886D01*
X006463Y017913D01*
X006393Y017922D01*
D02*
G37*
G36*
X017945Y016395D02*
X017600D01*
Y016050D01*
X017945D01*
Y016395D01*
D02*
G37*
G36*
X017500D02*
X017155D01*
Y016050D01*
X017500D01*
Y016395D01*
D02*
G37*
G36*
X004299Y018316D02*
X003726D01*
Y017857D01*
X002993Y017124D01*
X002967Y017085D01*
X002958Y017038D01*
Y014300D01*
X002967Y014253D01*
X002993Y014213D01*
X003463Y013743D01*
X003503Y013717D01*
X003550Y013708D01*
X006449D01*
X006462Y013678D01*
X006463Y013658D01*
X006406Y013614D01*
X006358Y013551D01*
X006328Y013478D01*
X006324Y013450D01*
X006916D01*
X006912Y013478D01*
X006882Y013551D01*
X006834Y013614D01*
X006777Y013658D01*
X006778Y013678D01*
X006791Y013708D01*
X007580D01*
X007627Y013717D01*
X007667Y013743D01*
X008666Y014743D01*
X008680Y014737D01*
X008750Y014728D01*
X008820Y014737D01*
X008886Y014764D01*
X008943Y014807D01*
X008986Y014864D01*
X009013Y014930D01*
X009022Y015000D01*
X009013Y015070D01*
X008986Y015136D01*
X008943Y015193D01*
X008886Y015236D01*
X008820Y015263D01*
X008750Y015272D01*
X008680Y015263D01*
X008614Y015236D01*
X008557Y015193D01*
X008514Y015136D01*
X008487Y015070D01*
X008478Y015000D01*
X008487Y014930D01*
X008493Y014916D01*
X007529Y013952D01*
X006891D01*
X006872Y013999D01*
X008666Y015793D01*
X008680Y015787D01*
X008750Y015778D01*
X008820Y015787D01*
X008886Y015814D01*
X008943Y015857D01*
X008986Y015914D01*
X009013Y015980D01*
X009022Y016050D01*
X009013Y016120D01*
X008986Y016186D01*
X008943Y016243D01*
X008886Y016286D01*
X008820Y016313D01*
X008750Y016322D01*
X008680Y016313D01*
X008614Y016286D01*
X008557Y016243D01*
X008514Y016186D01*
X008487Y016120D01*
X008478Y016050D01*
X008487Y015980D01*
X008493Y015966D01*
X006652Y014125D01*
X003678D01*
X003392Y014411D01*
Y015587D01*
X003899Y016094D01*
X004299D01*
Y016726D01*
X003726D01*
Y016267D01*
X003249Y015790D01*
X003202Y015809D01*
Y016987D01*
X003899Y017684D01*
X004299D01*
Y018316D01*
D02*
G37*
G36*
X017945Y015950D02*
X017600D01*
Y015605D01*
X017945D01*
Y015950D01*
D02*
G37*
G36*
X017500D02*
X017155D01*
Y015605D01*
X017500D01*
Y015950D01*
D02*
G37*
G36*
X027182Y016814D02*
X027046Y016796D01*
X026920Y016744D01*
X026811Y016661D01*
X026728Y016552D01*
X026675Y016426D01*
X026657Y016290D01*
X026675Y016154D01*
X026728Y016028D01*
X026811Y015919D01*
X026920Y015836D01*
X026931Y015831D01*
X026931Y015781D01*
X026905Y015770D01*
X026790Y015682D01*
X026701Y015567D01*
X026646Y015433D01*
X026634Y015340D01*
X027730D01*
X027718Y015433D01*
X027662Y015567D01*
X027574Y015682D01*
X027459Y015770D01*
X027433Y015781D01*
X027433Y015831D01*
X027444Y015836D01*
X027553Y015919D01*
X027636Y016028D01*
X027689Y016154D01*
X027706Y016290D01*
X027689Y016426D01*
X027636Y016552D01*
X027553Y016661D01*
X027444Y016744D01*
X027318Y016796D01*
X027182Y016814D01*
D02*
G37*
G36*
X005309Y015246D02*
X005042D01*
Y014950D01*
X005309D01*
Y015246D01*
D02*
G37*
G36*
X004942D02*
X004676D01*
Y014950D01*
X004942D01*
Y015246D01*
D02*
G37*
G36*
X027730Y015240D02*
X027232D01*
Y014742D01*
X027325Y014754D01*
X027459Y014809D01*
X027574Y014898D01*
X027662Y015012D01*
X027718Y015146D01*
X027730Y015240D01*
D02*
G37*
G36*
X027132D02*
X026634D01*
X026646Y015146D01*
X026701Y015012D01*
X026790Y014898D01*
X026905Y014809D01*
X027038Y014754D01*
X027132Y014742D01*
Y015240D01*
D02*
G37*
G36*
X024195Y014946D02*
Y014700D01*
X024441D01*
X024437Y014728D01*
X024407Y014801D01*
X024359Y014864D01*
X024296Y014912D01*
X024223Y014942D01*
X024195Y014946D01*
D02*
G37*
G36*
X024095D02*
X024066Y014942D01*
X023993Y014912D01*
X023931Y014864D01*
X023883Y014801D01*
X023852Y014728D01*
X023849Y014700D01*
X024095D01*
Y014946D01*
D02*
G37*
G36*
X009970Y020772D02*
X009900Y020763D01*
X009834Y020736D01*
X009777Y020693D01*
X009734Y020636D01*
X009707Y020570D01*
X009698Y020500D01*
X009707Y020430D01*
X009734Y020364D01*
X009777Y020307D01*
X009834Y020264D01*
X009848Y020258D01*
Y018971D01*
X006599Y015722D01*
X004678D01*
X004632Y015713D01*
X004592Y015687D01*
X004121Y015216D01*
X003721D01*
Y014584D01*
X004294D01*
Y015043D01*
X004729Y015478D01*
X006650D01*
X006697Y015487D01*
X006737Y015513D01*
X010057Y018833D01*
X010083Y018873D01*
X010092Y018920D01*
Y020258D01*
X010106Y020264D01*
X010163Y020307D01*
X010206Y020364D01*
X010233Y020430D01*
X010242Y020500D01*
X010233Y020570D01*
X010206Y020636D01*
X010163Y020693D01*
X010106Y020736D01*
X010040Y020763D01*
X009970Y020772D01*
D02*
G37*
G36*
X005309Y014850D02*
X005042D01*
Y014554D01*
X005309D01*
Y014850D01*
D02*
G37*
G36*
X004942D02*
X004676D01*
Y014554D01*
X004942D01*
Y014850D01*
D02*
G37*
G36*
X024441Y014600D02*
X024195D01*
Y014354D01*
X024223Y014358D01*
X024296Y014388D01*
X024359Y014436D01*
X024407Y014499D01*
X024437Y014572D01*
X024441Y014600D01*
D02*
G37*
G36*
X024095D02*
X023849D01*
X023852Y014572D01*
X023883Y014499D01*
X023931Y014436D01*
X023993Y014388D01*
X024066Y014358D01*
X024095Y014354D01*
Y014600D01*
D02*
G37*
G36*
X005313Y013607D02*
X005047D01*
Y013311D01*
X005313D01*
Y013607D01*
D02*
G37*
G36*
X004947D02*
X004680D01*
Y013311D01*
X004947D01*
Y013607D01*
D02*
G37*
G36*
X006916Y013350D02*
X006670D01*
Y013104D01*
X006698Y013108D01*
X006771Y013138D01*
X006834Y013186D01*
X006882Y013249D01*
X006912Y013322D01*
X006916Y013350D01*
D02*
G37*
G36*
X006570D02*
X006324D01*
X006328Y013322D01*
X006358Y013249D01*
X006406Y013186D01*
X006469Y013138D01*
X006542Y013108D01*
X006570Y013104D01*
Y013350D01*
D02*
G37*
G36*
X005313Y013211D02*
X005047D01*
Y012915D01*
X005313D01*
Y013211D01*
D02*
G37*
G36*
X004947D02*
X004680D01*
Y012915D01*
X004947D01*
Y013211D01*
D02*
G37*
G36*
X008750Y013972D02*
X008680Y013963D01*
X008614Y013936D01*
X008557Y013893D01*
X008514Y013836D01*
X008487Y013770D01*
X008478Y013700D01*
X008487Y013630D01*
X008493Y013616D01*
X007679Y012802D01*
X004614D01*
X004299Y013118D01*
Y013577D01*
X003726D01*
Y012945D01*
X004126D01*
X004477Y012593D01*
X004517Y012567D01*
X004564Y012558D01*
X007730D01*
X007777Y012567D01*
X007817Y012593D01*
X008666Y013443D01*
X008680Y013437D01*
X008750Y013428D01*
X008820Y013437D01*
X008886Y013464D01*
X008943Y013507D01*
X008986Y013564D01*
X009013Y013630D01*
X009022Y013700D01*
X009013Y013770D01*
X008986Y013836D01*
X008943Y013893D01*
X008886Y013936D01*
X008820Y013963D01*
X008750Y013972D01*
D02*
G37*
G36*
X024632Y013014D02*
X024496Y012996D01*
X024370Y012944D01*
X024261Y012861D01*
X024178Y012752D01*
X024157Y012702D01*
X024107D01*
X024086Y012752D01*
X024003Y012861D01*
X023894Y012944D01*
X023768Y012996D01*
X023632Y013014D01*
X023496Y012996D01*
X023370Y012944D01*
X023261Y012861D01*
X023178Y012752D01*
X023125Y012626D01*
X023107Y012490D01*
X023125Y012354D01*
X023178Y012228D01*
X023261Y012119D01*
X023370Y012036D01*
X023496Y011983D01*
X023632Y011965D01*
X023768Y011983D01*
X023894Y012036D01*
X024003Y012119D01*
X024086Y012228D01*
X024107Y012278D01*
X024157D01*
X024178Y012228D01*
X024261Y012119D01*
X024370Y012036D01*
X024496Y011983D01*
X024632Y011965D01*
X024768Y011983D01*
X024894Y012036D01*
X025003Y012119D01*
X025086Y012228D01*
X025139Y012354D01*
X025156Y012490D01*
X025139Y012626D01*
X025086Y012752D01*
X025003Y012861D01*
X024894Y012944D01*
X024768Y012996D01*
X024632Y013014D01*
D02*
G37*
G36*
X008750Y012522D02*
X008680Y012513D01*
X008614Y012486D01*
X008557Y012443D01*
X008514Y012386D01*
X008508Y012372D01*
X004554D01*
X004508Y012363D01*
X004468Y012337D01*
X004133Y012002D01*
X003733D01*
Y011370D01*
X004306D01*
Y011829D01*
X004605Y012128D01*
X008508D01*
X008514Y012114D01*
X008557Y012057D01*
X008614Y012014D01*
X008680Y011987D01*
X008750Y011978D01*
X008820Y011987D01*
X008886Y012014D01*
X008943Y012057D01*
X008986Y012114D01*
X009013Y012180D01*
X009022Y012250D01*
X009013Y012320D01*
X008986Y012386D01*
X008943Y012443D01*
X008886Y012486D01*
X008820Y012513D01*
X008750Y012522D01*
D02*
G37*
G36*
X005320Y012032D02*
X005054D01*
Y011736D01*
X005320D01*
Y012032D01*
D02*
G37*
G36*
X004954D02*
X004687D01*
Y011736D01*
X004954D01*
Y012032D01*
D02*
G37*
G36*
X005320Y011636D02*
X005054D01*
Y011340D01*
X005320D01*
Y011636D01*
D02*
G37*
G36*
X004954D02*
X004687D01*
Y011340D01*
X004954D01*
Y011636D01*
D02*
G37*
%LPD*%
D10*
X018550Y022000D02*
X022100D01*
X018550Y021000D02*
X021683D01*
X018040Y018510D02*
X018550Y018000D01*
X008331Y021731D02*
Y024400D01*
X005700Y019100D02*
X008331Y021731D01*
X004478Y019100D02*
X005700D01*
X004013Y019565D02*
X004478Y019100D01*
X004997Y018000D02*
X005800Y017197D01*
Y017050D02*
Y017197D01*
X007046Y024346D02*
X007100Y024400D01*
X004008Y021100D02*
Y021258D01*
X007046Y024296D01*
Y024346D01*
X018040Y018510D02*
Y020200D01*
X017780Y020460D02*
X018040Y020200D01*
X014786Y021050D02*
X014800D01*
X005200Y028600D02*
X005840D01*
X005200Y027600D02*
X006440D01*
X009551Y024489D01*
X017197Y020460D02*
X017780D01*
X005840Y028600D02*
X009840Y024600D01*
X016627Y019890D02*
X017197Y020460D01*
X013906Y020170D02*
X014786Y021050D01*
X009551Y022233D02*
Y024489D01*
Y022233D02*
X011895Y019890D01*
X016627D01*
X009840Y022213D02*
Y024600D01*
Y022213D02*
X011883Y020170D01*
X013906D01*
X016890Y017660D02*
X017550Y017000D01*
X016890Y017660D02*
Y019384D01*
X017528Y020022D01*
D14*
X002200Y026620D02*
Y027600D01*
X001200Y026600D02*
Y027600D01*
X003160Y025640D02*
Y025660D01*
X002200Y026620D02*
X003160Y025660D01*
X004992Y021100D02*
X005064Y021172D01*
X004997Y019565D02*
Y019603D01*
X004300Y020300D02*
X004997Y019603D01*
X002450Y020300D02*
X004300D01*
X004020Y011686D02*
Y011715D01*
X004013Y016381D02*
Y016410D01*
Y017970D02*
Y018000D01*
X004020Y011715D02*
X004554Y012250D01*
X004008Y014900D02*
Y014930D01*
X005064Y021172D02*
X005789D01*
X004008Y014930D02*
X004678Y015600D01*
X006650D01*
X004997Y016410D02*
X005910D01*
X006393Y016893D01*
Y017722D01*
X001200Y026600D02*
X003030Y024770D01*
X005789Y021172D02*
X005900Y021283D01*
Y021172D02*
Y021283D01*
X012510Y024100D02*
X013510Y025100D01*
X016200D01*
X012230Y024130D02*
X013900Y025800D01*
X012230Y020940D02*
Y024130D01*
X006650Y015600D02*
X009970Y018920D01*
Y020500D01*
X012510Y021390D02*
Y024100D01*
Y021390D02*
X012930Y020970D01*
X003030Y024770D02*
X008915D01*
X009250Y024435D01*
X004013Y013231D02*
Y013261D01*
X004554Y012250D02*
X008750D01*
X004013Y013231D02*
X004564Y012680D01*
X007730D01*
X008750Y013700D01*
X007580Y013830D02*
X008750Y015000D01*
X003550Y013830D02*
X007580D01*
X006703Y014003D02*
X008750Y016050D01*
X003627Y014003D02*
X006703D01*
X003080Y014300D02*
X003550Y013830D01*
X003080Y014300D02*
Y017038D01*
X004013Y017970D01*
X003270Y014360D02*
X003627Y014003D01*
X003270Y014360D02*
Y015638D01*
X004013Y016381D01*
X009250Y022280D02*
Y024435D01*
Y022280D02*
X011910Y019620D01*
X016640D01*
X017010Y019990D01*
X017540D01*
X017550Y020000D01*
D16*
Y023000D02*
X020340Y025790D01*
X024932D01*
X018550Y023000D02*
X020340Y024790D01*
X024932D01*
D19*
X004013Y019565D02*
D03*
X004997D02*
D03*
X005004Y011686D02*
D03*
X004020D02*
D03*
X004013Y018000D02*
D03*
X004997D02*
D03*
X004013Y016410D02*
D03*
X004997D02*
D03*
X004013Y013261D02*
D03*
X004997D02*
D03*
X004008Y014900D02*
D03*
X004992D02*
D03*
X004008Y021100D02*
D03*
X004992D02*
D03*
D21*
X000100Y033300D02*
D03*
X000500D02*
D03*
X000900D02*
D03*
X001300D02*
D03*
X001700D02*
D03*
Y034100D02*
D03*
X001300D02*
D03*
X000900D02*
D03*
X000500D02*
D03*
X000100D02*
D03*
X027300Y033300D02*
D03*
X027700D02*
D03*
X028100D02*
D03*
X028500D02*
D03*
X028900D02*
D03*
Y034100D02*
D03*
X028500D02*
D03*
X028100D02*
D03*
X027700D02*
D03*
X027300D02*
D03*
X012750Y033300D02*
D03*
X013150D02*
D03*
X013550D02*
D03*
X013950D02*
D03*
X014350D02*
D03*
Y034100D02*
D03*
X013950D02*
D03*
X013550D02*
D03*
X013150D02*
D03*
X012750D02*
D03*
X027300Y060101D02*
D03*
X027700D02*
D03*
X028100D02*
D03*
X028500D02*
D03*
X028820D02*
D03*
Y059301D02*
D03*
X028500D02*
D03*
X028100D02*
D03*
X027700D02*
D03*
X027300D02*
D03*
X001700Y060101D02*
D03*
X001300D02*
D03*
X000900D02*
D03*
X000500D02*
D03*
X000180D02*
D03*
Y059301D02*
D03*
X000500D02*
D03*
X000900D02*
D03*
X001300D02*
D03*
X001700D02*
D03*
X009900D02*
D03*
X009500D02*
D03*
X009100D02*
D03*
X008700D02*
D03*
X008300D02*
D03*
Y060101D02*
D03*
X008700D02*
D03*
X009100D02*
D03*
X009500D02*
D03*
X009900D02*
D03*
X019600D02*
D03*
X020000D02*
D03*
X020400D02*
D03*
X020800D02*
D03*
X021200D02*
D03*
Y059301D02*
D03*
X020800D02*
D03*
X020400D02*
D03*
X020000D02*
D03*
X019600D02*
D03*
D29*
X016050Y010617D02*
D03*
X032050D02*
D03*
Y030117D02*
D03*
X016050D02*
D03*
D35*
X002835Y004094D02*
Y011665D01*
D36*
X013107Y021990D02*
X013117Y022000D01*
X017550D01*
X018550Y017000D02*
X018850D01*
X025932Y024082D01*
Y024790D01*
X018550Y016000D02*
X023700Y021150D01*
D37*
X014942Y082030D02*
X015000Y081971D01*
X014942Y056030D02*
X015000Y055971D01*
D38*
Y073951D02*
Y081971D01*
X009094Y073951D02*
X013000Y077856D01*
Y081971D01*
X006142Y069030D02*
Y074075D01*
X012000Y079933D01*
Y081971D01*
X018000Y079305D02*
Y081971D01*
Y079305D02*
X023858Y073447D01*
Y069030D02*
Y073447D01*
X017000Y077856D02*
Y081971D01*
Y077856D02*
X020906Y073951D01*
X016000Y081971D02*
X016062Y081910D01*
X013932Y081903D02*
X014000Y081971D01*
X012047Y069030D02*
Y074248D01*
X013932Y076133D01*
Y081903D01*
X016062Y076139D02*
Y081910D01*
Y076139D02*
X017953Y074248D01*
Y069030D02*
Y074248D01*
Y043030D02*
Y048248D01*
X016062Y050139D02*
X017953Y048248D01*
X016062Y050139D02*
Y055910D01*
X013932Y050133D02*
Y055903D01*
X012047Y048248D02*
X013932Y050133D01*
X012047Y043030D02*
Y048248D01*
X013932Y055903D02*
X014000Y055971D01*
X016000D02*
X016062Y055910D01*
X017000Y051856D02*
X020906Y047951D01*
X017000Y051856D02*
Y055971D01*
X023858Y043030D02*
Y047447D01*
X018000Y053305D02*
X023858Y047447D01*
X018000Y053305D02*
Y055971D01*
X012000Y053933D02*
Y055971D01*
X006142Y048075D02*
X012000Y053933D01*
X006142Y043030D02*
Y048075D01*
X013000Y051856D02*
Y055971D01*
X009094Y047951D02*
X013000Y051856D01*
X015000Y047951D02*
Y055971D01*
D39*
X005200Y028600D02*
D03*
Y027600D02*
D03*
D40*
X003200Y028600D02*
D03*
Y027600D02*
D03*
X002200Y028600D02*
D03*
Y027600D02*
D03*
X001200Y028600D02*
D03*
Y027600D02*
D03*
D41*
X026932Y024790D02*
D03*
Y025790D02*
D03*
X025932D02*
D03*
X024932D02*
D03*
Y024790D02*
D03*
X025932D02*
D03*
X027182Y016290D02*
D03*
Y015290D02*
D03*
X024632Y012490D02*
D03*
X023632D02*
D03*
D42*
X018550Y023000D02*
D03*
X017550D02*
D03*
X018550Y022000D02*
D03*
X017550D02*
D03*
X018550Y021000D02*
D03*
X017550D02*
D03*
X018550Y020000D02*
D03*
X017550D02*
D03*
X018550Y019000D02*
D03*
X017550D02*
D03*
X018550Y018000D02*
D03*
X017550D02*
D03*
X018550Y017000D02*
D03*
X017550D02*
D03*
X018550Y016000D02*
D03*
D43*
X017550D02*
D03*
D44*
X002835Y004094D02*
D03*
X007835D02*
D03*
D45*
X003000Y032000D02*
D03*
X001250D02*
D03*
D46*
X023858Y069030D02*
D03*
X020906Y073951D02*
D03*
X017953Y069030D02*
D03*
X015000Y073951D02*
D03*
X012047Y069030D02*
D03*
X009094Y073951D02*
D03*
X006142Y069030D02*
D03*
Y043030D02*
D03*
X009094Y047951D02*
D03*
X012047Y043030D02*
D03*
X015000Y047951D02*
D03*
X017953Y043030D02*
D03*
X020906Y047951D02*
D03*
X023858Y043030D02*
D03*
D47*
X014000Y081971D02*
D03*
X013000D02*
D03*
X015000D02*
D03*
X016000D02*
D03*
X017000D02*
D03*
X018000D02*
D03*
Y055971D02*
D03*
X017000D02*
D03*
X016000D02*
D03*
X015000D02*
D03*
X013000D02*
D03*
X014000D02*
D03*
D48*
X012000Y081971D02*
D03*
Y055971D02*
D03*
D49*
X002000Y062201D02*
D03*
Y082201D02*
D03*
X027000D02*
D03*
Y062201D02*
D03*
Y036201D02*
D03*
Y056201D02*
D03*
X002000D02*
D03*
Y036201D02*
D03*
D50*
X003900Y022900D02*
D03*
X016462Y028000D02*
D03*
X016500Y021385D02*
D03*
X008135Y018650D02*
D03*
X011000Y023050D02*
D03*
X005910Y024450D02*
D03*
X019760Y023509D02*
D03*
X030882Y024700D02*
D03*
X024145Y014650D02*
D03*
X022100Y022000D02*
D03*
X021683Y021000D02*
D03*
X013107Y021990D02*
D03*
X003160Y025640D02*
D03*
X016200Y025100D02*
D03*
X013900Y025800D02*
D03*
X002450Y020300D02*
D03*
X008750Y012250D02*
D03*
Y013700D02*
D03*
Y015000D02*
D03*
Y016050D02*
D03*
X014800Y021050D02*
D03*
X008331Y024400D02*
D03*
X007100D02*
D03*
X006393Y017650D02*
D03*
X005800Y017050D02*
D03*
X023700Y021150D02*
D03*
X005900Y021172D02*
D03*
X012230Y020940D02*
D03*
X012930Y020970D02*
D03*
X009970Y020500D02*
D03*
X006620Y013400D02*
D03*
M02*
