G04*
G04 #@! TF.GenerationSoftware,Altium Limited,Altium Designer,18.0.12 (696)*
G04*
G04 Layer_Color=16711935*
%FSAX24Y24*%
%MOIN*%
G70*
G01*
G75*
%ADD21C,0.0200*%
%ADD22C,0.0780*%
%ADD23C,0.0800*%
%ADD24C,0.0980*%
%ADD25C,0.0671*%
%ADD26R,0.0671X0.0671*%
G04:AMPARAMS|DCode=27|XSize=183mil|YSize=203mil|CornerRadius=0mil|HoleSize=0mil|Usage=FLASHONLY|Rotation=0.000|XOffset=0mil|YOffset=0mil|HoleType=Round|Shape=Octagon|*
%AMOCTAGOND27*
4,1,8,-0.0458,0.1015,0.0458,0.1015,0.0915,0.0558,0.0915,-0.0558,0.0458,-0.1015,-0.0458,-0.1015,-0.0915,-0.0558,-0.0915,0.0558,-0.0458,0.1015,0.0*
%
%ADD27OCTAGOND27*%

%ADD28C,0.1480*%
%ADD29C,0.1260*%
G04:AMPARAMS|DCode=30|XSize=153mil|YSize=143mil|CornerRadius=0mil|HoleSize=0mil|Usage=FLASHONLY|Rotation=0.000|XOffset=0mil|YOffset=0mil|HoleType=Round|Shape=Octagon|*
%AMOCTAGOND30*
4,1,8,0.0765,-0.0358,0.0765,0.0358,0.0408,0.0715,-0.0408,0.0715,-0.0765,0.0358,-0.0765,-0.0358,-0.0408,-0.0715,0.0408,-0.0715,0.0765,-0.0358,0.0*
%
%ADD30OCTAGOND30*%

G04:AMPARAMS|DCode=31|XSize=85mil|YSize=88mil|CornerRadius=0mil|HoleSize=0mil|Usage=FLASHONLY|Rotation=0.000|XOffset=0mil|YOffset=0mil|HoleType=Round|Shape=Octagon|*
%AMOCTAGOND31*
4,1,8,-0.0213,0.0440,0.0213,0.0440,0.0425,0.0228,0.0425,-0.0228,0.0213,-0.0440,-0.0213,-0.0440,-0.0425,-0.0228,-0.0425,0.0228,-0.0213,0.0440,0.0*
%
%ADD31OCTAGOND31*%

%ADD32R,0.0850X0.0880*%
%ADD33C,0.2362*%
%ADD34C,0.0480*%
%ADD55R,0.0572X0.0671*%
%ADD56R,0.0651X0.0316*%
%ADD57R,0.0781X0.1320*%
%ADD58R,0.0513X0.0281*%
D21*
X000100Y033300D02*
D03*
X000500D02*
D03*
X000900D02*
D03*
X001300D02*
D03*
X001700D02*
D03*
Y034100D02*
D03*
X001300D02*
D03*
X000900D02*
D03*
X000500D02*
D03*
X000100D02*
D03*
X027300Y033300D02*
D03*
X027700D02*
D03*
X028100D02*
D03*
X028500D02*
D03*
X028900D02*
D03*
Y034100D02*
D03*
X028500D02*
D03*
X028100D02*
D03*
X027700D02*
D03*
X027300D02*
D03*
X012750Y033300D02*
D03*
X013150D02*
D03*
X013550D02*
D03*
X013950D02*
D03*
X014350D02*
D03*
Y034100D02*
D03*
X013950D02*
D03*
X013550D02*
D03*
X013150D02*
D03*
X012750D02*
D03*
X027300Y060101D02*
D03*
X027700D02*
D03*
X028100D02*
D03*
X028500D02*
D03*
X028820D02*
D03*
Y059301D02*
D03*
X028500D02*
D03*
X028100D02*
D03*
X027700D02*
D03*
X027300D02*
D03*
X001700Y060101D02*
D03*
X001300D02*
D03*
X000900D02*
D03*
X000500D02*
D03*
X000180D02*
D03*
Y059301D02*
D03*
X000500D02*
D03*
X000900D02*
D03*
X001300D02*
D03*
X001700D02*
D03*
X009900D02*
D03*
X009500D02*
D03*
X009100D02*
D03*
X008700D02*
D03*
X008300D02*
D03*
Y060101D02*
D03*
X008700D02*
D03*
X009100D02*
D03*
X009500D02*
D03*
X009900D02*
D03*
X019600D02*
D03*
X020000D02*
D03*
X020400D02*
D03*
X020800D02*
D03*
X021200D02*
D03*
Y059301D02*
D03*
X020800D02*
D03*
X020400D02*
D03*
X020000D02*
D03*
X019600D02*
D03*
D22*
X005200Y028600D02*
D03*
Y027600D02*
D03*
D23*
X003200Y028600D02*
D03*
Y027600D02*
D03*
X002200Y028600D02*
D03*
Y027600D02*
D03*
X001200Y028600D02*
D03*
Y027600D02*
D03*
D24*
X026932Y024790D02*
D03*
Y025790D02*
D03*
X025932D02*
D03*
X024932D02*
D03*
Y024790D02*
D03*
X025932D02*
D03*
X027182Y016290D02*
D03*
Y015290D02*
D03*
X024632Y012490D02*
D03*
X023632D02*
D03*
D25*
X018550Y023000D02*
D03*
X017550D02*
D03*
X018550Y022000D02*
D03*
X017550D02*
D03*
X018550Y021000D02*
D03*
X017550D02*
D03*
X018550Y020000D02*
D03*
X017550D02*
D03*
X018550Y019000D02*
D03*
X017550D02*
D03*
X018550Y018000D02*
D03*
X017550D02*
D03*
X018550Y017000D02*
D03*
X017550D02*
D03*
X018550Y016000D02*
D03*
D26*
X017550D02*
D03*
D27*
X002835Y004094D02*
D03*
X007835D02*
D03*
D28*
X003000Y032000D02*
D03*
X001250D02*
D03*
D29*
X016050Y010617D02*
D03*
X032050D02*
D03*
Y030117D02*
D03*
X016050D02*
D03*
D30*
X023858Y069030D02*
D03*
X020906Y073951D02*
D03*
X017953Y069030D02*
D03*
X015000Y073951D02*
D03*
X012047Y069030D02*
D03*
X009094Y073951D02*
D03*
X006142Y069030D02*
D03*
Y043030D02*
D03*
X009094Y047951D02*
D03*
X012047Y043030D02*
D03*
X015000Y047951D02*
D03*
X017953Y043030D02*
D03*
X020906Y047951D02*
D03*
X023858Y043030D02*
D03*
D31*
X014000Y081971D02*
D03*
X013000D02*
D03*
X015000D02*
D03*
X016000D02*
D03*
X017000D02*
D03*
X018000D02*
D03*
Y055971D02*
D03*
X017000D02*
D03*
X016000D02*
D03*
X015000D02*
D03*
X013000D02*
D03*
X014000D02*
D03*
D32*
X012000Y081971D02*
D03*
Y055971D02*
D03*
D33*
X002000Y062201D02*
D03*
Y082201D02*
D03*
X027000D02*
D03*
Y062201D02*
D03*
Y036201D02*
D03*
Y056201D02*
D03*
X002000D02*
D03*
Y036201D02*
D03*
D34*
X023700Y021150D02*
D03*
D55*
X011987Y015438D02*
D03*
X012813D02*
D03*
Y011500D02*
D03*
X011987D02*
D03*
Y014125D02*
D03*
X012813D02*
D03*
X011987Y012812D02*
D03*
X012813D02*
D03*
X015287Y026922D02*
D03*
X016113D02*
D03*
X013133Y024960D02*
D03*
X012307D02*
D03*
Y023880D02*
D03*
X013133D02*
D03*
D56*
X013363Y031600D02*
D03*
X012437Y031974D02*
D03*
Y031226D02*
D03*
D57*
X014230Y019000D02*
D03*
X012170D02*
D03*
D58*
X019600Y025632D02*
D03*
Y026132D02*
D03*
Y026632D02*
D03*
Y027132D02*
D03*
Y027632D02*
D03*
Y028132D02*
D03*
Y028632D02*
D03*
X017435D02*
D03*
Y028132D02*
D03*
Y027632D02*
D03*
Y027132D02*
D03*
Y026632D02*
D03*
Y026132D02*
D03*
Y025632D02*
D03*
M02*
