G04*
G04 #@! TF.GenerationSoftware,Altium Limited,Altium Designer,18.0.12 (696)*
G04*
G04 Layer_Physical_Order=2*
G04 Layer_Color=16711680*
%FSAX24Y24*%
%MOIN*%
G70*
G01*
G75*
%ADD10C,0.0120*%
%ADD14C,0.0100*%
%ADD21C,0.0200*%
%ADD29C,0.1260*%
%ADD35C,0.0350*%
%ADD36C,0.0150*%
%ADD37C,0.0300*%
%ADD38C,0.0500*%
%ADD39C,0.0700*%
%ADD40C,0.0720*%
%ADD41C,0.0900*%
%ADD42C,0.0591*%
%ADD43R,0.0591X0.0591*%
G04:AMPARAMS|DCode=44|XSize=175mil|YSize=195mil|CornerRadius=0mil|HoleSize=0mil|Usage=FLASHONLY|Rotation=0.000|XOffset=0mil|YOffset=0mil|HoleType=Round|Shape=Octagon|*
%AMOCTAGOND44*
4,1,8,-0.0438,0.0975,0.0438,0.0975,0.0875,0.0538,0.0875,-0.0538,0.0438,-0.0975,-0.0438,-0.0975,-0.0875,-0.0538,-0.0875,0.0538,-0.0438,0.0975,0.0*
%
%ADD44OCTAGOND44*%

%ADD45C,0.1400*%
G04:AMPARAMS|DCode=46|XSize=145mil|YSize=135mil|CornerRadius=0mil|HoleSize=0mil|Usage=FLASHONLY|Rotation=0.000|XOffset=0mil|YOffset=0mil|HoleType=Round|Shape=Octagon|*
%AMOCTAGOND46*
4,1,8,0.0725,-0.0338,0.0725,0.0338,0.0388,0.0675,-0.0388,0.0675,-0.0725,0.0338,-0.0725,-0.0338,-0.0388,-0.0675,0.0388,-0.0675,0.0725,-0.0338,0.0*
%
%ADD46OCTAGOND46*%

G04:AMPARAMS|DCode=47|XSize=77mil|YSize=80mil|CornerRadius=0mil|HoleSize=0mil|Usage=FLASHONLY|Rotation=0.000|XOffset=0mil|YOffset=0mil|HoleType=Round|Shape=Octagon|*
%AMOCTAGOND47*
4,1,8,-0.0193,0.0400,0.0193,0.0400,0.0385,0.0208,0.0385,-0.0208,0.0193,-0.0400,-0.0193,-0.0400,-0.0385,-0.0208,-0.0385,0.0208,-0.0193,0.0400,0.0*
%
%ADD47OCTAGOND47*%

%ADD48R,0.0770X0.0800*%
%ADD49C,0.0827*%
%ADD50C,0.0400*%
%ADD51R,0.0492X0.0591*%
%ADD52R,0.0571X0.0236*%
%ADD53R,0.0701X0.1240*%
%ADD54R,0.0433X0.0201*%
G36*
X034740Y029740D02*
Y011737D01*
X033926Y011100D01*
X032559D01*
X032547Y011114D01*
X032441Y011201D01*
X032319Y011266D01*
X032187Y011306D01*
X032050Y011320D01*
X031913Y011306D01*
X031781Y011266D01*
X031659Y011201D01*
X031553Y011114D01*
X031541Y011100D01*
X016559D01*
X016547Y011114D01*
X016441Y011201D01*
X016319Y011266D01*
X016187Y011306D01*
X016050Y011320D01*
X015913Y011306D01*
X015781Y011266D01*
X015659Y011201D01*
X015553Y011114D01*
X015541Y011100D01*
X013165D01*
X013129Y011135D01*
X013129Y011150D01*
Y011865D01*
X012497D01*
Y011150D01*
X012497Y011135D01*
X012462Y011100D01*
X012338D01*
X012303Y011135D01*
X012303Y011150D01*
Y011865D01*
X011671D01*
Y011622D01*
X009501D01*
X008993Y012130D01*
X009013Y012180D01*
X009022Y012250D01*
X009013Y012320D01*
X008986Y012386D01*
X008943Y012443D01*
X008886Y012486D01*
X008820Y012513D01*
X008750Y012522D01*
X008680Y012513D01*
X008614Y012486D01*
X008557Y012443D01*
X008514Y012386D01*
X008487Y012320D01*
X008478Y012250D01*
X008487Y012180D01*
X008514Y012114D01*
X008557Y012057D01*
X008614Y012014D01*
X008680Y011987D01*
X008750Y011978D01*
X008794Y011983D01*
X009363Y011413D01*
X009403Y011387D01*
X009450Y011378D01*
X011671D01*
Y011150D01*
X011671Y011135D01*
X011635Y011100D01*
X008059D01*
Y015992D01*
X010765Y018698D01*
X011750D01*
Y018310D01*
X012591D01*
Y019690D01*
X011750D01*
Y019147D01*
X010672D01*
X010586Y019130D01*
X010514Y019081D01*
X007676Y016243D01*
X007627Y016170D01*
X007610Y016085D01*
Y011100D01*
X001112D01*
X000570Y011525D01*
Y029910D01*
X001004Y030250D01*
X002626D01*
X002645Y030204D01*
X001417Y028976D01*
X001312Y029019D01*
X001200Y029034D01*
X001088Y029019D01*
X000983Y028976D01*
X000893Y028907D01*
X000824Y028817D01*
X000781Y028712D01*
X000766Y028600D01*
X000781Y028488D01*
X000824Y028383D01*
X000893Y028293D01*
X000983Y028224D01*
X001088Y028181D01*
X001200Y028166D01*
X001312Y028181D01*
X001417Y028224D01*
X001507Y028293D01*
X001576Y028383D01*
X001619Y028488D01*
X001634Y028600D01*
X001619Y028712D01*
X001605Y028746D01*
X002006Y029147D01*
X002052Y029128D01*
Y029004D01*
X001983Y028976D01*
X001893Y028907D01*
X001824Y028817D01*
X001781Y028712D01*
X001766Y028600D01*
X001781Y028488D01*
X001824Y028383D01*
X001893Y028293D01*
X001983Y028224D01*
X002088Y028181D01*
X002200Y028166D01*
X002312Y028181D01*
X002417Y028224D01*
X002507Y028293D01*
X002576Y028383D01*
X002619Y028488D01*
X002634Y028600D01*
X002619Y028712D01*
X002576Y028817D01*
X002507Y028907D01*
X002417Y028976D01*
X002348Y029004D01*
Y029139D01*
X003459Y030250D01*
X015323D01*
X015356Y030213D01*
X015347Y030117D01*
X015360Y029979D01*
X015400Y029847D01*
X015465Y029726D01*
X015553Y029619D01*
X015659Y029532D01*
X015781Y029467D01*
X015913Y029427D01*
X016050Y029413D01*
X016187Y029427D01*
X016319Y029467D01*
X016441Y029532D01*
X016547Y029619D01*
X016635Y029726D01*
X016700Y029847D01*
X016740Y029979D01*
X016753Y030117D01*
X016744Y030213D01*
X016777Y030250D01*
X019141D01*
X021022Y028369D01*
Y021971D01*
X019199Y020148D01*
X018884D01*
X018869Y020184D01*
X018811Y020261D01*
X018734Y020319D01*
X018645Y020356D01*
X018550Y020368D01*
X018455Y020356D01*
X018366Y020319D01*
X018289Y020261D01*
X018233Y020186D01*
X018228Y020186D01*
X018183Y020203D01*
Y020500D01*
X018172Y020551D01*
X018144Y020594D01*
X017884Y020853D01*
X017906Y020905D01*
X017918Y021000D01*
X017906Y021095D01*
X017880Y021157D01*
X018147Y021423D01*
X018173Y021463D01*
X018182Y021510D01*
Y021800D01*
X018227Y021814D01*
X018232Y021814D01*
X018289Y021739D01*
X018366Y021681D01*
X018455Y021644D01*
X018550Y021632D01*
X018645Y021644D01*
X018734Y021681D01*
X018811Y021739D01*
X018869Y021816D01*
X018895Y021878D01*
X019587D01*
X019634Y021887D01*
X019674Y021913D01*
X020467Y022706D01*
X020468Y022708D01*
X020518Y022693D01*
Y022221D01*
X019419Y021122D01*
X018895D01*
X018869Y021184D01*
X018811Y021261D01*
X018734Y021319D01*
X018645Y021356D01*
X018550Y021368D01*
X018455Y021356D01*
X018366Y021319D01*
X018289Y021261D01*
X018231Y021184D01*
X018194Y021095D01*
X018182Y021000D01*
X018194Y020905D01*
X018231Y020816D01*
X018289Y020739D01*
X018366Y020681D01*
X018455Y020644D01*
X018550Y020632D01*
X018645Y020644D01*
X018734Y020681D01*
X018811Y020739D01*
X018869Y020816D01*
X018895Y020878D01*
X019470D01*
X019517Y020887D01*
X019557Y020913D01*
X020727Y022083D01*
X020753Y022123D01*
X020762Y022170D01*
Y028079D01*
X020753Y028125D01*
X020727Y028165D01*
X019953Y028939D01*
X019913Y028965D01*
X019912Y028966D01*
X019891Y028987D01*
X019851Y029013D01*
X019804Y029022D01*
X018850D01*
X018803Y029013D01*
X018763Y028987D01*
X017771Y027994D01*
X017721Y028015D01*
Y028302D01*
X017557D01*
Y028461D01*
X017721D01*
Y028802D01*
X017148D01*
Y028754D01*
X014575D01*
X014528Y028745D01*
X014489Y028718D01*
X012612Y026842D01*
X003237D01*
X003191Y026832D01*
X003151Y026806D01*
X002363Y026019D01*
X002337Y025979D01*
X002328Y025932D01*
Y020542D01*
X002314Y020536D01*
X002257Y020493D01*
X002214Y020436D01*
X002187Y020370D01*
X002178Y020300D01*
X002187Y020230D01*
X002214Y020164D01*
X002257Y020107D01*
X002314Y020064D01*
X002380Y020037D01*
X002450Y020028D01*
X002520Y020037D01*
X002586Y020064D01*
X002643Y020107D01*
X002686Y020164D01*
X002713Y020230D01*
X002722Y020300D01*
X002713Y020370D01*
X002686Y020436D01*
X002643Y020493D01*
X002586Y020536D01*
X002572Y020542D01*
Y025881D01*
X003288Y026597D01*
X012663D01*
X012709Y026606D01*
X012749Y026633D01*
X014626Y028510D01*
X017148D01*
Y028461D01*
X017312D01*
Y028302D01*
X017148D01*
Y027961D01*
X017668D01*
X017688Y027912D01*
X017579Y027802D01*
X017148D01*
Y027462D01*
X017721D01*
Y027598D01*
X018901Y028778D01*
X019313D01*
Y028461D01*
X019478D01*
Y028302D01*
X019313D01*
Y028254D01*
X019162D01*
X019115Y028245D01*
X019075Y028218D01*
X017849Y026992D01*
X017721D01*
Y027302D01*
X017148D01*
Y027254D01*
X017019D01*
X016808Y027465D01*
X016768Y027492D01*
X016722Y027501D01*
X014518D01*
X014472Y027492D01*
X014432Y027465D01*
X013020Y026053D01*
X012994Y026014D01*
X012984Y025967D01*
Y025325D01*
X012817D01*
Y024595D01*
X012984D01*
Y024245D01*
X012817D01*
Y023515D01*
X012984D01*
Y022351D01*
X012938Y022332D01*
X012743Y022527D01*
X012704Y022553D01*
X012657Y022562D01*
X006431D01*
X003423Y025570D01*
X003432Y025640D01*
X003423Y025710D01*
X003396Y025776D01*
X003353Y025833D01*
X003296Y025876D01*
X003230Y025903D01*
X003160Y025912D01*
X003090Y025903D01*
X003024Y025876D01*
X002967Y025833D01*
X002924Y025776D01*
X002897Y025710D01*
X002888Y025640D01*
X002897Y025570D01*
X002924Y025504D01*
X002967Y025447D01*
X003024Y025404D01*
X003090Y025377D01*
X003160Y025368D01*
X003230Y025377D01*
X003258Y025389D01*
X006293Y022353D01*
X006333Y022327D01*
X006380Y022318D01*
X012606D01*
X012850Y022074D01*
X012844Y022060D01*
X012835Y021990D01*
X012844Y021920D01*
X012871Y021854D01*
X012914Y021797D01*
X012971Y021754D01*
X013036Y021727D01*
X013107Y021718D01*
X013177Y021727D01*
X013243Y021754D01*
X013299Y021797D01*
X013343Y021854D01*
X013370Y021920D01*
X013379Y021990D01*
X013370Y022060D01*
X013343Y022126D01*
X013299Y022183D01*
X013243Y022226D01*
X013229Y022232D01*
Y023515D01*
X013449D01*
Y024245D01*
X013229D01*
Y024595D01*
X013449D01*
Y025325D01*
X013229D01*
Y025916D01*
X014569Y027256D01*
X014971D01*
Y027007D01*
X014941Y027001D01*
X014901Y026974D01*
X013984Y026057D01*
X013970Y026063D01*
X013900Y026072D01*
X013830Y026063D01*
X013764Y026036D01*
X013707Y025993D01*
X013664Y025936D01*
X013637Y025870D01*
X013628Y025800D01*
X013637Y025730D01*
X013664Y025664D01*
X013707Y025607D01*
X013764Y025564D01*
X013830Y025537D01*
X013900Y025528D01*
X013970Y025537D01*
X014036Y025564D01*
X014093Y025607D01*
X014136Y025664D01*
X014163Y025730D01*
X014172Y025800D01*
X014163Y025870D01*
X014157Y025884D01*
X014924Y026651D01*
X014971Y026632D01*
Y026556D01*
X015603D01*
Y027256D01*
X015797D01*
Y026556D01*
X016429D01*
Y026748D01*
X017148D01*
Y026462D01*
X017721D01*
Y026510D01*
X018064D01*
X018110Y026519D01*
X018150Y026545D01*
X019267Y027663D01*
X019313Y027643D01*
Y027462D01*
X019714D01*
X019797Y027378D01*
X019777Y027332D01*
X019650D01*
Y027182D01*
X019917D01*
Y027193D01*
X019963Y027212D01*
X020038Y027137D01*
Y026549D01*
X019991Y026530D01*
X019887Y026635D01*
Y026802D01*
X019313D01*
Y026462D01*
X019714D01*
X019823Y026352D01*
X019802Y026302D01*
X019313D01*
Y025961D01*
X019478D01*
Y025802D01*
X019313D01*
Y025754D01*
X019072D01*
X019025Y025745D01*
X018985Y025718D01*
X014864Y021597D01*
X006134D01*
X006087Y021587D01*
X006048Y021561D01*
X005927Y021440D01*
X005900Y021444D01*
X005830Y021435D01*
X005764Y021408D01*
X005707Y021364D01*
X005664Y021308D01*
X005637Y021242D01*
X005628Y021172D01*
X005637Y021101D01*
X005664Y021036D01*
X005707Y020979D01*
X005764Y020936D01*
X005830Y020909D01*
X005900Y020899D01*
X005970Y020909D01*
X006036Y020936D01*
X006093Y020979D01*
X006136Y021036D01*
X006163Y021101D01*
X006172Y021172D01*
X006163Y021242D01*
X006137Y021304D01*
X006185Y021352D01*
X009392D01*
X009412Y021306D01*
X006306Y018200D01*
X006280Y018161D01*
X006270Y018114D01*
Y017892D01*
X006256Y017886D01*
X006200Y017843D01*
X006157Y017786D01*
X006130Y017720D01*
X006120Y017650D01*
X006130Y017580D01*
X006157Y017514D01*
X006200Y017457D01*
X006256Y017414D01*
X006322Y017387D01*
X006393Y017378D01*
X006463Y017387D01*
X006529Y017414D01*
X006585Y017457D01*
X006628Y017514D01*
X006656Y017580D01*
X006665Y017650D01*
X006656Y017720D01*
X006628Y017786D01*
X006585Y017843D01*
X006529Y017886D01*
X006515Y017892D01*
Y018063D01*
X009622Y021170D01*
X012010D01*
X012028Y021120D01*
X011994Y021076D01*
X011968Y021014D01*
X010342D01*
X010295Y021005D01*
X010255Y020978D01*
X010040Y020763D01*
X009970Y020772D01*
X009900Y020763D01*
X009834Y020736D01*
X009777Y020693D01*
X009734Y020636D01*
X009707Y020570D01*
X009698Y020500D01*
X009707Y020430D01*
X009734Y020364D01*
X009777Y020307D01*
X009834Y020264D01*
X009900Y020237D01*
X009970Y020228D01*
X010040Y020237D01*
X010106Y020264D01*
X010163Y020307D01*
X010206Y020364D01*
X010233Y020430D01*
X010242Y020500D01*
X010233Y020570D01*
X010221Y020598D01*
X010393Y020770D01*
X012020D01*
X012037Y020747D01*
X012094Y020704D01*
X012160Y020677D01*
X012230Y020668D01*
X012300Y020677D01*
X012366Y020704D01*
X012423Y020747D01*
X012466Y020804D01*
X012493Y020870D01*
X012502Y020940D01*
X012493Y021010D01*
X012466Y021076D01*
X012432Y021120D01*
X012450Y021170D01*
X012557D01*
X012673Y021054D01*
X012667Y021040D01*
X012658Y020970D01*
X012667Y020900D01*
X012694Y020834D01*
X012737Y020777D01*
X012794Y020734D01*
X012860Y020707D01*
X012930Y020698D01*
X013000Y020707D01*
X013066Y020734D01*
X013123Y020777D01*
X013166Y020834D01*
X013193Y020900D01*
X013202Y020970D01*
X013193Y021040D01*
X013166Y021106D01*
X013123Y021163D01*
X013066Y021206D01*
X013000Y021233D01*
X012930Y021242D01*
X012860Y021233D01*
X012846Y021227D01*
X012767Y021306D01*
X012786Y021352D01*
X014693D01*
X014703Y021302D01*
X014664Y021286D01*
X014607Y021243D01*
X014564Y021186D01*
X014563Y021183D01*
X014331D01*
X014280Y021172D01*
X014237Y021144D01*
X013396Y020303D01*
X010601D01*
X010550Y020292D01*
X010507Y020264D01*
X007426Y017183D01*
X006037D01*
X006036Y017186D01*
X005993Y017243D01*
X005936Y017286D01*
X005870Y017313D01*
X005800Y017322D01*
X005730Y017313D01*
X005664Y017286D01*
X005607Y017243D01*
X005564Y017186D01*
X005537Y017120D01*
X005528Y017050D01*
X005537Y016980D01*
X005564Y016914D01*
X005607Y016857D01*
X005664Y016814D01*
X005730Y016787D01*
X005800Y016778D01*
X005870Y016787D01*
X005936Y016814D01*
X005993Y016857D01*
X006036Y016914D01*
X006037Y016917D01*
X007481D01*
X007532Y016928D01*
X007575Y016956D01*
X010656Y020037D01*
X013451D01*
X013502Y020048D01*
X013545Y020076D01*
X014386Y020917D01*
X014563D01*
X014564Y020914D01*
X014607Y020857D01*
X014664Y020814D01*
X014730Y020787D01*
X014800Y020778D01*
X014870Y020787D01*
X014936Y020814D01*
X014993Y020857D01*
X015036Y020914D01*
X015037Y020917D01*
X015442D01*
X016953Y019406D01*
X016996Y019378D01*
X017047Y019367D01*
X017347D01*
X017364Y019322D01*
X017364Y019317D01*
X017289Y019261D01*
X017262Y019224D01*
X014650D01*
Y019690D01*
X013809D01*
Y018310D01*
X014650D01*
Y018776D01*
X017262D01*
X017289Y018739D01*
X017366Y018681D01*
X017455Y018644D01*
X017550Y018632D01*
X017645Y018644D01*
X017734Y018681D01*
X017811Y018739D01*
X017869Y018816D01*
X017906Y018905D01*
X017918Y019000D01*
X017906Y019095D01*
X017869Y019184D01*
X017811Y019261D01*
X017736Y019317D01*
X017736Y019322D01*
X017753Y019367D01*
X017995D01*
X018216Y019147D01*
X018194Y019095D01*
X018182Y019000D01*
X018194Y018905D01*
X018231Y018816D01*
X018289Y018739D01*
X018366Y018681D01*
X018455Y018644D01*
X018550Y018632D01*
X018645Y018644D01*
X018734Y018681D01*
X018811Y018739D01*
X018869Y018816D01*
X018906Y018905D01*
X018918Y019000D01*
X018906Y019095D01*
X018869Y019184D01*
X018811Y019261D01*
X018734Y019319D01*
X018690Y019337D01*
X018700Y019387D01*
X020475D01*
X023499Y016363D01*
Y012997D01*
X023496Y012996D01*
X023370Y012944D01*
X023261Y012861D01*
X023178Y012752D01*
X023125Y012626D01*
X023107Y012490D01*
X023125Y012354D01*
X023178Y012228D01*
X023261Y012119D01*
X023370Y012036D01*
X023496Y011983D01*
X023632Y011965D01*
X023768Y011983D01*
X023894Y012036D01*
X024003Y012119D01*
X024086Y012228D01*
X024107Y012278D01*
X024157D01*
X024178Y012228D01*
X024261Y012119D01*
X024370Y012036D01*
X024496Y011983D01*
X024632Y011965D01*
X024768Y011983D01*
X024894Y012036D01*
X025003Y012119D01*
X025086Y012228D01*
X025139Y012354D01*
X025156Y012490D01*
X025139Y012626D01*
X025086Y012752D01*
X025003Y012861D01*
X024894Y012944D01*
X024768Y012996D01*
X024764Y012997D01*
Y015848D01*
X024754Y015899D01*
X024726Y015942D01*
X024559Y016109D01*
X024564Y016132D01*
X024581Y016157D01*
X026675D01*
X026675Y016154D01*
X026728Y016028D01*
X026811Y015919D01*
X026920Y015836D01*
X026931Y015831D01*
X026931Y015781D01*
X026905Y015770D01*
X026790Y015682D01*
X026701Y015567D01*
X026646Y015433D01*
X026634Y015340D01*
X027730D01*
X027718Y015433D01*
X027662Y015567D01*
X027574Y015682D01*
X027459Y015770D01*
X027433Y015781D01*
X027433Y015831D01*
X027444Y015836D01*
X027553Y015919D01*
X027636Y016028D01*
X027689Y016154D01*
X027706Y016290D01*
X027689Y016426D01*
X027636Y016552D01*
X027553Y016661D01*
X027444Y016744D01*
X027318Y016796D01*
X027182Y016814D01*
X027046Y016796D01*
X026920Y016744D01*
X026811Y016661D01*
X026728Y016552D01*
X026675Y016426D01*
X026675Y016422D01*
X024625D01*
X022233Y018815D01*
Y021763D01*
X022236Y021764D01*
X022293Y021807D01*
X022336Y021864D01*
X022363Y021930D01*
X022372Y022000D01*
X022363Y022070D01*
X022336Y022136D01*
X022293Y022193D01*
X022236Y022236D01*
X022170Y022263D01*
X022100Y022272D01*
X022030Y022263D01*
X021964Y022236D01*
X021907Y022193D01*
X021864Y022136D01*
X021837Y022070D01*
X021828Y022000D01*
X021837Y021930D01*
X021864Y021864D01*
X021907Y021807D01*
X021964Y021764D01*
X021967Y021763D01*
Y021154D01*
X021922Y021138D01*
X021917Y021138D01*
X021876Y021193D01*
X021819Y021236D01*
X021754Y021263D01*
X021683Y021272D01*
X021613Y021263D01*
X021547Y021236D01*
X021491Y021193D01*
X021447Y021136D01*
X021420Y021070D01*
X021411Y021000D01*
X021420Y020930D01*
X021447Y020864D01*
X021491Y020807D01*
X021547Y020764D01*
X021551Y020763D01*
Y018797D01*
X021561Y018746D01*
X021519Y018718D01*
X020624Y019614D01*
X020581Y019642D01*
X020530Y019653D01*
X018779D01*
X018762Y019703D01*
X018811Y019739D01*
X018869Y019816D01*
X018884Y019852D01*
X019260D01*
X019317Y019863D01*
X019365Y019895D01*
X021275Y021805D01*
X021307Y021853D01*
X021318Y021910D01*
Y028430D01*
X021307Y028487D01*
X021275Y028535D01*
X019605Y030204D01*
X019624Y030250D01*
X031323D01*
X031356Y030213D01*
X031347Y030117D01*
X031360Y029979D01*
X031400Y029847D01*
X031465Y029726D01*
X031553Y029619D01*
X031659Y029532D01*
X031781Y029467D01*
X031913Y029427D01*
X032050Y029413D01*
X032187Y029427D01*
X032319Y029467D01*
X032441Y029532D01*
X032547Y029619D01*
X032635Y029726D01*
X032700Y029847D01*
X032740Y029979D01*
X032753Y030117D01*
X032744Y030213D01*
X032777Y030250D01*
X034089D01*
X034740Y029740D01*
D02*
G37*
G36*
X019313Y025461D02*
X019868D01*
Y025203D01*
X017973Y023309D01*
X017947Y023269D01*
X017938Y023222D01*
Y023149D01*
X017888Y023139D01*
X017869Y023184D01*
X017811Y023261D01*
X017734Y023319D01*
X017645Y023356D01*
X017550Y023368D01*
X017455Y023356D01*
X017366Y023319D01*
X017289Y023261D01*
X017231Y023184D01*
X017194Y023095D01*
X017182Y023000D01*
X017194Y022905D01*
X017231Y022816D01*
X017289Y022739D01*
X017366Y022681D01*
X017455Y022644D01*
X017550Y022632D01*
X017645Y022644D01*
X017734Y022681D01*
X017811Y022739D01*
X017869Y022816D01*
X017888Y022861D01*
X017938Y022851D01*
Y022149D01*
X017888Y022139D01*
X017869Y022184D01*
X017811Y022261D01*
X017734Y022319D01*
X017645Y022356D01*
X017550Y022368D01*
X017455Y022356D01*
X017366Y022319D01*
X017289Y022261D01*
X017231Y022184D01*
X017194Y022095D01*
X017182Y022000D01*
X017194Y021905D01*
X017231Y021816D01*
X017289Y021739D01*
X017366Y021681D01*
X017455Y021644D01*
X017550Y021632D01*
X017645Y021644D01*
X017734Y021681D01*
X017811Y021739D01*
X017869Y021816D01*
X017888Y021861D01*
X017938Y021851D01*
Y021561D01*
X017707Y021330D01*
X017645Y021356D01*
X017550Y021368D01*
X017455Y021356D01*
X017366Y021319D01*
X017289Y021261D01*
X017231Y021184D01*
X017194Y021095D01*
X017182Y021000D01*
X017194Y020905D01*
X017231Y020816D01*
X017289Y020739D01*
X017366Y020681D01*
X017455Y020644D01*
X017550Y020632D01*
X017645Y020644D01*
X017697Y020666D01*
X017917Y020445D01*
Y020203D01*
X017872Y020186D01*
X017867Y020186D01*
X017811Y020261D01*
X017734Y020319D01*
X017645Y020356D01*
X017550Y020368D01*
X017455Y020356D01*
X017366Y020319D01*
X017289Y020261D01*
X017231Y020184D01*
X017194Y020095D01*
X017182Y020000D01*
X017194Y019905D01*
X017231Y019816D01*
X017289Y019739D01*
X017364Y019683D01*
X017364Y019678D01*
X017347Y019633D01*
X017102D01*
X015591Y021144D01*
X015548Y021172D01*
X015497Y021183D01*
X015037D01*
X015036Y021186D01*
X014993Y021243D01*
X014936Y021286D01*
X014897Y021302D01*
X014907Y021352D01*
X014914D01*
X014961Y021361D01*
X015001Y021388D01*
X019123Y025510D01*
X019313D01*
Y025461D01*
D02*
G37*
G36*
X020258Y024864D02*
Y022843D01*
X019537Y022122D01*
X018895D01*
X018869Y022184D01*
X018811Y022261D01*
X018734Y022319D01*
X018645Y022356D01*
X018550Y022368D01*
X018455Y022356D01*
X018366Y022319D01*
X018289Y022261D01*
X018232Y022186D01*
X018227Y022186D01*
X018182Y022200D01*
Y022800D01*
X018227Y022814D01*
X018232Y022814D01*
X018289Y022739D01*
X018366Y022681D01*
X018455Y022644D01*
X018550Y022632D01*
X018645Y022644D01*
X018734Y022681D01*
X018811Y022739D01*
X018869Y022816D01*
X018906Y022905D01*
X018918Y023000D01*
X018906Y023095D01*
X018869Y023184D01*
X018811Y023261D01*
X018734Y023319D01*
X018719Y023325D01*
X018707Y023384D01*
X020208Y024885D01*
X020258Y024864D01*
D02*
G37*
G36*
X024499Y015793D02*
Y012997D01*
X024496Y012996D01*
X024370Y012944D01*
X024261Y012861D01*
X024178Y012752D01*
X024157Y012702D01*
X024107D01*
X024086Y012752D01*
X024003Y012861D01*
X023894Y012944D01*
X023768Y012996D01*
X023764Y012997D01*
Y016418D01*
X023754Y016469D01*
X023796Y016497D01*
X024499Y015793D01*
D02*
G37*
%LPC*%
G36*
X005200Y029024D02*
X005090Y029009D01*
X004988Y028967D01*
X004900Y028900D01*
X004833Y028812D01*
X004791Y028710D01*
X004776Y028600D01*
X004791Y028490D01*
X004833Y028388D01*
X004900Y028300D01*
X004988Y028233D01*
X005090Y028191D01*
X005200Y028176D01*
X005310Y028191D01*
X005412Y028233D01*
X005500Y028300D01*
X005567Y028388D01*
X005609Y028490D01*
X005624Y028600D01*
X005609Y028710D01*
X005567Y028812D01*
X005500Y028900D01*
X005412Y028967D01*
X005310Y029009D01*
X005200Y029024D01*
D02*
G37*
G36*
X003200Y029034D02*
X003088Y029019D01*
X002983Y028976D01*
X002893Y028907D01*
X002824Y028817D01*
X002781Y028712D01*
X002766Y028600D01*
X002781Y028488D01*
X002824Y028383D01*
X002893Y028293D01*
X002983Y028224D01*
X003088Y028181D01*
X003200Y028166D01*
X003312Y028181D01*
X003417Y028224D01*
X003507Y028293D01*
X003576Y028383D01*
X003619Y028488D01*
X003634Y028600D01*
X003619Y028712D01*
X003576Y028817D01*
X003507Y028907D01*
X003417Y028976D01*
X003312Y029019D01*
X003200Y029034D01*
D02*
G37*
G36*
X016512Y028296D02*
Y028050D01*
X016758D01*
X016754Y028078D01*
X016724Y028151D01*
X016676Y028214D01*
X016613Y028262D01*
X016540Y028292D01*
X016512Y028296D01*
D02*
G37*
G36*
X016412D02*
X016384Y028292D01*
X016311Y028262D01*
X016248Y028214D01*
X016200Y028151D01*
X016170Y028078D01*
X016166Y028050D01*
X016412D01*
Y028296D01*
D02*
G37*
G36*
X016758Y027950D02*
X016512D01*
Y027704D01*
X016540Y027708D01*
X016613Y027738D01*
X016676Y027786D01*
X016724Y027849D01*
X016754Y027922D01*
X016758Y027950D01*
D02*
G37*
G36*
X016412D02*
X016166D01*
X016170Y027922D01*
X016200Y027849D01*
X016248Y027786D01*
X016311Y027738D01*
X016384Y027708D01*
X016412Y027704D01*
Y027950D01*
D02*
G37*
G36*
X003250Y028057D02*
Y027650D01*
X003657D01*
X003648Y027720D01*
X003602Y027832D01*
X003528Y027928D01*
X003432Y028002D01*
X003320Y028048D01*
X003250Y028057D01*
D02*
G37*
G36*
X003150D02*
X003080Y028048D01*
X002968Y028002D01*
X002872Y027928D01*
X002798Y027832D01*
X002752Y027720D01*
X002743Y027650D01*
X003150D01*
Y028057D01*
D02*
G37*
G36*
X019550Y027332D02*
X019283D01*
Y027182D01*
X019550D01*
Y027332D01*
D02*
G37*
G36*
X005200Y028024D02*
X005090Y028009D01*
X004988Y027967D01*
X004900Y027900D01*
X004833Y027812D01*
X004791Y027710D01*
X004776Y027600D01*
X004791Y027490D01*
X004833Y027388D01*
X004900Y027300D01*
X004988Y027233D01*
X005090Y027191D01*
X005200Y027176D01*
X005310Y027191D01*
X005412Y027233D01*
X005500Y027300D01*
X005567Y027388D01*
X005609Y027490D01*
X005624Y027600D01*
X005609Y027710D01*
X005567Y027812D01*
X005500Y027900D01*
X005412Y027967D01*
X005310Y028009D01*
X005200Y028024D01*
D02*
G37*
G36*
X002200Y028034D02*
X002088Y028019D01*
X001983Y027976D01*
X001893Y027907D01*
X001824Y027817D01*
X001781Y027712D01*
X001766Y027600D01*
X001781Y027488D01*
X001824Y027383D01*
X001893Y027293D01*
X001983Y027224D01*
X002088Y027181D01*
X002200Y027166D01*
X002312Y027181D01*
X002417Y027224D01*
X002507Y027293D01*
X002576Y027383D01*
X002619Y027488D01*
X002634Y027600D01*
X002619Y027712D01*
X002576Y027817D01*
X002507Y027907D01*
X002417Y027976D01*
X002312Y028019D01*
X002200Y028034D01*
D02*
G37*
G36*
X001200D02*
X001088Y028019D01*
X000983Y027976D01*
X000893Y027907D01*
X000824Y027817D01*
X000781Y027712D01*
X000766Y027600D01*
X000781Y027488D01*
X000824Y027383D01*
X000893Y027293D01*
X000983Y027224D01*
X001088Y027181D01*
X001200Y027166D01*
X001312Y027181D01*
X001417Y027224D01*
X001507Y027293D01*
X001576Y027383D01*
X001619Y027488D01*
X001634Y027600D01*
X001619Y027712D01*
X001576Y027817D01*
X001507Y027907D01*
X001417Y027976D01*
X001312Y028019D01*
X001200Y028034D01*
D02*
G37*
G36*
X003657Y027550D02*
X003250D01*
Y027143D01*
X003320Y027152D01*
X003432Y027198D01*
X003528Y027272D01*
X003602Y027368D01*
X003648Y027480D01*
X003657Y027550D01*
D02*
G37*
G36*
X003150D02*
X002743D01*
X002752Y027480D01*
X002798Y027368D01*
X002872Y027272D01*
X002968Y027198D01*
X003080Y027152D01*
X003150Y027143D01*
Y027550D01*
D02*
G37*
G36*
X019917Y027082D02*
X019650D01*
Y026932D01*
X019917D01*
Y027082D01*
D02*
G37*
G36*
X019550D02*
X019283D01*
Y026932D01*
X019550D01*
Y027082D01*
D02*
G37*
G36*
X025500Y027098D02*
X024100D01*
X024043Y027087D01*
X023995Y027055D01*
X023595Y026655D01*
X023563Y026607D01*
X023552Y026550D01*
Y021377D01*
X023507Y021343D01*
X023464Y021286D01*
X023437Y021220D01*
X023428Y021150D01*
X023437Y021080D01*
X023464Y021014D01*
X023507Y020957D01*
X023564Y020914D01*
X023630Y020887D01*
X023700Y020878D01*
X023770Y020887D01*
X023836Y020914D01*
X023893Y020957D01*
X023936Y021014D01*
X023963Y021080D01*
X023972Y021150D01*
X023963Y021220D01*
X023936Y021286D01*
X023893Y021343D01*
X023848Y021377D01*
Y026489D01*
X024161Y026802D01*
X025439D01*
X025784Y026457D01*
Y026291D01*
X025670Y026244D01*
X025561Y026161D01*
X025478Y026052D01*
X025457Y026002D01*
X025407D01*
X025386Y026052D01*
X025303Y026161D01*
X025194Y026244D01*
X025068Y026296D01*
X024932Y026314D01*
X024796Y026296D01*
X024670Y026244D01*
X024561Y026161D01*
X024478Y026052D01*
X024425Y025926D01*
X024407Y025790D01*
X024425Y025654D01*
X024478Y025528D01*
X024561Y025419D01*
X024670Y025336D01*
X024720Y025315D01*
Y025265D01*
X024670Y025244D01*
X024561Y025161D01*
X024478Y025052D01*
X024425Y024926D01*
X024407Y024790D01*
X024425Y024654D01*
X024478Y024528D01*
X024561Y024419D01*
X024670Y024336D01*
X024796Y024283D01*
X024932Y024265D01*
X025068Y024283D01*
X025194Y024336D01*
X025303Y024419D01*
X025386Y024528D01*
X025407Y024578D01*
X025457D01*
X025478Y024528D01*
X025561Y024419D01*
X025670Y024336D01*
X025796Y024283D01*
X025932Y024265D01*
X026068Y024283D01*
X026194Y024336D01*
X026303Y024419D01*
X026386Y024528D01*
X026391Y024539D01*
X026441Y024539D01*
X026451Y024512D01*
X026540Y024398D01*
X026655Y024309D01*
X026788Y024254D01*
X026882Y024242D01*
Y024790D01*
X026932D01*
Y024840D01*
X027480D01*
X027468Y024933D01*
X027412Y025067D01*
X027324Y025182D01*
X027209Y025270D01*
X027183Y025281D01*
Y025331D01*
X027194Y025336D01*
X027303Y025419D01*
X027386Y025528D01*
X027439Y025654D01*
X027456Y025790D01*
X027439Y025926D01*
X027386Y026052D01*
X027303Y026161D01*
X027194Y026244D01*
X027068Y026296D01*
X026932Y026314D01*
X026796Y026296D01*
X026670Y026244D01*
X026561Y026161D01*
X026478Y026052D01*
X026457Y026002D01*
X026407D01*
X026386Y026052D01*
X026303Y026161D01*
X026194Y026244D01*
X026080Y026291D01*
Y026518D01*
X026068Y026575D01*
X026036Y026623D01*
X025605Y027055D01*
X025557Y027087D01*
X025500Y027098D01*
D02*
G37*
G36*
X017721Y026302D02*
X017148D01*
Y025961D01*
X017312D01*
Y025802D01*
X017148D01*
Y025635D01*
X016736Y025222D01*
X016442D01*
X016436Y025236D01*
X016393Y025293D01*
X016336Y025336D01*
X016270Y025363D01*
X016200Y025372D01*
X016130Y025363D01*
X016064Y025336D01*
X016007Y025293D01*
X015964Y025236D01*
X015937Y025170D01*
X015928Y025100D01*
X015937Y025030D01*
X015964Y024964D01*
X016007Y024907D01*
X016064Y024864D01*
X016130Y024837D01*
X016200Y024828D01*
X016270Y024837D01*
X016336Y024864D01*
X016393Y024907D01*
X016436Y024964D01*
X016442Y024978D01*
X016787D01*
X016833Y024987D01*
X016873Y025013D01*
X017321Y025461D01*
X017721D01*
Y025802D01*
X017557D01*
Y025961D01*
X017721D01*
Y026302D01*
D02*
G37*
G36*
X030932Y024996D02*
Y024750D01*
X031178D01*
X031174Y024778D01*
X031144Y024851D01*
X031096Y024914D01*
X031033Y024962D01*
X030960Y024992D01*
X030932Y024996D01*
D02*
G37*
G36*
X030832D02*
X030804Y024992D01*
X030731Y024962D01*
X030668Y024914D01*
X030620Y024851D01*
X030590Y024778D01*
X030586Y024750D01*
X030832D01*
Y024996D01*
D02*
G37*
G36*
X012623Y025325D02*
X011991D01*
Y025093D01*
X008891D01*
X008841Y025082D01*
X008798Y025054D01*
X008405Y024662D01*
X008402Y024663D01*
X008331Y024672D01*
X008261Y024663D01*
X008195Y024636D01*
X008139Y024593D01*
X008095Y024536D01*
X008068Y024470D01*
X008059Y024400D01*
X008068Y024330D01*
X008095Y024264D01*
X008139Y024207D01*
X008195Y024164D01*
X008261Y024137D01*
X008331Y024128D01*
X008402Y024137D01*
X008467Y024164D01*
X008524Y024207D01*
X008567Y024264D01*
X008594Y024330D01*
X008604Y024400D01*
X008594Y024470D01*
X008593Y024474D01*
X008946Y024827D01*
X011991D01*
Y024595D01*
X012623D01*
Y025325D01*
D02*
G37*
G36*
X005960Y024746D02*
Y024500D01*
X006206D01*
X006203Y024528D01*
X006172Y024601D01*
X006124Y024664D01*
X006062Y024712D01*
X005989Y024742D01*
X005960Y024746D01*
D02*
G37*
G36*
X005860D02*
X005832Y024742D01*
X005759Y024712D01*
X005696Y024664D01*
X005648Y024601D01*
X005618Y024528D01*
X005614Y024500D01*
X005860D01*
Y024746D01*
D02*
G37*
G36*
X031178Y024650D02*
X030932D01*
Y024404D01*
X030960Y024408D01*
X031033Y024438D01*
X031096Y024486D01*
X031144Y024549D01*
X031174Y024622D01*
X031178Y024650D01*
D02*
G37*
G36*
X030832D02*
X030586D01*
X030590Y024622D01*
X030620Y024549D01*
X030668Y024486D01*
X030731Y024438D01*
X030804Y024408D01*
X030832Y024404D01*
Y024650D01*
D02*
G37*
G36*
X027480Y024740D02*
X026982D01*
Y024242D01*
X027075Y024254D01*
X027209Y024309D01*
X027324Y024398D01*
X027412Y024512D01*
X027468Y024646D01*
X027480Y024740D01*
D02*
G37*
G36*
X006206Y024400D02*
X005960D01*
Y024154D01*
X005989Y024158D01*
X006062Y024188D01*
X006124Y024236D01*
X006172Y024299D01*
X006203Y024372D01*
X006206Y024400D01*
D02*
G37*
G36*
X005860D02*
X005614D01*
X005618Y024372D01*
X005648Y024299D01*
X005696Y024236D01*
X005759Y024188D01*
X005832Y024158D01*
X005860Y024154D01*
Y024400D01*
D02*
G37*
G36*
X007100Y024672D02*
X007030Y024663D01*
X006964Y024636D01*
X006907Y024593D01*
X006864Y024536D01*
X006837Y024470D01*
X006828Y024400D01*
X006837Y024330D01*
X006864Y024264D01*
X006907Y024207D01*
X006964Y024164D01*
X007030Y024137D01*
X007100Y024128D01*
X007104Y024128D01*
X007446Y023786D01*
X007489Y023758D01*
X007540Y023747D01*
X011991D01*
Y023515D01*
X012623D01*
Y024245D01*
X011991D01*
Y024013D01*
X007595D01*
X007338Y024269D01*
X007363Y024330D01*
X007372Y024400D01*
X007363Y024470D01*
X007336Y024536D01*
X007293Y024593D01*
X007236Y024636D01*
X007170Y024663D01*
X007100Y024672D01*
D02*
G37*
G36*
X011050Y023346D02*
Y023100D01*
X011296D01*
X011292Y023128D01*
X011262Y023201D01*
X011214Y023264D01*
X011151Y023312D01*
X011078Y023342D01*
X011050Y023346D01*
D02*
G37*
G36*
X010950D02*
X010922Y023342D01*
X010849Y023312D01*
X010786Y023264D01*
X010738Y023201D01*
X010708Y023128D01*
X010704Y023100D01*
X010950D01*
Y023346D01*
D02*
G37*
G36*
X003950Y023196D02*
Y022950D01*
X004196D01*
X004192Y022978D01*
X004162Y023051D01*
X004114Y023114D01*
X004051Y023162D01*
X003978Y023192D01*
X003950Y023196D01*
D02*
G37*
G36*
X003850D02*
X003822Y023192D01*
X003749Y023162D01*
X003686Y023114D01*
X003638Y023051D01*
X003608Y022978D01*
X003604Y022950D01*
X003850D01*
Y023196D01*
D02*
G37*
G36*
X011296Y023000D02*
X011050D01*
Y022754D01*
X011078Y022758D01*
X011151Y022788D01*
X011214Y022836D01*
X011262Y022899D01*
X011292Y022972D01*
X011296Y023000D01*
D02*
G37*
G36*
X010950D02*
X010704D01*
X010708Y022972D01*
X010738Y022899D01*
X010786Y022836D01*
X010849Y022788D01*
X010922Y022758D01*
X010950Y022754D01*
Y023000D01*
D02*
G37*
G36*
X004196Y022850D02*
X003950D01*
Y022604D01*
X003978Y022608D01*
X004051Y022638D01*
X004114Y022686D01*
X004162Y022749D01*
X004192Y022822D01*
X004196Y022850D01*
D02*
G37*
G36*
X003850D02*
X003604D01*
X003608Y022822D01*
X003638Y022749D01*
X003686Y022686D01*
X003749Y022638D01*
X003822Y022608D01*
X003850Y022604D01*
Y022850D01*
D02*
G37*
G36*
X008185Y018946D02*
Y018700D01*
X008431D01*
X008427Y018728D01*
X008397Y018801D01*
X008349Y018864D01*
X008286Y018912D01*
X008213Y018942D01*
X008185Y018946D01*
D02*
G37*
G36*
X008085D02*
X008056Y018942D01*
X007983Y018912D01*
X007921Y018864D01*
X007873Y018801D01*
X007842Y018728D01*
X007839Y018700D01*
X008085D01*
Y018946D01*
D02*
G37*
G36*
X008431Y018600D02*
X008185D01*
Y018354D01*
X008213Y018358D01*
X008286Y018388D01*
X008349Y018436D01*
X008397Y018499D01*
X008427Y018572D01*
X008431Y018600D01*
D02*
G37*
G36*
X008085D02*
X007839D01*
X007842Y018572D01*
X007873Y018499D01*
X007921Y018436D01*
X007983Y018388D01*
X008056Y018358D01*
X008085Y018354D01*
Y018600D01*
D02*
G37*
G36*
X017600Y018392D02*
Y018050D01*
X017942D01*
X017935Y018103D01*
X017895Y018199D01*
X017832Y018282D01*
X017749Y018345D01*
X017653Y018385D01*
X017600Y018392D01*
D02*
G37*
G36*
X017500D02*
X017447Y018385D01*
X017351Y018345D01*
X017268Y018282D01*
X017205Y018199D01*
X017165Y018103D01*
X017158Y018050D01*
X017500D01*
Y018392D01*
D02*
G37*
G36*
X018550Y018368D02*
X018455Y018356D01*
X018366Y018319D01*
X018289Y018261D01*
X018231Y018184D01*
X018194Y018095D01*
X018182Y018000D01*
X018194Y017905D01*
X018231Y017816D01*
X018289Y017739D01*
X018366Y017681D01*
X018455Y017644D01*
X018550Y017632D01*
X018645Y017644D01*
X018734Y017681D01*
X018811Y017739D01*
X018869Y017816D01*
X018906Y017905D01*
X018918Y018000D01*
X018906Y018095D01*
X018869Y018184D01*
X018811Y018261D01*
X018734Y018319D01*
X018645Y018356D01*
X018550Y018368D01*
D02*
G37*
G36*
X017942Y017950D02*
X017600D01*
Y017608D01*
X017653Y017615D01*
X017749Y017655D01*
X017832Y017718D01*
X017895Y017801D01*
X017935Y017897D01*
X017942Y017950D01*
D02*
G37*
G36*
X017500D02*
X017158D01*
X017165Y017897D01*
X017205Y017801D01*
X017268Y017718D01*
X017351Y017655D01*
X017447Y017615D01*
X017500Y017608D01*
Y017950D01*
D02*
G37*
G36*
X018550Y017368D02*
X018455Y017356D01*
X018366Y017319D01*
X018289Y017261D01*
X018231Y017184D01*
X018194Y017095D01*
X018182Y017000D01*
X018194Y016905D01*
X018231Y016816D01*
X018289Y016739D01*
X018366Y016681D01*
X018455Y016644D01*
X018550Y016632D01*
X018645Y016644D01*
X018734Y016681D01*
X018811Y016739D01*
X018869Y016816D01*
X018906Y016905D01*
X018918Y017000D01*
X018906Y017095D01*
X018869Y017184D01*
X018811Y017261D01*
X018734Y017319D01*
X018645Y017356D01*
X018550Y017368D01*
D02*
G37*
G36*
X017550D02*
X017455Y017356D01*
X017366Y017319D01*
X017289Y017261D01*
X017231Y017184D01*
X017194Y017095D01*
X017182Y017000D01*
X017194Y016905D01*
X017231Y016816D01*
X017289Y016739D01*
X017366Y016681D01*
X017455Y016644D01*
X017550Y016632D01*
X017645Y016644D01*
X017734Y016681D01*
X017811Y016739D01*
X017869Y016816D01*
X017906Y016905D01*
X017918Y017000D01*
X017906Y017095D01*
X017869Y017184D01*
X017811Y017261D01*
X017734Y017319D01*
X017645Y017356D01*
X017550Y017368D01*
D02*
G37*
G36*
X017945Y016395D02*
X017600D01*
Y016050D01*
X017945D01*
Y016395D01*
D02*
G37*
G36*
X017500D02*
X017155D01*
Y016050D01*
X017500D01*
Y016395D01*
D02*
G37*
G36*
X018550Y016368D02*
X018455Y016356D01*
X018366Y016319D01*
X018289Y016261D01*
X018231Y016184D01*
X018194Y016095D01*
X018182Y016000D01*
X018194Y015905D01*
X018231Y015816D01*
X018289Y015739D01*
X018366Y015681D01*
X018455Y015644D01*
X018550Y015632D01*
X018645Y015644D01*
X018734Y015681D01*
X018811Y015739D01*
X018869Y015816D01*
X018906Y015905D01*
X018918Y016000D01*
X018906Y016095D01*
X018869Y016184D01*
X018811Y016261D01*
X018734Y016319D01*
X018645Y016356D01*
X018550Y016368D01*
D02*
G37*
G36*
X017945Y015950D02*
X017600D01*
Y015605D01*
X017945D01*
Y015950D01*
D02*
G37*
G36*
X017500D02*
X017155D01*
Y015605D01*
X017500D01*
Y015950D01*
D02*
G37*
G36*
X013129Y015803D02*
X012497D01*
Y015072D01*
X013129D01*
Y015803D01*
D02*
G37*
G36*
X008750Y016322D02*
X008680Y016313D01*
X008614Y016286D01*
X008557Y016243D01*
X008514Y016186D01*
X008487Y016120D01*
X008478Y016050D01*
X008487Y015980D01*
X008514Y015914D01*
X008557Y015857D01*
X008614Y015814D01*
X008680Y015787D01*
X008750Y015778D01*
X008820Y015787D01*
X008834Y015793D01*
X009276Y015351D01*
X009316Y015324D01*
X009362Y015315D01*
X011671D01*
Y015072D01*
X012303D01*
Y015803D01*
X011671D01*
Y015560D01*
X009413D01*
X009007Y015966D01*
X009013Y015980D01*
X009022Y016050D01*
X009013Y016120D01*
X008986Y016186D01*
X008943Y016243D01*
X008886Y016286D01*
X008820Y016313D01*
X008750Y016322D01*
D02*
G37*
G36*
X027730Y015240D02*
X027232D01*
Y014742D01*
X027325Y014754D01*
X027459Y014809D01*
X027574Y014898D01*
X027662Y015012D01*
X027718Y015146D01*
X027730Y015240D01*
D02*
G37*
G36*
X027132D02*
X026634D01*
X026646Y015146D01*
X026701Y015012D01*
X026790Y014898D01*
X026905Y014809D01*
X027038Y014754D01*
X027132Y014742D01*
Y015240D01*
D02*
G37*
G36*
X013129Y014490D02*
X012497D01*
Y013760D01*
X013129D01*
Y014490D01*
D02*
G37*
G36*
X008750Y015272D02*
X008680Y015263D01*
X008614Y015236D01*
X008557Y015193D01*
X008514Y015136D01*
X008487Y015070D01*
X008478Y015000D01*
X008487Y014930D01*
X008514Y014864D01*
X008557Y014807D01*
X008614Y014764D01*
X008680Y014737D01*
X008750Y014728D01*
X008820Y014737D01*
X008834Y014743D01*
X009538Y014038D01*
X009578Y014012D01*
X009625Y014003D01*
X011671D01*
Y013760D01*
X012303D01*
Y014490D01*
X011671D01*
Y014247D01*
X009676D01*
X009007Y014916D01*
X009013Y014930D01*
X009022Y015000D01*
X009013Y015070D01*
X008986Y015136D01*
X008943Y015193D01*
X008886Y015236D01*
X008820Y015263D01*
X008750Y015272D01*
D02*
G37*
G36*
X006670Y013696D02*
Y013450D01*
X006916D01*
X006912Y013478D01*
X006882Y013551D01*
X006834Y013614D01*
X006771Y013662D01*
X006698Y013692D01*
X006670Y013696D01*
D02*
G37*
G36*
X006570D02*
X006542Y013692D01*
X006469Y013662D01*
X006406Y013614D01*
X006358Y013551D01*
X006328Y013478D01*
X006324Y013450D01*
X006570D01*
Y013696D01*
D02*
G37*
G36*
X006916Y013350D02*
X006670D01*
Y013104D01*
X006698Y013108D01*
X006771Y013138D01*
X006834Y013186D01*
X006882Y013249D01*
X006912Y013322D01*
X006916Y013350D01*
D02*
G37*
G36*
X006570D02*
X006324D01*
X006328Y013322D01*
X006358Y013249D01*
X006406Y013186D01*
X006469Y013138D01*
X006542Y013108D01*
X006570Y013104D01*
Y013350D01*
D02*
G37*
G36*
X013129Y013178D02*
X012497D01*
Y012447D01*
X013129D01*
Y013178D01*
D02*
G37*
G36*
X008750Y013972D02*
X008680Y013963D01*
X008614Y013936D01*
X008557Y013893D01*
X008514Y013836D01*
X008487Y013770D01*
X008478Y013700D01*
X008487Y013630D01*
X008514Y013564D01*
X008557Y013507D01*
X008614Y013464D01*
X008680Y013437D01*
X008750Y013428D01*
X008820Y013437D01*
X008834Y013443D01*
X009551Y012726D01*
X009591Y012699D01*
X009638Y012690D01*
X011671D01*
Y012447D01*
X012303D01*
Y013178D01*
X011671D01*
Y012935D01*
X009688D01*
X009007Y013616D01*
X009013Y013630D01*
X009022Y013700D01*
X009013Y013770D01*
X008986Y013836D01*
X008943Y013893D01*
X008886Y013936D01*
X008820Y013963D01*
X008750Y013972D01*
D02*
G37*
G36*
X016550Y021681D02*
Y021435D01*
X016796D01*
X016792Y021463D01*
X016762Y021536D01*
X016714Y021599D01*
X016651Y021647D01*
X016578Y021677D01*
X016550Y021681D01*
D02*
G37*
G36*
X016450D02*
X016422Y021677D01*
X016349Y021647D01*
X016286Y021599D01*
X016238Y021536D01*
X016208Y021463D01*
X016204Y021435D01*
X016450D01*
Y021681D01*
D02*
G37*
G36*
X016796Y021335D02*
X016550D01*
Y021089D01*
X016578Y021093D01*
X016651Y021123D01*
X016714Y021171D01*
X016762Y021234D01*
X016792Y021307D01*
X016796Y021335D01*
D02*
G37*
G36*
X016450D02*
X016204D01*
X016208Y021307D01*
X016238Y021234D01*
X016286Y021171D01*
X016349Y021123D01*
X016422Y021093D01*
X016450Y021089D01*
Y021335D01*
D02*
G37*
G36*
X019810Y023805D02*
Y023559D01*
X020056D01*
X020052Y023587D01*
X020022Y023660D01*
X019974Y023722D01*
X019911Y023771D01*
X019838Y023801D01*
X019810Y023805D01*
D02*
G37*
G36*
X019710D02*
X019682Y023801D01*
X019609Y023771D01*
X019546Y023722D01*
X019498Y023660D01*
X019468Y023587D01*
X019464Y023559D01*
X019710D01*
Y023805D01*
D02*
G37*
G36*
X020056Y023459D02*
X019810D01*
Y023213D01*
X019838Y023216D01*
X019911Y023246D01*
X019974Y023295D01*
X020022Y023357D01*
X020052Y023430D01*
X020056Y023459D01*
D02*
G37*
G36*
X019710D02*
X019464D01*
X019468Y023430D01*
X019498Y023357D01*
X019546Y023295D01*
X019609Y023246D01*
X019682Y023216D01*
X019710Y023213D01*
Y023459D01*
D02*
G37*
G36*
X024195Y014946D02*
Y014700D01*
X024441D01*
X024437Y014728D01*
X024407Y014801D01*
X024359Y014864D01*
X024296Y014912D01*
X024223Y014942D01*
X024195Y014946D01*
D02*
G37*
G36*
X024095D02*
X024066Y014942D01*
X023993Y014912D01*
X023931Y014864D01*
X023883Y014801D01*
X023852Y014728D01*
X023849Y014700D01*
X024095D01*
Y014946D01*
D02*
G37*
G36*
X024441Y014600D02*
X024195D01*
Y014354D01*
X024223Y014358D01*
X024296Y014388D01*
X024359Y014436D01*
X024407Y014499D01*
X024437Y014572D01*
X024441Y014600D01*
D02*
G37*
G36*
X024095D02*
X023849D01*
X023852Y014572D01*
X023883Y014499D01*
X023931Y014436D01*
X023993Y014388D01*
X024066Y014358D01*
X024095Y014354D01*
Y014600D01*
D02*
G37*
%LPD*%
D10*
X024632Y012490D02*
Y015848D01*
X021683Y018797D02*
X024632Y015848D01*
X021683Y018797D02*
Y021000D01*
X023632Y012490D02*
Y016418D01*
X020530Y019520D02*
X023632Y016418D01*
X018300Y019520D02*
X020530D01*
X018050Y019500D02*
X018550Y019000D01*
X018050Y019770D02*
X018300Y019520D01*
X018050Y019770D02*
Y020500D01*
X017550Y021000D02*
X018050Y020500D01*
X022100Y018760D02*
Y022000D01*
Y018760D02*
X024570Y016290D01*
X027182D01*
X017047Y019500D02*
X018050D01*
X015497Y021050D02*
X017047Y019500D01*
X014800Y021050D02*
X015497D01*
X007100Y024320D02*
Y024400D01*
X008331D02*
X008891Y024960D01*
X012307D01*
X007100Y024320D02*
X007540Y023880D01*
X012307D01*
X005800Y017050D02*
X007481D01*
X014331Y021050D02*
X014800D01*
X007481Y017050D02*
X010601Y020170D01*
X013451D01*
X014331Y021050D01*
X007187Y001654D02*
X006930D01*
X006844Y001682D01*
X006816Y001711D01*
X006787Y001768D01*
Y001853D01*
X006816Y001911D01*
X006844Y001939D01*
X006930Y001968D01*
X007187D01*
Y001368D01*
X006225Y001825D02*
X006253Y001882D01*
X006310Y001939D01*
X006367Y001968D01*
X006482D01*
X006539Y001939D01*
X006596Y001882D01*
X006625Y001825D01*
X006653Y001739D01*
Y001596D01*
X006625Y001511D01*
X006596Y001454D01*
X006539Y001396D01*
X006482Y001368D01*
X006367D01*
X006310Y001396D01*
X006253Y001454D01*
X006225Y001511D01*
X006056Y001968D02*
Y001368D01*
Y001968D02*
X005799D01*
X005713Y001939D01*
X005685Y001911D01*
X005656Y001853D01*
Y001796D01*
X005685Y001739D01*
X005713Y001711D01*
X005799Y001682D01*
X006056D02*
X005799D01*
X005713Y001654D01*
X005685Y001625D01*
X005656Y001568D01*
Y001482D01*
X005685Y001425D01*
X005713Y001396D01*
X005799Y001368D01*
X006056D01*
X005522Y001853D02*
X005465Y001882D01*
X005379Y001968D01*
Y001368D01*
X004911Y001968D02*
X004996Y001939D01*
X005053Y001853D01*
X005082Y001711D01*
Y001625D01*
X005053Y001482D01*
X004996Y001396D01*
X004911Y001368D01*
X004853D01*
X004768Y001396D01*
X004711Y001482D01*
X004682Y001625D01*
Y001711D01*
X004711Y001853D01*
X004768Y001939D01*
X004853Y001968D01*
X004911D01*
X004519Y001825D02*
Y001853D01*
X004491Y001911D01*
X004462Y001939D01*
X004405Y001968D01*
X004291D01*
X004234Y001939D01*
X004205Y001911D01*
X004176Y001853D01*
Y001796D01*
X004205Y001739D01*
X004262Y001654D01*
X004548Y001368D01*
X004148D01*
X003614Y001968D02*
X003899Y001368D01*
X004014Y001968D02*
X003614D01*
X003479Y001853D02*
X003422Y001882D01*
X003337Y001968D01*
Y001368D01*
X003040Y001853D02*
X002982Y001882D01*
X002897Y001968D01*
Y001368D01*
X007583Y000960D02*
Y000360D01*
Y000960D02*
X007326D01*
X007240Y000931D01*
X007212Y000903D01*
X007183Y000846D01*
Y000788D01*
X007212Y000731D01*
X007240Y000703D01*
X007326Y000674D01*
X007583D01*
X007383D02*
X007183Y000360D01*
X006677Y000960D02*
X007049D01*
Y000360D01*
X006677D01*
X007049Y000674D02*
X006820D01*
X006577Y000960D02*
X006349Y000360D01*
X006120Y000960D02*
X006349Y000360D01*
X005143Y000817D02*
X005172Y000874D01*
X005229Y000931D01*
X005286Y000960D01*
X005400D01*
X005458Y000931D01*
X005515Y000874D01*
X005543Y000817D01*
X005572Y000731D01*
Y000589D01*
X005543Y000503D01*
X005515Y000446D01*
X005458Y000389D01*
X005400Y000360D01*
X005286D01*
X005229Y000389D01*
X005172Y000446D01*
X005143Y000503D01*
X004975Y000846D02*
X004918Y000874D01*
X004832Y000960D01*
Y000360D01*
X004064Y000960D02*
Y000360D01*
Y000960D02*
X003864D01*
X003778Y000931D01*
X003721Y000874D01*
X003692Y000817D01*
X003664Y000731D01*
Y000589D01*
X003692Y000503D01*
X003721Y000446D01*
X003778Y000389D01*
X003864Y000360D01*
X004064D01*
X003529Y000960D02*
Y000360D01*
Y000960D02*
X003301Y000360D01*
X003072Y000960D02*
X003301Y000360D01*
X003072Y000960D02*
Y000360D01*
X002901Y000960D02*
Y000360D01*
X002501Y000960D02*
Y000360D01*
X002901Y000674D02*
X002501D01*
D14*
X017900Y026870D02*
X019162Y028132D01*
X016161Y026870D02*
X017900D01*
X016144Y026888D02*
X016161Y026870D01*
X019716Y026632D02*
X019990Y026358D01*
Y025152D02*
Y026358D01*
X018060Y023222D02*
X019990Y025152D01*
X019716Y027632D02*
X020160Y027188D01*
Y025010D02*
Y027188D01*
X018550Y023400D02*
X020160Y025010D01*
X020380Y022793D02*
Y027339D01*
X019866Y027852D02*
X020380Y027339D01*
X019824Y027880D02*
X019852Y027852D01*
X019866D01*
X019587Y022000D02*
X020380Y022793D01*
X020640Y022170D02*
Y028079D01*
X019866Y028852D02*
X020640Y028079D01*
X019804Y028900D02*
X019852Y028852D01*
X019866D01*
X019470Y021000D02*
X020640Y022170D01*
X017435Y025632D02*
Y026132D01*
Y028132D02*
Y028632D01*
X019600Y028132D02*
Y028632D01*
Y025632D02*
Y026132D01*
X017550Y021000D02*
X018060Y021510D01*
X019600Y026632D02*
X019716D01*
X019600Y027632D02*
X019716D01*
X014575Y028632D02*
X017435D01*
X003160Y025640D02*
Y025660D01*
X018064Y026632D02*
X019312Y027880D01*
X017435Y026632D02*
X018064D01*
X019312Y027880D02*
X019824D01*
X016200Y025100D02*
X016787D01*
X017319Y025632D01*
X017435D01*
X016968Y027132D02*
X017435D01*
X009450Y011500D02*
X011987D01*
X008750Y012200D02*
X009450Y011500D01*
X008750Y012200D02*
Y012250D01*
X009638Y012812D02*
X011987D01*
X008750Y013700D02*
X009638Y012812D01*
X009625Y014125D02*
X011987D01*
X008750Y015000D02*
X009625Y014125D01*
X009362Y015438D02*
X011987D01*
X008750Y016050D02*
X009362Y015438D01*
X013107Y021990D02*
Y025967D01*
X013900Y025800D02*
X014988Y026888D01*
X015300D01*
X005900Y021172D02*
Y021240D01*
X019162Y028132D02*
X019600D01*
X017435Y027632D02*
X017582D01*
X018850Y028900D01*
X019804D01*
X013107Y025967D02*
X014518Y027378D01*
X016722D01*
X016968Y027132D01*
X012663Y026719D02*
X014575Y028632D01*
X002450Y020300D02*
Y025932D01*
X003237Y026719D01*
X012663D01*
X018550Y022000D02*
X019587D01*
X018060Y021510D02*
Y023222D01*
X019072Y025632D02*
X019600D01*
X018550Y023000D02*
Y023400D01*
Y021000D02*
X019470D01*
X006393Y017650D02*
Y018114D01*
X003160Y025660D02*
X006380Y022440D01*
X012657D01*
X013107Y021990D01*
X012230Y020830D02*
Y020940D01*
X010342Y020892D02*
X012168D01*
X012230Y020830D01*
X005900Y021240D02*
X006134Y021474D01*
X014914D01*
X019072Y025632D01*
X009970Y020520D02*
X010342Y020892D01*
X009970Y020500D02*
Y020520D01*
X006393Y018114D02*
X009571Y021292D01*
X012608D01*
X012930Y020970D01*
D21*
X000100Y033300D02*
D03*
X000500D02*
D03*
X000900D02*
D03*
X001300D02*
D03*
X001700D02*
D03*
Y034100D02*
D03*
X001300D02*
D03*
X000900D02*
D03*
X000500D02*
D03*
X000100D02*
D03*
X027300Y033300D02*
D03*
X027700D02*
D03*
X028100D02*
D03*
X028500D02*
D03*
X028900D02*
D03*
Y034100D02*
D03*
X028500D02*
D03*
X028100D02*
D03*
X027700D02*
D03*
X027300D02*
D03*
X012750Y033300D02*
D03*
X013150D02*
D03*
X013550D02*
D03*
X013950D02*
D03*
X014350D02*
D03*
Y034100D02*
D03*
X013950D02*
D03*
X013550D02*
D03*
X013150D02*
D03*
X012750D02*
D03*
X027300Y060101D02*
D03*
X027700D02*
D03*
X028100D02*
D03*
X028500D02*
D03*
X028820D02*
D03*
Y059301D02*
D03*
X028500D02*
D03*
X028100D02*
D03*
X027700D02*
D03*
X027300D02*
D03*
X001700Y060101D02*
D03*
X001300D02*
D03*
X000900D02*
D03*
X000500D02*
D03*
X000180D02*
D03*
Y059301D02*
D03*
X000500D02*
D03*
X000900D02*
D03*
X001300D02*
D03*
X001700D02*
D03*
X009900D02*
D03*
X009500D02*
D03*
X009100D02*
D03*
X008700D02*
D03*
X008300D02*
D03*
Y060101D02*
D03*
X008700D02*
D03*
X009100D02*
D03*
X009500D02*
D03*
X009900D02*
D03*
X019600D02*
D03*
X020000D02*
D03*
X020400D02*
D03*
X020800D02*
D03*
X021200D02*
D03*
Y059301D02*
D03*
X020800D02*
D03*
X020400D02*
D03*
X020000D02*
D03*
X019600D02*
D03*
D29*
X016050Y010617D02*
D03*
X032050D02*
D03*
Y030117D02*
D03*
X016050D02*
D03*
D35*
X002820Y011580D02*
X002835Y011565D01*
Y004094D02*
Y011565D01*
D36*
X013363Y031600D02*
X018000D01*
X002200Y029200D02*
X004226Y031226D01*
X012437D01*
X002200Y028600D02*
Y029200D01*
X001200Y028600D02*
X001250D01*
X004624Y031974D01*
X012437D01*
X025500Y026950D02*
X025932Y026518D01*
Y025790D02*
Y026518D01*
X023700Y021150D02*
Y026550D01*
X024100Y026950D01*
X025500D01*
X018000Y031600D02*
X021170Y028430D01*
X018550Y020000D02*
X019260D01*
X021170Y021910D01*
Y028430D01*
D37*
X014230Y019000D02*
X017550D01*
X012170Y018730D02*
Y019000D01*
X007835Y004094D02*
Y016085D01*
X010672Y018922D01*
X011978D01*
X012170Y018730D01*
X014942Y082030D02*
X015000Y081971D01*
X014942Y056030D02*
X015000Y055971D01*
D38*
X012000Y079933D02*
Y081971D01*
X006142Y074075D02*
X012000Y079933D01*
X006142Y069030D02*
Y074075D01*
X017953Y069030D02*
Y074248D01*
X016062Y076139D02*
X017953Y074248D01*
X016062Y076139D02*
Y081910D01*
X013932Y076133D02*
Y081903D01*
X012047Y074248D02*
X013932Y076133D01*
X012047Y069030D02*
Y074248D01*
X013932Y081903D02*
X014000Y081971D01*
X016000D02*
X016062Y081910D01*
X017000Y077856D02*
X020906Y073951D01*
X017000Y077856D02*
Y081971D01*
X023858Y069030D02*
Y073447D01*
X018000Y079305D02*
X023858Y073447D01*
X018000Y079305D02*
Y081971D01*
X013000Y077856D02*
Y081971D01*
X009094Y073951D02*
X013000Y077856D01*
X015000Y073951D02*
Y081971D01*
Y047951D02*
Y055971D01*
X009094Y047951D02*
X013000Y051856D01*
Y055971D01*
X018000Y053305D02*
Y055971D01*
Y053305D02*
X023858Y047447D01*
Y043030D02*
Y047447D01*
X017000Y051856D02*
Y055971D01*
Y051856D02*
X020906Y047951D01*
X016000Y055971D02*
X016062Y055910D01*
X013932Y055903D02*
X014000Y055971D01*
X012047Y043030D02*
Y048248D01*
X013932Y050133D01*
Y055903D01*
X016062Y050139D02*
Y055910D01*
Y050139D02*
X017953Y048248D01*
Y043030D02*
Y048248D01*
X006142Y043030D02*
Y048075D01*
X012000Y053933D01*
Y055971D01*
D39*
X005200Y028600D02*
D03*
Y027600D02*
D03*
D40*
X003200Y028600D02*
D03*
Y027600D02*
D03*
X002200Y028600D02*
D03*
Y027600D02*
D03*
X001200Y028600D02*
D03*
Y027600D02*
D03*
D41*
X026932Y024790D02*
D03*
Y025790D02*
D03*
X025932D02*
D03*
X024932D02*
D03*
Y024790D02*
D03*
X025932D02*
D03*
X027182Y016290D02*
D03*
Y015290D02*
D03*
X024632Y012490D02*
D03*
X023632D02*
D03*
D42*
X018550Y023000D02*
D03*
X017550D02*
D03*
X018550Y022000D02*
D03*
X017550D02*
D03*
X018550Y021000D02*
D03*
X017550D02*
D03*
X018550Y020000D02*
D03*
X017550D02*
D03*
X018550Y019000D02*
D03*
X017550D02*
D03*
X018550Y018000D02*
D03*
X017550D02*
D03*
X018550Y017000D02*
D03*
X017550D02*
D03*
X018550Y016000D02*
D03*
D43*
X017550D02*
D03*
D44*
X002835Y004094D02*
D03*
X007835D02*
D03*
D45*
X003000Y032000D02*
D03*
X001250D02*
D03*
D46*
X023858Y069030D02*
D03*
X020906Y073951D02*
D03*
X017953Y069030D02*
D03*
X015000Y073951D02*
D03*
X012047Y069030D02*
D03*
X009094Y073951D02*
D03*
X006142Y069030D02*
D03*
Y043030D02*
D03*
X009094Y047951D02*
D03*
X012047Y043030D02*
D03*
X015000Y047951D02*
D03*
X017953Y043030D02*
D03*
X020906Y047951D02*
D03*
X023858Y043030D02*
D03*
D47*
X014000Y081971D02*
D03*
X013000D02*
D03*
X015000D02*
D03*
X016000D02*
D03*
X017000D02*
D03*
X018000D02*
D03*
Y055971D02*
D03*
X017000D02*
D03*
X016000D02*
D03*
X015000D02*
D03*
X013000D02*
D03*
X014000D02*
D03*
D48*
X012000Y081971D02*
D03*
Y055971D02*
D03*
D49*
X002000Y062201D02*
D03*
Y082201D02*
D03*
X027000D02*
D03*
Y062201D02*
D03*
Y036201D02*
D03*
Y056201D02*
D03*
X002000D02*
D03*
Y036201D02*
D03*
D50*
X003900Y022900D02*
D03*
X016462Y028000D02*
D03*
X016500Y021385D02*
D03*
X008135Y018650D02*
D03*
X011000Y023050D02*
D03*
X005910Y024450D02*
D03*
X019760Y023509D02*
D03*
X030882Y024700D02*
D03*
X024145Y014650D02*
D03*
X022100Y022000D02*
D03*
X021683Y021000D02*
D03*
X013107Y021990D02*
D03*
X003160Y025640D02*
D03*
X016200Y025100D02*
D03*
X013900Y025800D02*
D03*
X002450Y020300D02*
D03*
X008750Y012250D02*
D03*
Y013700D02*
D03*
Y015000D02*
D03*
Y016050D02*
D03*
X014800Y021050D02*
D03*
X008331Y024400D02*
D03*
X007100D02*
D03*
X006393Y017650D02*
D03*
X005800Y017050D02*
D03*
X023700Y021150D02*
D03*
X005900Y021172D02*
D03*
X012230Y020940D02*
D03*
X012930Y020970D02*
D03*
X009970Y020500D02*
D03*
X006620Y013400D02*
D03*
D51*
X011987Y015438D02*
D03*
X012813D02*
D03*
Y011500D02*
D03*
X011987D02*
D03*
Y014125D02*
D03*
X012813D02*
D03*
X011987Y012812D02*
D03*
X012813D02*
D03*
X015287Y026922D02*
D03*
X016113D02*
D03*
X013133Y024960D02*
D03*
X012307D02*
D03*
Y023880D02*
D03*
X013133D02*
D03*
D52*
X013363Y031600D02*
D03*
X012437Y031974D02*
D03*
Y031226D02*
D03*
D53*
X014230Y019000D02*
D03*
X012170D02*
D03*
D54*
X019600Y025632D02*
D03*
Y026132D02*
D03*
Y026632D02*
D03*
Y027132D02*
D03*
Y027632D02*
D03*
Y028132D02*
D03*
Y028632D02*
D03*
X017435D02*
D03*
Y028132D02*
D03*
Y027632D02*
D03*
Y027132D02*
D03*
Y026632D02*
D03*
Y026132D02*
D03*
Y025632D02*
D03*
M02*
