G04*
G04 #@! TF.GenerationSoftware,Altium Limited,Altium Designer,18.0.12 (696)*
G04*
G04 Layer_Color=32896*
%FSAX24Y24*%
%MOIN*%
G70*
G01*
G75*
%ADD10C,0.0120*%
%ADD13C,0.0079*%
%ADD14C,0.0100*%
%ADD15C,0.0098*%
%ADD17C,0.0070*%
%ADD18C,0.0080*%
%ADD59C,0.0250*%
D10*
X010583Y083100D02*
X010530Y083126D01*
X010452Y083205D01*
Y082655D01*
X010153Y082707D02*
X010179Y082681D01*
X010153Y082655D01*
X010127Y082681D01*
X010153Y082707D01*
X009575Y083205D02*
Y082655D01*
Y083205D02*
X009339D01*
X009260Y083179D01*
X009234Y083152D01*
X009208Y083100D01*
Y083048D01*
X009234Y082995D01*
X009260Y082969D01*
X009339Y082943D01*
X009575D01*
X009391D02*
X009208Y082655D01*
X008745Y083205D02*
X009085D01*
Y082655D01*
X008745D01*
X009085Y082943D02*
X008875D01*
X008653Y083205D02*
Y082655D01*
X008339D01*
X007860D02*
X008069Y083205D01*
X008278Y082655D01*
X008200Y082838D02*
X007938D01*
X007731Y083205D02*
X007522Y082943D01*
Y082655D01*
X007312Y083205D02*
X007522Y082943D01*
X006417Y083074D02*
X006443Y083126D01*
X006495Y083179D01*
X006548Y083205D01*
X006652D01*
X006705Y083179D01*
X006757Y083126D01*
X006783Y083074D01*
X006809Y082995D01*
Y082864D01*
X006783Y082786D01*
X006757Y082734D01*
X006705Y082681D01*
X006652Y082655D01*
X006548D01*
X006495Y082681D01*
X006443Y082734D01*
X006417Y082786D01*
X006105Y083205D02*
X006157Y083179D01*
X006210Y083126D01*
X006236Y083074D01*
X006262Y082995D01*
Y082864D01*
X006236Y082786D01*
X006210Y082734D01*
X006157Y082681D01*
X006105Y082655D01*
X006000D01*
X005948Y082681D01*
X005896Y082734D01*
X005869Y082786D01*
X005843Y082864D01*
Y082995D01*
X005869Y083074D01*
X005896Y083126D01*
X005948Y083179D01*
X006000Y083205D01*
X006105D01*
X005715D02*
Y082655D01*
Y083205D02*
X005505Y082655D01*
X005296Y083205D02*
X005505Y082655D01*
X005296Y083205D02*
Y082655D01*
X010557Y082126D02*
Y082152D01*
X010530Y082205D01*
X010504Y082231D01*
X010452Y082257D01*
X010347D01*
X010295Y082231D01*
X010269Y082205D01*
X010242Y082152D01*
Y082100D01*
X010269Y082048D01*
X010321Y081969D01*
X010583Y081707D01*
X010216D01*
X010067Y081759D02*
X010093Y081733D01*
X010067Y081707D01*
X010041Y081733D01*
X010067Y081759D01*
X009488Y082257D02*
Y081707D01*
Y082257D02*
X009253D01*
X009174Y082231D01*
X009148Y082205D01*
X009122Y082152D01*
Y082100D01*
X009148Y082048D01*
X009174Y082021D01*
X009253Y081995D01*
X009488D01*
X009305D02*
X009122Y081707D01*
X008658Y082257D02*
X008999D01*
Y081707D01*
X008658D01*
X008999Y081995D02*
X008789D01*
X008566Y082257D02*
Y081707D01*
X008252D01*
X007773D02*
X007983Y082257D01*
X008192Y081707D01*
X008113Y081890D02*
X007852D01*
X007645Y082257D02*
X007435Y081995D01*
Y081707D01*
X007226Y082257D02*
X007435Y081995D01*
X006723Y082257D02*
Y081707D01*
Y082257D02*
X006356Y081707D01*
Y082257D02*
Y081707D01*
X006205Y081629D02*
X005838Y082257D01*
X005644D02*
X005697Y082231D01*
X005749Y082178D01*
X005775Y082126D01*
X005801Y082048D01*
Y081917D01*
X005775Y081838D01*
X005749Y081786D01*
X005697Y081733D01*
X005644Y081707D01*
X005540D01*
X005487Y081733D01*
X005435Y081786D01*
X005409Y081838D01*
X005382Y081917D01*
Y082048D01*
X005409Y082126D01*
X005435Y082178D01*
X005487Y082231D01*
X005540Y082257D01*
X005644D01*
X010530Y081231D02*
X010242D01*
X010399Y081021D01*
X010321D01*
X010269Y080995D01*
X010242Y080969D01*
X010216Y080890D01*
Y080838D01*
X010242Y080759D01*
X010295Y080707D01*
X010373Y080681D01*
X010452D01*
X010530Y080707D01*
X010557Y080733D01*
X010583Y080785D01*
X010067Y080733D02*
X010093Y080707D01*
X010067Y080681D01*
X010041Y080707D01*
X010067Y080733D01*
X009488Y081231D02*
Y080681D01*
Y081231D02*
X009253D01*
X009174Y081204D01*
X009148Y081178D01*
X009122Y081126D01*
Y081073D01*
X009148Y081021D01*
X009174Y080995D01*
X009253Y080969D01*
X009488D01*
X009305D02*
X009122Y080681D01*
X008658Y081231D02*
X008999D01*
Y080681D01*
X008658D01*
X008999Y080969D02*
X008789D01*
X008566Y081231D02*
Y080681D01*
X008252D01*
X007773D02*
X007983Y081231D01*
X008192Y080681D01*
X008113Y080864D02*
X007852D01*
X007645Y081231D02*
X007435Y080969D01*
Y080681D01*
X007226Y081231D02*
X007435Y080969D01*
X006723Y081231D02*
Y080681D01*
Y081231D02*
X006356Y080681D01*
Y081231D02*
Y080681D01*
X006205Y080602D02*
X005838Y081231D01*
X005409Y081100D02*
X005435Y081152D01*
X005487Y081204D01*
X005540Y081231D01*
X005644D01*
X005697Y081204D01*
X005749Y081152D01*
X005775Y081100D01*
X005801Y081021D01*
Y080890D01*
X005775Y080812D01*
X005749Y080759D01*
X005697Y080707D01*
X005644Y080681D01*
X005540D01*
X005487Y080707D01*
X005435Y080759D01*
X005409Y080812D01*
X010321Y080204D02*
X010583Y079838D01*
X010190D01*
X010321Y080204D02*
Y079654D01*
X010067Y079707D02*
X010093Y079680D01*
X010067Y079654D01*
X010041Y079680D01*
X010067Y079707D01*
X009488Y080204D02*
Y079654D01*
Y080204D02*
X009253D01*
X009174Y080178D01*
X009148Y080152D01*
X009122Y080099D01*
Y080047D01*
X009148Y079995D01*
X009174Y079968D01*
X009253Y079942D01*
X009488D01*
X009305D02*
X009122Y079654D01*
X008658Y080204D02*
X008999D01*
Y079654D01*
X008658D01*
X008999Y079942D02*
X008789D01*
X008566Y080204D02*
Y079654D01*
Y080204D02*
X008357Y079654D01*
X008148Y080204D02*
X008357Y079654D01*
X008148Y080204D02*
Y079654D01*
X007833Y080204D02*
X007886Y080178D01*
X007938Y080126D01*
X007964Y080073D01*
X007990Y079995D01*
Y079864D01*
X007964Y079785D01*
X007938Y079733D01*
X007886Y079680D01*
X007833Y079654D01*
X007729D01*
X007676Y079680D01*
X007624Y079733D01*
X007598Y079785D01*
X007571Y079864D01*
Y079995D01*
X007598Y080073D01*
X007624Y080126D01*
X007676Y080178D01*
X007729Y080204D01*
X007833D01*
X007260D02*
Y079654D01*
X007443Y080204D02*
X007077D01*
X006671D02*
X007011D01*
Y079654D01*
X006671D01*
X007011Y079942D02*
X006802D01*
X010269Y079256D02*
X010530D01*
X010557Y079021D01*
X010530Y079047D01*
X010452Y079073D01*
X010373D01*
X010295Y079047D01*
X010242Y078994D01*
X010216Y078916D01*
Y078864D01*
X010242Y078785D01*
X010295Y078733D01*
X010373Y078706D01*
X010452D01*
X010530Y078733D01*
X010557Y078759D01*
X010583Y078811D01*
X010067Y078759D02*
X010093Y078733D01*
X010067Y078706D01*
X010041Y078733D01*
X010067Y078759D01*
X009488Y079256D02*
Y078706D01*
Y079256D02*
X009253D01*
X009174Y079230D01*
X009148Y079204D01*
X009122Y079152D01*
Y079099D01*
X009148Y079047D01*
X009174Y079021D01*
X009253Y078994D01*
X009488D01*
X009305D02*
X009122Y078706D01*
X008658Y079256D02*
X008999D01*
Y078706D01*
X008658D01*
X008999Y078994D02*
X008789D01*
X008566Y079256D02*
Y078706D01*
Y079256D02*
X008357Y078706D01*
X008148Y079256D02*
X008357Y078706D01*
X008148Y079256D02*
Y078706D01*
X007833Y079256D02*
X007886Y079230D01*
X007938Y079178D01*
X007964Y079125D01*
X007990Y079047D01*
Y078916D01*
X007964Y078837D01*
X007938Y078785D01*
X007886Y078733D01*
X007833Y078706D01*
X007729D01*
X007676Y078733D01*
X007624Y078785D01*
X007598Y078837D01*
X007571Y078916D01*
Y079047D01*
X007598Y079125D01*
X007624Y079178D01*
X007676Y079230D01*
X007729Y079256D01*
X007833D01*
X007260D02*
Y078706D01*
X007443Y079256D02*
X007077D01*
X006671D02*
X007011D01*
Y078706D01*
X006671D01*
X007011Y078994D02*
X006802D01*
X010269Y078230D02*
X010295Y078282D01*
X010373Y078308D01*
X010426D01*
X010504Y078282D01*
X010557Y078204D01*
X010583Y078073D01*
Y077942D01*
X010557Y077837D01*
X010504Y077785D01*
X010426Y077759D01*
X010399D01*
X010321Y077785D01*
X010269Y077837D01*
X010242Y077916D01*
Y077942D01*
X010269Y078020D01*
X010321Y078073D01*
X010399Y078099D01*
X010426D01*
X010504Y078073D01*
X010557Y078020D01*
X010583Y077942D01*
X010096Y077811D02*
X010122Y077785D01*
X010096Y077759D01*
X010070Y077785D01*
X010096Y077811D01*
X009098Y077759D02*
X009308Y078308D01*
X009517Y077759D01*
X009438Y077942D02*
X009177D01*
X008577Y078178D02*
X008603Y078230D01*
X008656Y078282D01*
X008708Y078308D01*
X008813D01*
X008865Y078282D01*
X008917Y078230D01*
X008944Y078178D01*
X008970Y078099D01*
Y077968D01*
X008944Y077889D01*
X008917Y077837D01*
X008865Y077785D01*
X008813Y077759D01*
X008708D01*
X008656Y077785D01*
X008603Y077837D01*
X008577Y077889D01*
X007755Y078230D02*
Y077759D01*
X007990Y077994D02*
X007519D01*
X010216Y077361D02*
X010478Y076811D01*
X010583Y077361D02*
X010216D01*
X010067Y076863D02*
X010093Y076837D01*
X010067Y076811D01*
X010041Y076837D01*
X010067Y076863D01*
X009069Y076811D02*
X009279Y077361D01*
X009488Y076811D01*
X009410Y076994D02*
X009148D01*
X008548Y077230D02*
X008574Y077282D01*
X008627Y077334D01*
X008679Y077361D01*
X008784D01*
X008836Y077334D01*
X008889Y077282D01*
X008915Y077230D01*
X008941Y077151D01*
Y077020D01*
X008915Y076942D01*
X008889Y076889D01*
X008836Y076837D01*
X008784Y076811D01*
X008679D01*
X008627Y076837D01*
X008574Y076889D01*
X008548Y076942D01*
X007962Y077046D02*
X007490D01*
X010583Y057100D02*
X010530Y057126D01*
X010452Y057205D01*
Y056655D01*
X010153Y056707D02*
X010179Y056681D01*
X010153Y056655D01*
X010127Y056681D01*
X010153Y056707D01*
X009575Y057205D02*
Y056655D01*
Y057205D02*
X009339D01*
X009260Y057179D01*
X009234Y057152D01*
X009208Y057100D01*
Y057048D01*
X009234Y056995D01*
X009260Y056969D01*
X009339Y056943D01*
X009575D01*
X009391D02*
X009208Y056655D01*
X008745Y057205D02*
X009085D01*
Y056655D01*
X008745D01*
X009085Y056943D02*
X008875D01*
X008653Y057205D02*
Y056655D01*
X008339D01*
X007860D02*
X008069Y057205D01*
X008278Y056655D01*
X008200Y056838D02*
X007938D01*
X007731Y057205D02*
X007522Y056943D01*
Y056655D01*
X007312Y057205D02*
X007522Y056943D01*
X006417Y057074D02*
X006443Y057126D01*
X006495Y057179D01*
X006548Y057205D01*
X006652D01*
X006705Y057179D01*
X006757Y057126D01*
X006783Y057074D01*
X006809Y056995D01*
Y056864D01*
X006783Y056786D01*
X006757Y056734D01*
X006705Y056681D01*
X006652Y056655D01*
X006548D01*
X006495Y056681D01*
X006443Y056734D01*
X006417Y056786D01*
X006105Y057205D02*
X006157Y057179D01*
X006210Y057126D01*
X006236Y057074D01*
X006262Y056995D01*
Y056864D01*
X006236Y056786D01*
X006210Y056734D01*
X006157Y056681D01*
X006105Y056655D01*
X006000D01*
X005948Y056681D01*
X005896Y056734D01*
X005869Y056786D01*
X005843Y056864D01*
Y056995D01*
X005869Y057074D01*
X005896Y057126D01*
X005948Y057179D01*
X006000Y057205D01*
X006105D01*
X005715D02*
Y056655D01*
Y057205D02*
X005505Y056655D01*
X005296Y057205D02*
X005505Y056655D01*
X005296Y057205D02*
Y056655D01*
X010557Y056126D02*
Y056152D01*
X010530Y056205D01*
X010504Y056231D01*
X010452Y056257D01*
X010347D01*
X010295Y056231D01*
X010269Y056205D01*
X010242Y056152D01*
Y056100D01*
X010269Y056048D01*
X010321Y055969D01*
X010583Y055707D01*
X010216D01*
X010067Y055759D02*
X010093Y055733D01*
X010067Y055707D01*
X010041Y055733D01*
X010067Y055759D01*
X009488Y056257D02*
Y055707D01*
Y056257D02*
X009253D01*
X009174Y056231D01*
X009148Y056205D01*
X009122Y056152D01*
Y056100D01*
X009148Y056048D01*
X009174Y056021D01*
X009253Y055995D01*
X009488D01*
X009305D02*
X009122Y055707D01*
X008658Y056257D02*
X008999D01*
Y055707D01*
X008658D01*
X008999Y055995D02*
X008789D01*
X008566Y056257D02*
Y055707D01*
X008252D01*
X007773D02*
X007983Y056257D01*
X008192Y055707D01*
X008113Y055890D02*
X007852D01*
X007645Y056257D02*
X007435Y055995D01*
Y055707D01*
X007226Y056257D02*
X007435Y055995D01*
X006723Y056257D02*
Y055707D01*
Y056257D02*
X006356Y055707D01*
Y056257D02*
Y055707D01*
X006205Y055629D02*
X005838Y056257D01*
X005644D02*
X005697Y056231D01*
X005749Y056178D01*
X005775Y056126D01*
X005801Y056048D01*
Y055917D01*
X005775Y055838D01*
X005749Y055786D01*
X005697Y055733D01*
X005644Y055707D01*
X005540D01*
X005487Y055733D01*
X005435Y055786D01*
X005409Y055838D01*
X005382Y055917D01*
Y056048D01*
X005409Y056126D01*
X005435Y056178D01*
X005487Y056231D01*
X005540Y056257D01*
X005644D01*
X010530Y055231D02*
X010242D01*
X010399Y055021D01*
X010321D01*
X010269Y054995D01*
X010242Y054969D01*
X010216Y054890D01*
Y054838D01*
X010242Y054759D01*
X010295Y054707D01*
X010373Y054681D01*
X010452D01*
X010530Y054707D01*
X010557Y054733D01*
X010583Y054785D01*
X010067Y054733D02*
X010093Y054707D01*
X010067Y054681D01*
X010041Y054707D01*
X010067Y054733D01*
X009488Y055231D02*
Y054681D01*
Y055231D02*
X009253D01*
X009174Y055204D01*
X009148Y055178D01*
X009122Y055126D01*
Y055073D01*
X009148Y055021D01*
X009174Y054995D01*
X009253Y054969D01*
X009488D01*
X009305D02*
X009122Y054681D01*
X008658Y055231D02*
X008999D01*
Y054681D01*
X008658D01*
X008999Y054969D02*
X008789D01*
X008566Y055231D02*
Y054681D01*
X008252D01*
X007773D02*
X007983Y055231D01*
X008192Y054681D01*
X008113Y054864D02*
X007852D01*
X007645Y055231D02*
X007435Y054969D01*
Y054681D01*
X007226Y055231D02*
X007435Y054969D01*
X006723Y055231D02*
Y054681D01*
Y055231D02*
X006356Y054681D01*
Y055231D02*
Y054681D01*
X006205Y054602D02*
X005838Y055231D01*
X005409Y055100D02*
X005435Y055152D01*
X005487Y055204D01*
X005540Y055231D01*
X005644D01*
X005697Y055204D01*
X005749Y055152D01*
X005775Y055100D01*
X005801Y055021D01*
Y054890D01*
X005775Y054812D01*
X005749Y054759D01*
X005697Y054707D01*
X005644Y054681D01*
X005540D01*
X005487Y054707D01*
X005435Y054759D01*
X005409Y054812D01*
X010321Y054204D02*
X010583Y053838D01*
X010190D01*
X010321Y054204D02*
Y053654D01*
X010067Y053707D02*
X010093Y053680D01*
X010067Y053654D01*
X010041Y053680D01*
X010067Y053707D01*
X009488Y054204D02*
Y053654D01*
Y054204D02*
X009253D01*
X009174Y054178D01*
X009148Y054152D01*
X009122Y054099D01*
Y054047D01*
X009148Y053995D01*
X009174Y053968D01*
X009253Y053942D01*
X009488D01*
X009305D02*
X009122Y053654D01*
X008658Y054204D02*
X008999D01*
Y053654D01*
X008658D01*
X008999Y053942D02*
X008789D01*
X008566Y054204D02*
Y053654D01*
Y054204D02*
X008357Y053654D01*
X008148Y054204D02*
X008357Y053654D01*
X008148Y054204D02*
Y053654D01*
X007833Y054204D02*
X007886Y054178D01*
X007938Y054126D01*
X007964Y054073D01*
X007990Y053995D01*
Y053864D01*
X007964Y053785D01*
X007938Y053733D01*
X007886Y053680D01*
X007833Y053654D01*
X007729D01*
X007676Y053680D01*
X007624Y053733D01*
X007598Y053785D01*
X007571Y053864D01*
Y053995D01*
X007598Y054073D01*
X007624Y054126D01*
X007676Y054178D01*
X007729Y054204D01*
X007833D01*
X007260D02*
Y053654D01*
X007443Y054204D02*
X007077D01*
X006671D02*
X007011D01*
Y053654D01*
X006671D01*
X007011Y053942D02*
X006802D01*
X010269Y053256D02*
X010530D01*
X010557Y053021D01*
X010530Y053047D01*
X010452Y053073D01*
X010373D01*
X010295Y053047D01*
X010242Y052994D01*
X010216Y052916D01*
Y052864D01*
X010242Y052785D01*
X010295Y052733D01*
X010373Y052706D01*
X010452D01*
X010530Y052733D01*
X010557Y052759D01*
X010583Y052811D01*
X010067Y052759D02*
X010093Y052733D01*
X010067Y052706D01*
X010041Y052733D01*
X010067Y052759D01*
X009488Y053256D02*
Y052706D01*
Y053256D02*
X009253D01*
X009174Y053230D01*
X009148Y053204D01*
X009122Y053152D01*
Y053099D01*
X009148Y053047D01*
X009174Y053021D01*
X009253Y052994D01*
X009488D01*
X009305D02*
X009122Y052706D01*
X008658Y053256D02*
X008999D01*
Y052706D01*
X008658D01*
X008999Y052994D02*
X008789D01*
X008566Y053256D02*
Y052706D01*
Y053256D02*
X008357Y052706D01*
X008148Y053256D02*
X008357Y052706D01*
X008148Y053256D02*
Y052706D01*
X007833Y053256D02*
X007886Y053230D01*
X007938Y053178D01*
X007964Y053125D01*
X007990Y053047D01*
Y052916D01*
X007964Y052837D01*
X007938Y052785D01*
X007886Y052733D01*
X007833Y052706D01*
X007729D01*
X007676Y052733D01*
X007624Y052785D01*
X007598Y052837D01*
X007571Y052916D01*
Y053047D01*
X007598Y053125D01*
X007624Y053178D01*
X007676Y053230D01*
X007729Y053256D01*
X007833D01*
X007260D02*
Y052706D01*
X007443Y053256D02*
X007077D01*
X006671D02*
X007011D01*
Y052706D01*
X006671D01*
X007011Y052994D02*
X006802D01*
X010269Y052230D02*
X010295Y052282D01*
X010373Y052308D01*
X010426D01*
X010504Y052282D01*
X010557Y052204D01*
X010583Y052073D01*
Y051942D01*
X010557Y051837D01*
X010504Y051785D01*
X010426Y051759D01*
X010399D01*
X010321Y051785D01*
X010269Y051837D01*
X010242Y051916D01*
Y051942D01*
X010269Y052020D01*
X010321Y052073D01*
X010399Y052099D01*
X010426D01*
X010504Y052073D01*
X010557Y052020D01*
X010583Y051942D01*
X010096Y051811D02*
X010122Y051785D01*
X010096Y051759D01*
X010070Y051785D01*
X010096Y051811D01*
X009098Y051759D02*
X009308Y052308D01*
X009517Y051759D01*
X009438Y051942D02*
X009177D01*
X008577Y052178D02*
X008603Y052230D01*
X008656Y052282D01*
X008708Y052308D01*
X008813D01*
X008865Y052282D01*
X008917Y052230D01*
X008944Y052178D01*
X008970Y052099D01*
Y051968D01*
X008944Y051889D01*
X008917Y051837D01*
X008865Y051785D01*
X008813Y051759D01*
X008708D01*
X008656Y051785D01*
X008603Y051837D01*
X008577Y051889D01*
X007755Y052230D02*
Y051759D01*
X007990Y051994D02*
X007519D01*
X010216Y051361D02*
X010478Y050811D01*
X010583Y051361D02*
X010216D01*
X010067Y050863D02*
X010093Y050837D01*
X010067Y050811D01*
X010041Y050837D01*
X010067Y050863D01*
X009069Y050811D02*
X009279Y051361D01*
X009488Y050811D01*
X009410Y050994D02*
X009148D01*
X008548Y051230D02*
X008574Y051282D01*
X008627Y051334D01*
X008679Y051361D01*
X008784D01*
X008836Y051334D01*
X008889Y051282D01*
X008915Y051230D01*
X008941Y051151D01*
Y051020D01*
X008915Y050942D01*
X008889Y050889D01*
X008836Y050837D01*
X008784Y050811D01*
X008679D01*
X008627Y050837D01*
X008574Y050889D01*
X008548Y050942D01*
X007962Y051046D02*
X007490D01*
X007903Y000362D02*
Y001004D01*
X008225Y000683D02*
X007582D01*
X003275D02*
X002632D01*
D13*
X012380Y015182D02*
X012420D01*
X012380Y015693D02*
X012420D01*
X013176Y031876D02*
Y032191D01*
X012861D02*
X013176D01*
Y031009D02*
Y031324D01*
X012861Y031009D02*
X013176D01*
X012380Y011756D02*
X012420D01*
X012380Y011244D02*
X012420D01*
X019050Y015500D02*
Y023500D01*
X017050Y015500D02*
Y023500D01*
Y015500D02*
X019050D01*
X017050Y023500D02*
X019050D01*
X012380Y013869D02*
X012420D01*
X012380Y014381D02*
X012420D01*
X012380Y012557D02*
X012420D01*
X012380Y013068D02*
X012420D01*
X015680Y026666D02*
X015720D01*
X015680Y027177D02*
X015720D01*
X012668Y019581D02*
X013731D01*
X012668Y018419D02*
X013731D01*
X012700Y025216D02*
X012740D01*
X012700Y024704D02*
X012740D01*
X012700Y023624D02*
X012740D01*
X012700Y024136D02*
X012740D01*
X017730Y025396D02*
Y028841D01*
X019305D01*
Y025396D02*
Y028841D01*
X017730Y025396D02*
X019305D01*
X027942Y026632D02*
X027904Y026650D01*
X027848Y026707D01*
Y026313D01*
D14*
X014910Y083705D02*
X015150Y083369D01*
X014790D01*
X014910Y083705D02*
Y083201D01*
X012150Y057609D02*
X012102Y057633D01*
X012030Y057705D01*
Y057201D01*
X014102Y057705D02*
X013838D01*
X013982Y057513D01*
X013910D01*
X013862Y057489D01*
X013838Y057465D01*
X013814Y057393D01*
Y057345D01*
X013838Y057273D01*
X013886Y057225D01*
X013958Y057201D01*
X014030D01*
X014102Y057225D01*
X014126Y057249D01*
X014150Y057297D01*
X016862Y057633D02*
X016886Y057681D01*
X016958Y057705D01*
X017006D01*
X017078Y057681D01*
X017126Y057609D01*
X017150Y057489D01*
Y057369D01*
X017126Y057273D01*
X017078Y057225D01*
X017006Y057201D01*
X016982D01*
X016910Y057225D01*
X016862Y057273D01*
X016838Y057345D01*
Y057369D01*
X016862Y057441D01*
X016910Y057489D01*
X016982Y057513D01*
X017006D01*
X017078Y057489D01*
X017126Y057441D01*
X017150Y057369D01*
X013126Y057585D02*
Y057609D01*
X013102Y057657D01*
X013078Y057681D01*
X013030Y057705D01*
X012934D01*
X012886Y057681D01*
X012862Y057657D01*
X012838Y057609D01*
Y057561D01*
X012862Y057513D01*
X012910Y057441D01*
X013150Y057201D01*
X012814D01*
X014102Y083705D02*
X013838D01*
X013982Y083513D01*
X013910D01*
X013862Y083489D01*
X013838Y083465D01*
X013814Y083393D01*
Y083345D01*
X013838Y083273D01*
X013886Y083225D01*
X013958Y083201D01*
X014030D01*
X014102Y083225D01*
X014126Y083249D01*
X014150Y083297D01*
X016862Y083633D02*
X016886Y083681D01*
X016958Y083705D01*
X017006D01*
X017078Y083681D01*
X017126Y083609D01*
X017150Y083489D01*
Y083369D01*
X017126Y083273D01*
X017078Y083225D01*
X017006Y083201D01*
X016982D01*
X016910Y083225D01*
X016862Y083273D01*
X016838Y083345D01*
Y083369D01*
X016862Y083441D01*
X016910Y083489D01*
X016982Y083513D01*
X017006D01*
X017078Y083489D01*
X017126Y083441D01*
X017150Y083369D01*
X012150Y083609D02*
X012102Y083633D01*
X012030Y083705D01*
Y083201D01*
X015862Y083705D02*
X016102D01*
X016126Y083489D01*
X016102Y083513D01*
X016030Y083537D01*
X015958D01*
X015886Y083513D01*
X015838Y083465D01*
X015814Y083393D01*
Y083345D01*
X015838Y083273D01*
X015886Y083225D01*
X015958Y083201D01*
X016030D01*
X016102Y083225D01*
X016126Y083249D01*
X016150Y083297D01*
X017814Y057705D02*
X018054Y057201D01*
X018150Y057705D02*
X017814D01*
X013126Y083585D02*
Y083609D01*
X013102Y083657D01*
X013078Y083681D01*
X013030Y083705D01*
X012934D01*
X012886Y083681D01*
X012862Y083657D01*
X012838Y083609D01*
Y083561D01*
X012862Y083513D01*
X012910Y083441D01*
X013150Y083201D01*
X012814D01*
X014910Y057705D02*
X015150Y057369D01*
X014790D01*
X014910Y057705D02*
Y057201D01*
X017814Y083705D02*
X018054Y083201D01*
X018150Y083705D02*
X017814D01*
X015862Y057705D02*
X016102D01*
X016126Y057489D01*
X016102Y057513D01*
X016030Y057537D01*
X015958D01*
X015886Y057513D01*
X015838Y057465D01*
X015814Y057393D01*
Y057345D01*
X015838Y057273D01*
X015886Y057225D01*
X015958Y057201D01*
X016030D01*
X016102Y057225D01*
X016126Y057249D01*
X016150Y057297D01*
X013150Y032850D02*
Y032450D01*
X012950D01*
X012883Y032517D01*
Y032783D01*
X012950Y032850D01*
X013150D01*
X012750Y032450D02*
X012617D01*
X012683D01*
Y032850D01*
X012750Y032783D01*
X027012Y012721D02*
Y012321D01*
Y012721D02*
X026879D01*
X026821Y012702D01*
X026783Y012664D01*
X026764Y012626D01*
X026745Y012569D01*
Y012474D01*
X026764Y012417D01*
X026783Y012379D01*
X026821Y012341D01*
X026879Y012321D01*
X027012D01*
X026542Y012721D02*
X026580Y012702D01*
X026618Y012664D01*
X026637Y012626D01*
X026656Y012569D01*
Y012474D01*
X026637Y012417D01*
X026618Y012379D01*
X026580Y012341D01*
X026542Y012321D01*
X026465D01*
X026427Y012341D01*
X026389Y012379D01*
X026370Y012417D01*
X026351Y012474D01*
Y012569D01*
X026370Y012626D01*
X026389Y012664D01*
X026427Y012702D01*
X026465Y012721D01*
X026542D01*
X026144D02*
X026182Y012702D01*
X026220Y012664D01*
X026239Y012626D01*
X026258Y012569D01*
Y012474D01*
X026239Y012417D01*
X026220Y012379D01*
X026182Y012341D01*
X026144Y012321D01*
X026067D01*
X026029Y012341D01*
X025991Y012379D01*
X025972Y012417D01*
X025953Y012474D01*
Y012569D01*
X025972Y012626D01*
X025991Y012664D01*
X026029Y012702D01*
X026067Y012721D01*
X026144D01*
X025860D02*
Y012321D01*
Y012721D02*
X025688D01*
X025631Y012702D01*
X025612Y012683D01*
X025593Y012645D01*
Y012607D01*
X025612Y012569D01*
X025631Y012550D01*
X025688Y012531D01*
X025860D01*
X025726D02*
X025593Y012321D01*
X022498Y012768D02*
X022536Y012749D01*
X022574Y012711D01*
X022593Y012673D01*
X022612Y012616D01*
Y012521D01*
X022593Y012463D01*
X022574Y012425D01*
X022536Y012387D01*
X022498Y012368D01*
X022421D01*
X022383Y012387D01*
X022345Y012425D01*
X022326Y012463D01*
X022307Y012521D01*
Y012616D01*
X022326Y012673D01*
X022345Y012711D01*
X022383Y012749D01*
X022421Y012768D01*
X022498D01*
X022214D02*
Y012368D01*
X021947Y012768D02*
X022214Y012502D01*
X022119Y012597D02*
X021947Y012368D01*
X021572Y012673D02*
X021591Y012711D01*
X021629Y012749D01*
X021667Y012768D01*
X021744D01*
X021782Y012749D01*
X021820Y012711D01*
X021839Y012673D01*
X021858Y012616D01*
Y012521D01*
X021839Y012463D01*
X021820Y012425D01*
X021782Y012387D01*
X021744Y012368D01*
X021667D01*
X021629Y012387D01*
X021591Y012425D01*
X021572Y012463D01*
X028360Y028145D02*
Y027595D01*
X027852Y028014D02*
X027878Y028066D01*
X027931Y028119D01*
X027983Y028145D01*
X028088D01*
X028140Y028119D01*
X028192Y028066D01*
X028219Y028014D01*
X028245Y027935D01*
Y027804D01*
X028219Y027726D01*
X028192Y027673D01*
X028140Y027621D01*
X028088Y027595D01*
X027983D01*
X027931Y027621D01*
X027878Y027673D01*
X027852Y027726D01*
X027331Y028066D02*
X027383Y028119D01*
X027462Y028145D01*
X027567D01*
X027645Y028119D01*
X027698Y028066D01*
Y028014D01*
X027671Y027961D01*
X027645Y027935D01*
X027593Y027909D01*
X027436Y027857D01*
X027383Y027830D01*
X027357Y027804D01*
X027331Y027752D01*
Y027673D01*
X027383Y027621D01*
X027462Y027595D01*
X027567D01*
X027645Y027621D01*
X027698Y027673D01*
X027208Y027857D02*
X026972D01*
X026894Y027883D01*
X026867Y027909D01*
X026841Y027961D01*
Y028040D01*
X026867Y028092D01*
X026894Y028119D01*
X026972Y028145D01*
X027208D01*
Y027595D01*
X030765Y016490D02*
Y016140D01*
X030882Y016490D02*
X030649D01*
X030390D02*
X030607D01*
Y016140D01*
X030390D01*
X030607Y016323D02*
X030474D01*
X030099Y016440D02*
X030132Y016473D01*
X030182Y016490D01*
X030249D01*
X030299Y016473D01*
X030332Y016440D01*
Y016406D01*
X030315Y016373D01*
X030299Y016356D01*
X030265Y016340D01*
X030165Y016306D01*
X030132Y016290D01*
X030115Y016273D01*
X030099Y016240D01*
Y016190D01*
X030132Y016156D01*
X030182Y016140D01*
X030249D01*
X030299Y016156D01*
X030332Y016190D01*
X029904Y016490D02*
Y016140D01*
X030020Y016490D02*
X029787D01*
X029471D02*
Y016140D01*
Y016490D02*
X029337Y016140D01*
X029204Y016490D02*
X029337Y016140D01*
X029204Y016490D02*
Y016140D01*
X029004Y016490D02*
X029037Y016473D01*
X029071Y016440D01*
X029087Y016406D01*
X029104Y016356D01*
Y016273D01*
X029087Y016223D01*
X029071Y016190D01*
X029037Y016156D01*
X029004Y016140D01*
X028937D01*
X028904Y016156D01*
X028871Y016190D01*
X028854Y016223D01*
X028837Y016273D01*
Y016356D01*
X028854Y016406D01*
X028871Y016440D01*
X028904Y016473D01*
X028937Y016490D01*
X029004D01*
X028756D02*
Y016140D01*
Y016490D02*
X028639D01*
X028589Y016473D01*
X028556Y016440D01*
X028539Y016406D01*
X028522Y016356D01*
Y016273D01*
X028539Y016223D01*
X028556Y016190D01*
X028589Y016156D01*
X028639Y016140D01*
X028756D01*
X028227Y016490D02*
X028444D01*
Y016140D01*
X028227D01*
X028444Y016323D02*
X028311D01*
X028964Y015305D02*
X028983Y015343D01*
X029021Y015381D01*
X029060Y015400D01*
X029136D01*
X029174Y015381D01*
X029212Y015343D01*
X029231Y015305D01*
X029250Y015248D01*
Y015152D01*
X029231Y015095D01*
X029212Y015057D01*
X029174Y015019D01*
X029136Y015000D01*
X029060D01*
X029021Y015019D01*
X028983Y015057D01*
X028964Y015095D01*
Y015152D01*
X029060D02*
X028964D01*
X028873Y015400D02*
Y015000D01*
Y015400D02*
X028606Y015000D01*
Y015400D02*
Y015000D01*
X028496Y015400D02*
Y015000D01*
Y015400D02*
X028363D01*
X028305Y015381D01*
X028267Y015343D01*
X028248Y015305D01*
X028229Y015248D01*
Y015152D01*
X028248Y015095D01*
X028267Y015057D01*
X028305Y015019D01*
X028363Y015000D01*
X028496D01*
D15*
X012487Y030891D02*
G03*
X012487Y030891I-000049J000000D01*
G01*
D17*
X019427Y015850D02*
X019543D01*
X019485D01*
Y015558D01*
X019543Y015500D01*
X019602D01*
X019660Y015558D01*
X019310Y015500D02*
X019193D01*
X019252D01*
Y015850D01*
X019310Y015792D01*
X018990Y023640D02*
X018867D01*
X018928D01*
Y024010D01*
X018990Y023948D01*
X018435Y024010D02*
X018558Y023948D01*
X018682Y023825D01*
Y023702D01*
X018620Y023640D01*
X018497D01*
X018435Y023702D01*
Y023763D01*
X018497Y023825D01*
X018682D01*
X017730Y023600D02*
X017607D01*
X017668D01*
Y023970D01*
X017730Y023908D01*
X017175Y023970D02*
X017422D01*
Y023785D01*
X017298Y023847D01*
X017237D01*
X017175Y023785D01*
Y023662D01*
X017237Y023600D01*
X017360D01*
X017422Y023662D01*
X017310Y014940D02*
X017187D01*
X017248D01*
Y015310D01*
X017310Y015248D01*
X018683Y014940D02*
X018930D01*
X018683Y015187D01*
Y015248D01*
X018745Y015310D01*
X018868D01*
X018930Y015248D01*
X011770Y024780D02*
Y025180D01*
X011570D01*
X011503Y025113D01*
Y024980D01*
X011570Y024913D01*
X011770D01*
X011637D02*
X011503Y024780D01*
X011104Y025180D02*
X011237Y025113D01*
X011370Y024980D01*
Y024847D01*
X011303Y024780D01*
X011170D01*
X011104Y024847D01*
Y024913D01*
X011170Y024980D01*
X011370D01*
X011770Y023680D02*
Y024080D01*
X011570D01*
X011503Y024013D01*
Y023880D01*
X011570Y023813D01*
X011770D01*
X011637D02*
X011503Y023680D01*
X011104Y024080D02*
X011370D01*
Y023880D01*
X011237Y023947D01*
X011170D01*
X011104Y023880D01*
Y023747D01*
X011170Y023680D01*
X011303D01*
X011370Y023747D01*
X019280Y029310D02*
X019157D01*
X019218D01*
Y028940D01*
X019280D01*
X019157D01*
X018725Y029248D02*
X018787Y029310D01*
X018910D01*
X018972Y029248D01*
Y029002D01*
X018910Y028940D01*
X018787D01*
X018725Y029002D01*
X018602Y028940D02*
X018479D01*
X018540D01*
Y029310D01*
X018602Y029248D01*
X025150Y026790D02*
X024800D01*
X025150D02*
X024800Y026923D01*
X025150Y027057D02*
X024800Y026923D01*
X025150Y027057D02*
X024800D01*
X025067Y027407D02*
X025100Y027390D01*
X025133Y027357D01*
X025150Y027323D01*
Y027257D01*
X025133Y027223D01*
X025100Y027190D01*
X025067Y027173D01*
X025017Y027157D01*
X024933D01*
X024883Y027173D01*
X024850Y027190D01*
X024817Y027223D01*
X024800Y027257D01*
Y027323D01*
X024817Y027357D01*
X024850Y027390D01*
X024883Y027407D01*
X025150Y027505D02*
X024800D01*
Y027705D01*
X025150Y027743D02*
X024800D01*
X025150D02*
Y027893D01*
X025133Y027943D01*
X025117Y027960D01*
X025083Y027976D01*
X025050D01*
X025017Y027960D01*
X025000Y027943D01*
X024983Y027893D01*
Y027743D01*
Y027860D02*
X024800Y027976D01*
X024750Y023555D02*
X025100Y023422D01*
X024750Y023288D02*
X025100Y023422D01*
X024750Y023243D02*
X025100D01*
X024750D02*
Y023127D01*
X024767Y023077D01*
X024800Y023044D01*
X024833Y023027D01*
X024883Y023010D01*
X024967D01*
X025017Y023027D01*
X025050Y023044D01*
X025083Y023077D01*
X025100Y023127D01*
Y023243D01*
X024750Y022932D02*
X025100D01*
X024750D02*
Y022815D01*
X024767Y022765D01*
X024800Y022732D01*
X024833Y022715D01*
X024883Y022699D01*
X024967D01*
X025017Y022715D01*
X025050Y022732D01*
X025083Y022765D01*
X025100Y022815D01*
Y022932D01*
X025750Y023900D02*
X026100D01*
X025750D02*
Y023783D01*
X025767Y023733D01*
X025800Y023700D01*
X025833Y023683D01*
X025883Y023667D01*
X025967D01*
X026017Y023683D01*
X026050Y023700D01*
X026083Y023733D01*
X026100Y023783D01*
Y023900D01*
Y023322D02*
X025750Y023455D01*
X026100Y023588D01*
X025983Y023538D02*
Y023372D01*
X025750Y023124D02*
X026100D01*
X025750Y023240D02*
Y023007D01*
X026100Y022699D02*
X025750Y022832D01*
X026100Y022965D01*
X025983Y022915D02*
Y022749D01*
X026067Y027040D02*
X026100Y027023D01*
X026133Y026990D01*
X026150Y026957D01*
Y026890D01*
X026133Y026857D01*
X026100Y026823D01*
X026067Y026807D01*
X026017Y026790D01*
X025933D01*
X025883Y026807D01*
X025850Y026823D01*
X025817Y026857D01*
X025800Y026890D01*
Y026957D01*
X025817Y026990D01*
X025850Y027023D01*
X025883Y027040D01*
X026150Y027138D02*
X025800D01*
Y027338D01*
X026150Y027377D02*
X025800D01*
X026150Y027610D02*
X025917Y027377D01*
X026000Y027460D02*
X025800Y027610D01*
X026833Y023342D02*
X026800Y023358D01*
X026767Y023392D01*
X026750Y023425D01*
Y023492D01*
X026767Y023525D01*
X026800Y023558D01*
X026833Y023575D01*
X026883Y023592D01*
X026967D01*
X027017Y023575D01*
X027050Y023558D01*
X027083Y023525D01*
X027100Y023492D01*
Y023425D01*
X027083Y023392D01*
X027050Y023358D01*
X027017Y023342D01*
X026967D01*
Y023425D02*
Y023342D01*
X026750Y023262D02*
X027100D01*
X026750D02*
X027100Y023029D01*
X026750D02*
X027100D01*
X026750Y022932D02*
X027100D01*
X026750D02*
Y022815D01*
X026767Y022765D01*
X026800Y022732D01*
X026833Y022715D01*
X026883Y022699D01*
X026967D01*
X027017Y022715D01*
X027050Y022732D01*
X027083Y022765D01*
X027100Y022815D01*
Y022932D01*
D18*
X013950Y015237D02*
Y015587D01*
X013775D01*
X013717Y015529D01*
Y015412D01*
X013775Y015354D01*
X013950D01*
X013833D02*
X013717Y015237D01*
X013425D02*
Y015587D01*
X013600Y015412D01*
X013367D01*
X013850Y011300D02*
Y011650D01*
X013675D01*
X013617Y011592D01*
Y011475D01*
X013675Y011417D01*
X013850D01*
X013733D02*
X013617Y011300D01*
X013500Y011592D02*
X013442Y011650D01*
X013325D01*
X013267Y011592D01*
Y011533D01*
X013325Y011475D01*
X013383D01*
X013325D01*
X013267Y011417D01*
Y011358D01*
X013325Y011300D01*
X013442D01*
X013500Y011358D01*
X013900Y014000D02*
Y014350D01*
X013725D01*
X013667Y014292D01*
Y014175D01*
X013725Y014117D01*
X013900D01*
X013783D02*
X013667Y014000D01*
X013550D02*
X013433D01*
X013492D01*
Y014350D01*
X013550Y014292D01*
X013950Y012650D02*
Y013000D01*
X013775D01*
X013717Y012942D01*
Y012825D01*
X013775Y012767D01*
X013950D01*
X013833D02*
X013717Y012650D01*
X013367D02*
X013600D01*
X013367Y012883D01*
Y012942D01*
X013425Y013000D01*
X013542D01*
X013600Y012942D01*
X015897Y027390D02*
Y027739D01*
X015722D01*
X015664Y027681D01*
Y027565D01*
X015722Y027506D01*
X015897D01*
X015780D02*
X015664Y027390D01*
X015547Y027739D02*
X015314D01*
Y027681D01*
X015547Y027448D01*
Y027390D01*
X013193Y018210D02*
X013440D01*
Y018025D01*
X013317D01*
X013440D01*
Y017840D01*
X013070D02*
X012947D01*
X013008D01*
Y018210D01*
X013070Y018148D01*
X021250Y023300D02*
X021136Y023000D01*
X021021Y023300D02*
X021136Y023000D01*
X020983Y023300D02*
Y023000D01*
Y023300D02*
X020883D01*
X020840Y023286D01*
X020812Y023257D01*
X020797Y023229D01*
X020783Y023186D01*
Y023114D01*
X020797Y023071D01*
X020812Y023043D01*
X020840Y023014D01*
X020883Y023000D01*
X020983D01*
X020716Y023300D02*
Y023000D01*
Y023300D02*
X020616D01*
X020573Y023286D01*
X020544Y023257D01*
X020530Y023229D01*
X020516Y023186D01*
Y023114D01*
X020530Y023071D01*
X020544Y023043D01*
X020573Y023014D01*
X020616Y023000D01*
X020716D01*
X021250Y017180D02*
Y016880D01*
Y017180D02*
X021150D01*
X021107Y017166D01*
X021079Y017137D01*
X021064Y017109D01*
X021050Y017066D01*
Y016994D01*
X021064Y016951D01*
X021079Y016923D01*
X021107Y016894D01*
X021150Y016880D01*
X021250D01*
X020754D02*
X020869Y017180D01*
X020983Y016880D01*
X020940Y016980D02*
X020797D01*
X020584Y017180D02*
Y016880D01*
X020684Y017180D02*
X020484D01*
X020220Y016880D02*
X020334Y017180D01*
X020449Y016880D01*
X020406Y016980D02*
X020263D01*
X021036Y016109D02*
X021050Y016137D01*
X021079Y016166D01*
X021107Y016180D01*
X021164D01*
X021193Y016166D01*
X021221Y016137D01*
X021236Y016109D01*
X021250Y016066D01*
Y015994D01*
X021236Y015951D01*
X021221Y015923D01*
X021193Y015894D01*
X021164Y015880D01*
X021107D01*
X021079Y015894D01*
X021050Y015923D01*
X021036Y015951D01*
X020951Y016180D02*
Y015880D01*
X020780D01*
X020747Y016180D02*
Y015880D01*
X020547Y016180D02*
X020747Y015980D01*
X020676Y016051D02*
X020547Y015880D01*
X016040Y019200D02*
Y018900D01*
Y019200D02*
X015911D01*
X015868Y019186D01*
X015854Y019171D01*
X015840Y019143D01*
Y019114D01*
X015854Y019086D01*
X015868Y019071D01*
X015911Y019057D01*
X016040D02*
X015911D01*
X015868Y019043D01*
X015854Y019029D01*
X015840Y019000D01*
Y018957D01*
X015854Y018929D01*
X015868Y018914D01*
X015911Y018900D01*
X016040D01*
X015544D02*
X015658Y019200D01*
X015773Y018900D01*
X015730Y019000D02*
X015587D01*
X015374Y019200D02*
Y018900D01*
X015474Y019200D02*
X015274D01*
X015139D02*
Y018900D01*
X015239Y019200D02*
X015039D01*
X015502Y018069D02*
X015516Y018097D01*
X015544Y018126D01*
X015573Y018140D01*
X015630D01*
X015659Y018126D01*
X015687Y018097D01*
X015702Y018069D01*
X015716Y018026D01*
Y017954D01*
X015702Y017911D01*
X015687Y017883D01*
X015659Y017854D01*
X015630Y017840D01*
X015573D01*
X015544Y017854D01*
X015516Y017883D01*
X015502Y017911D01*
Y017954D01*
X015573D02*
X015502D01*
X015433Y018140D02*
Y017840D01*
Y018140D02*
X015233Y017840D01*
Y018140D02*
Y017840D01*
X015150Y018140D02*
Y017840D01*
Y018140D02*
X015050D01*
X015007Y018126D01*
X014979Y018097D01*
X014965Y018069D01*
X014950Y018026D01*
Y017954D01*
X014965Y017911D01*
X014979Y017883D01*
X015007Y017854D01*
X015050Y017840D01*
X015150D01*
X021250Y020180D02*
Y019880D01*
Y020180D02*
X021121D01*
X021079Y020166D01*
X021064Y020151D01*
X021050Y020123D01*
Y020094D01*
X021064Y020066D01*
X021079Y020051D01*
X021121Y020037D01*
X021250D01*
X021150D02*
X021050Y019880D01*
X020983Y020180D02*
Y019880D01*
Y020180D02*
X020869Y019880D01*
X020754Y020180D02*
X020869Y019880D01*
X020754Y020180D02*
Y019880D01*
X020569Y020180D02*
Y019880D01*
X020669Y020180D02*
X020469D01*
X016184Y020160D02*
Y019860D01*
Y020160D02*
X016056D01*
X016013Y020146D01*
X015999Y020131D01*
X015984Y020103D01*
Y020074D01*
X015999Y020046D01*
X016013Y020031D01*
X016056Y020017D01*
X016184D01*
X016084D02*
X015984Y019860D01*
X015732Y020160D02*
X015917D01*
Y019860D01*
X015732D01*
X015917Y020017D02*
X015803D01*
X015682Y020160D02*
Y019860D01*
X015510D01*
X015249D02*
X015363Y020160D01*
X015477Y019860D01*
X015434Y019960D02*
X015292D01*
X015179Y020160D02*
X015065Y020017D01*
Y019860D01*
X014950Y020160D02*
X015065Y020017D01*
X020971Y017940D02*
X021086Y018240D01*
X021200Y017940D01*
X021157Y018040D02*
X021014D01*
X020687Y018169D02*
X020702Y018197D01*
X020730Y018226D01*
X020759Y018240D01*
X020816D01*
X020844Y018226D01*
X020873Y018197D01*
X020887Y018169D01*
X020901Y018126D01*
Y018054D01*
X020887Y018011D01*
X020873Y017983D01*
X020844Y017954D01*
X020816Y017940D01*
X020759D01*
X020730Y017954D01*
X020702Y017983D01*
X020687Y018011D01*
X020603Y018183D02*
X020574Y018197D01*
X020532Y018240D01*
Y017940D01*
X021021Y018940D02*
X021136Y019240D01*
X021250Y018940D01*
X021207Y019040D02*
X021064D01*
X020737Y019169D02*
X020752Y019197D01*
X020780Y019226D01*
X020809Y019240D01*
X020866D01*
X020894Y019226D01*
X020923Y019197D01*
X020937Y019169D01*
X020951Y019126D01*
Y019054D01*
X020937Y019011D01*
X020923Y018983D01*
X020894Y018954D01*
X020866Y018940D01*
X020809D01*
X020780Y018954D01*
X020752Y018983D01*
X020737Y019011D01*
X020639Y019169D02*
Y019183D01*
X020624Y019211D01*
X020610Y019226D01*
X020582Y019240D01*
X020524D01*
X020496Y019226D01*
X020482Y019211D01*
X020467Y019183D01*
Y019154D01*
X020482Y019126D01*
X020510Y019083D01*
X020653Y018940D01*
X020453D01*
X015967Y023120D02*
Y022820D01*
Y023120D02*
X015853Y022820D01*
X015739Y023120D02*
X015853Y022820D01*
X015739Y023120D02*
Y022820D01*
X015439Y023049D02*
X015453Y023077D01*
X015482Y023106D01*
X015510Y023120D01*
X015567D01*
X015596Y023106D01*
X015624Y023077D01*
X015639Y023049D01*
X015653Y023006D01*
Y022934D01*
X015639Y022891D01*
X015624Y022863D01*
X015596Y022834D01*
X015567Y022820D01*
X015510D01*
X015482Y022834D01*
X015453Y022863D01*
X015439Y022891D01*
X015355Y023120D02*
Y022820D01*
X015183D01*
X015150Y023120D02*
Y022820D01*
Y023120D02*
X015022D01*
X014979Y023106D01*
X014965Y023091D01*
X014950Y023063D01*
Y023034D01*
X014965Y023006D01*
X014979Y022991D01*
X015022Y022977D01*
X015150D01*
X015050D02*
X014950Y022820D01*
X021250Y021140D02*
Y020840D01*
Y021140D02*
X021150D01*
X021107Y021126D01*
X021079Y021097D01*
X021064Y021069D01*
X021050Y021026D01*
Y020954D01*
X021064Y020911D01*
X021079Y020883D01*
X021107Y020854D01*
X021150Y020840D01*
X021250D01*
X020897Y021140D02*
X020926Y021126D01*
X020954Y021097D01*
X020969Y021069D01*
X020983Y021026D01*
Y020954D01*
X020969Y020911D01*
X020954Y020883D01*
X020926Y020854D01*
X020897Y020840D01*
X020840D01*
X020812Y020854D01*
X020783Y020883D01*
X020769Y020911D01*
X020754Y020954D01*
Y021026D01*
X020769Y021069D01*
X020783Y021097D01*
X020812Y021126D01*
X020840Y021140D01*
X020897D01*
X020599D02*
X020627Y021126D01*
X020656Y021097D01*
X020670Y021069D01*
X020684Y021026D01*
Y020954D01*
X020670Y020911D01*
X020656Y020883D01*
X020627Y020854D01*
X020599Y020840D01*
X020542D01*
X020513Y020854D01*
X020484Y020883D01*
X020470Y020911D01*
X020456Y020954D01*
Y021026D01*
X020470Y021069D01*
X020484Y021097D01*
X020513Y021126D01*
X020542Y021140D01*
X020599D01*
X020386D02*
Y020840D01*
Y021140D02*
X020257D01*
X020215Y021126D01*
X020200Y021111D01*
X020186Y021083D01*
Y021054D01*
X020200Y021026D01*
X020215Y021011D01*
X020257Y020997D01*
X020386D01*
X020286D02*
X020186Y020840D01*
X021150Y022160D02*
Y021860D01*
X021250Y022160D02*
X021050D01*
X020829D02*
X021014D01*
Y021860D01*
X020829D01*
X021014Y022017D02*
X020900D01*
X020579Y022117D02*
X020607Y022146D01*
X020650Y022160D01*
X020707D01*
X020750Y022146D01*
X020779Y022117D01*
Y022089D01*
X020764Y022060D01*
X020750Y022046D01*
X020722Y022031D01*
X020636Y022003D01*
X020607Y021989D01*
X020593Y021974D01*
X020579Y021946D01*
Y021903D01*
X020607Y021874D01*
X020650Y021860D01*
X020707D01*
X020750Y021874D01*
X020779Y021903D01*
X020412Y022160D02*
Y021860D01*
X020512Y022160D02*
X020312D01*
X015644Y021200D02*
X015673Y021186D01*
X015702Y021157D01*
X015716Y021129D01*
X015730Y021086D01*
Y021014D01*
X015716Y020971D01*
X015702Y020943D01*
X015673Y020914D01*
X015644Y020900D01*
X015587D01*
X015559Y020914D01*
X015530Y020943D01*
X015516Y020971D01*
X015502Y021014D01*
Y021086D01*
X015516Y021129D01*
X015530Y021157D01*
X015559Y021186D01*
X015587Y021200D01*
X015644D01*
X015432D02*
Y020900D01*
X015232Y021200D02*
X015432Y021000D01*
X015360Y021071D02*
X015232Y020900D01*
X014950Y021129D02*
X014965Y021157D01*
X014993Y021186D01*
X015022Y021200D01*
X015079D01*
X015107Y021186D01*
X015136Y021157D01*
X015150Y021129D01*
X015165Y021086D01*
Y021014D01*
X015150Y020971D01*
X015136Y020943D01*
X015107Y020914D01*
X015079Y020900D01*
X015022D01*
X014993Y020914D01*
X014965Y020943D01*
X014950Y020971D01*
X015275Y022180D02*
X015417D01*
X015432Y022051D01*
X015417Y022066D01*
X015375Y022080D01*
X015332D01*
X015289Y022066D01*
X015260Y022037D01*
X015246Y021994D01*
Y021966D01*
X015260Y021923D01*
X015289Y021894D01*
X015332Y021880D01*
X015375D01*
X015417Y021894D01*
X015432Y021909D01*
X015446Y021937D01*
X015179Y022180D02*
X015065Y021880D01*
X014950Y022180D02*
X015065Y021880D01*
X015502Y016109D02*
X015516Y016137D01*
X015544Y016166D01*
X015573Y016180D01*
X015630D01*
X015659Y016166D01*
X015687Y016137D01*
X015702Y016109D01*
X015716Y016066D01*
Y015994D01*
X015702Y015951D01*
X015687Y015923D01*
X015659Y015894D01*
X015630Y015880D01*
X015573D01*
X015544Y015894D01*
X015516Y015923D01*
X015502Y015951D01*
Y015994D01*
X015573D02*
X015502D01*
X015433Y016180D02*
Y015880D01*
Y016180D02*
X015233Y015880D01*
Y016180D02*
Y015880D01*
X015150Y016180D02*
Y015880D01*
Y016180D02*
X015050D01*
X015007Y016166D01*
X014979Y016137D01*
X014965Y016109D01*
X014950Y016066D01*
Y015994D01*
X014965Y015951D01*
X014979Y015923D01*
X015007Y015894D01*
X015050Y015880D01*
X015150D01*
X016184Y017260D02*
Y016960D01*
Y017260D02*
X016056D01*
X016013Y017246D01*
X015999Y017231D01*
X015984Y017203D01*
Y017174D01*
X015999Y017146D01*
X016013Y017131D01*
X016056Y017117D01*
X016184D01*
X016084D02*
X015984Y016960D01*
X015732Y017260D02*
X015917D01*
Y016960D01*
X015732D01*
X015917Y017117D02*
X015803D01*
X015682Y017260D02*
Y016960D01*
X015510D01*
X015249D02*
X015363Y017260D01*
X015477Y016960D01*
X015434Y017060D02*
X015292D01*
X015179Y017260D02*
X015065Y017117D01*
Y016960D01*
X014950Y017260D02*
X015065Y017117D01*
D59*
X017848Y025140D02*
G03*
X017848Y025140I-000020J000000D01*
G01*
M02*
