M48
;Layer_Color=9474304
;FILE_FORMAT=2:4
INCH
;TYPE=PLATED
T1F00S00C0.0200
T2F00S00C0.0354
T3F00S00C0.0400
T4F00S00C0.0480
T5F00S00C0.0500
T6F00S00C0.0680
T7F00S00C0.0700
T8F00S00C0.0900
T9F00S00C0.1270
;TYPE=NON_PLATED
T10F00S00C0.0200
T11F00S00C0.1260
T12F00S00C0.1260
T13F00S00C0.2362
%
T01
X006620Y013400
X008750Y013700
Y015000
Y016050
X008135Y018650
X006393Y017650
X005800Y017050
X005900Y021172
X005910Y024450
X007100Y024400
X008331
X009970Y020500
X002450Y020300
X003900Y022900
X003160Y025640
X008750Y012250
X012230Y020940
X012930Y020970
X013107Y021990
X014800Y021050
X016500Y021385
X016200Y025100
X013900Y025800
X011000Y023050
X019760Y023509
X022100Y022000
X021683Y021000
X023700Y021150
X024145Y014650
X030882Y024700
X016462Y028000
T02
X017550Y016000
Y017000
Y018000
Y019000
Y020000
Y021000
Y022000
Y023000
X018550
Y022000
Y021000
Y020000
Y019000
Y018000
Y017000
Y016000
T03
X012000Y055971
X013000
X014000
X015000
X016000
X017000
X018000
Y081971
X017000
X016000
X015000
X014000
X013000
X012000
T04
X005200Y027600
Y028600
T05
X001200Y027600
X002200
X003200
Y028600
X002200
X001200
T06
X023632Y012490
X024632
X024932Y024790
Y025790
X025932
Y024790
X026932
Y025790
X027182Y016290
Y015290
T07
X006142Y043030
X009094Y047951
X015000
X020906
X023858Y043030
X017953
X012047
Y069030
X017953
X023858
X006142
X009094Y073951
X015000
X020906
T08
X002835Y004094
X007835
T09
X001250Y032000
X003000
T10
X027300Y033300
X027700
X028100
X028500
X028900
Y034100
X028500
X028100
X027700
X027300
X014350
X013950
X013550
X013150
X012750
Y033300
X013150
X013550
X013950
X014350
X001700
X001300
X000900
X000500
X000100
Y034100
X000500
X000900
X001300
X001700
X027300Y059301
X027700
X028100
X028500
X028820
Y060101
X028500
X028100
X027700
X027300
X021200
X020800
X020400
X020000
X019600
Y059301
X020000
X020400
X020800
X021200
X009900
X009500
X009100
X008700
X008300
Y060101
X008700
X009100
X009500
X009900
X001700
X001300
X000900
X000500
X000180
Y059301
X000500
X000900
X001300
X001700
T11
X032050Y010617
X016050
T12
X032050Y030117
X016050
T13
X027000Y036201
X002000
Y056201
X027000
Y062201
X002000
Y082201
X027000
M30
